<svg xmlns="http://www.w3.org/2000/svg" fill="none" viewBox="0 0 104 104"><g clip-path="url(#a)"><path fill="#00636F" d="M80.237 49.203c-1.995-.391-4.396-1.481-5.632-3.089l-4.41-5.241C69.24 39.67 67.878 39 66.36 39H48.075a4.86 4.86 0 0 0-3.132 1.146l-9.396 8.12c-1.53 1.356-14.563 1.818-14.563 7.31v.21a1.84 1.84 0 0 0-.998 1.621v1.258c0 1.007.829 1.817 2.458 1.817h8.413c.14 3.033 2.64 5.465 5.716 5.465s5.575-2.432 5.716-5.465h22.358c.14 3.033 2.64 5.465 5.716 5.465s5.576-2.432 5.716-5.465h3.863c1.952 0 4.044-.517 4.044-3.075V53.76a4.65 4.65 0 0 0-3.764-4.557zm-23.693-.098H40.56l7.107-6.29a.66.66 0 0 1 .421-.14h8.455zm3.328-6.43h6.489c.196 0 .365.043.547.267l4.382 5.688c.127.168.253.322.393.475h-11.81z"/></g><defs><clipPath id="a"><path fill="#fff" d="M20 39h64v26.947H20z"/></clipPath></defs></svg>