<svg xmlns="http://www.w3.org/2000/svg" fill="none" viewBox="0 0 80 80"><g clip-path="url(#a)"><g fill="#001159" clip-path="url(#b)"><path d="M21.577 51.79h-1.675v1.04h1.675zM41.462 30.798c.844 0 1.532-.696 1.532-1.549s-.688-1.549-1.532-1.549-1.532.696-1.532 1.55c0 .852.688 1.548 1.532 1.548m0-2.433c.484 0 .875.395.875.884 0 .49-.391.885-.875.885a.88.88 0 0 1-.875-.885c0-.489.391-.884.875-.884"/><path d="M56.785 45.135c.03-.426.056-.859.056-1.298a16.9 16.9 0 0 0-9.536-15.24q.03-.302.031-.614c0-4.014-3.22-7.27-7.19-7.27s-7.19 3.256-7.19 7.27q.002.311.031.614a16.91 16.91 0 0 0-9.535 15.24c0 .445.025.89.056 1.33-3.586.414-6.371 3.48-6.371 7.218 0 4.014 3.22 7.269 7.19 7.269 2.202 0 4.162-1.004 5.484-2.571a16.5 16.5 0 0 0 10.335 3.637c3.902 0 7.705-1.442 10.59-3.838 1.315 1.687 3.35 2.778 5.645 2.778 3.97 0 7.19-3.255 7.19-7.268 0-4.014-3.002-7.03-6.78-7.244zM36.002 27.581c0-.52.422-.947.937-.947h1.768v-.257c0-.182.143-.326.323-.326h.732v-.395c-.379-.1-.645-.332-.645-.615v-1.655H36.66a.42.42 0 0 1-.416-.42h7.792c0 .231-.186.42-.416.42h-2.456v1.655c0 .276-.267.514-.645.615v.401h.732c.18 0 .322.145.322.326v.258h1.768c.521 0 .937.426.937.947v3.336c0 .52-.422.947-.937.947h-6.408a.945.945 0 0 1-.937-.947v-3.337zM21.932 50.53h-.353v.897h.347v4.246c0 .15-.118.27-.267.27h-1.842a.27.27 0 0 1-.267-.27v-4.246h.354v-.897h-.348v-1.217c0-.15.118-.27.267-.27h1.842a.27.27 0 0 1 .267.27zm6.477 2.803c-.285.345-.385.81-.385 1.18v1.417h-2.878v-1.041s-.397.113-.732.113-.453-.076-.528-.44c-.05-.238-.273-1.26-.273-1.26l-.44-.113a.26.26 0 0 1-.18-.15.3.3 0 0 1 0-.239s.478-.99.682-1.38c0-1.498 1.204-2.715 2.687-2.715s2.63 1.16 2.686 2.615a2.8 2.8 0 0 1-.64 2.02zm20.782-.953c0 1.242.31 2.415.856 3.437a15.27 15.27 0 0 1-9.9 3.637c-3.766 0-6.98-1.28-9.623-3.411a7.27 7.27 0 0 0 .987-3.67c0-3.869-2.99-7.023-6.762-7.243q-.056-.64-.056-1.298a15.66 15.66 0 0 1 8.518-13.954c.825 3.092 3.61 5.368 6.93 5.368 3.318 0 6.104-2.276 6.929-5.368a15.64 15.64 0 0 1 8.517 13.954c0 .451-.025.89-.062 1.33-3.573.42-6.346 3.486-6.346 7.212zm11.272-.86a4.15 4.15 0 0 1-1.445 3.155l-2.637 2.703-2.636-2.703a4.13 4.13 0 0 1-1.446-3.154c0-2.277 1.83-4.127 4.082-4.127s4.082 1.85 4.082 4.127"/><path d="M56.381 54.537c1.638 0 2.966-1.343 2.966-2.998s-1.328-2.998-2.966-2.998c-1.637 0-2.965 1.342-2.965 2.998 0 1.655 1.328 2.998 2.965 2.998M44.99 50.127c0 .195.156.351.348.351h1.948a.35.35 0 0 0 .347-.35v-1.343h-2.649v1.342zM32.291 50.127c0 .195.156.351.348.351h1.948a.35.35 0 0 0 .347-.35v-1.343h-2.649v1.342zM49.321 41.861a.444.444 0 0 0-.459-.426l-1.966.094-1.433-2.973c-.124-.345-.521-.633-.881-.633h-9.3c-.366 0-.763.282-.88.633l-1.384 2.973-1.942-.094a.437.437 0 0 0-.459.426l-.025.515a.525.525 0 0 0 .41.527l1.296.238v4.5969999999999995c0 .307.249.558.552.558h14.244c.304 0 .552-.25.552-.558v-4.603l1.297-.239a.525.525 0 0 0 .41-.527l-.025-.514zm-15.161.258 1.153-2.61a.65.65 0 0 1 .546-.357h8.146a.68.68 0 0 1 .558.351l1.284 2.622c.093.194 0 .351-.217.351H34.395c-.21 0-.316-.163-.23-.358zm2.016 3.75H34.81c-.484 0-1.098-.339-1.352-.753l-.15-.232c-.26-.414-.08-.752.404-.752h1.365c.484 0 1.098.338 1.352.752l.149.232c.26.414.08.753-.403.753m5.447 1.474h-3.307V45.88h3.307zm5.167-2.459-.149.232c-.26.414-.868.753-1.352.753h-1.365c-.484 0-.67-.339-.41-.753l.15-.232c.26-.414.868-.752 1.352-.752h1.365c.484 0 .67.338.41.752"/></g></g><defs><clipPath id="a"><path fill="#fff" d="M0 0h80v80H0z"/></clipPath><clipPath id="b"><path fill="#fff" d="M17.143 20.714h46.429v40h-46.43z"/></clipPath></defs></svg>