<svg xmlns="http://www.w3.org/2000/svg" fill="none" viewBox="0 0 80 80"><g clip-path="url(#a)"><g clip-path="url(#b)"><path stroke="#001159" stroke-linecap="round" stroke-linejoin="round" stroke-width="3" d="M56.03 57.235v-6.671c0-1.736.478-3.914 1.828-5.55 2.715-3.279 3.243-6.786 3.036-9.493-.257-6.843-5.878-12.307-12.786-12.307s-12.8 5.728-12.8 12.793c-.957 1.835-3.242 6.5-3.242 6.5-.18.35-.18.764-.015 1.121s.479.622.864.714l2.093.522s1.065 4.814 1.307 5.928c.365 1.693.915 2.058 2.515 2.058s3.493-.522 3.493-.522v4.9"/><path fill="#001159" d="M27.214 41.364v-3.742a.83.83 0 0 0-.828-.829h-5.743a.823.823 0 0 0-.829.821v3.743h.522v2.772h-.529l-.014 13.093a.83.83 0 0 0 .829.828h5.742a.823.823 0 0 0 .829-.821l.014-13.1h-.528v-2.765zm-2.914.8c0-.078.107-.142.236-.142.128 0 .235.064.235.142v.965c0 .078-.107.143-.235.143-.129 0-.236-.065-.236-.143zm-1.029 0c0-.078.108-.142.236-.142.129 0 .236.064.236.142v.965c0 .078-.107.143-.236.143-.128 0-.236-.065-.236-.143zm-1.02 0c0-.078.106-.142.235-.142.128 0 .235.064.235.142v.965c0 .078-.107.143-.235.143-.129 0-.236-.065-.236-.143zm1.656 7.936h-.8a.604.604 0 0 1-.6-.6c0-.328.272-.6.6-.6h.8c.329 0 .6.272.6.6 0 .329-.271.6-.6.6m2.207-2.214h-5.221v-2.607h5.221zM27.93 34.429h-8.715a.64.64 0 0 1-.643-.643v-8.714a.64.64 0 0 1 .643-.643h8.714a.64.64 0 0 1 .643.643v8.714a.64.64 0 0 1-.643.643m-8.072-1.286h7.429v-7.429h-7.429z"/><path stroke="#001159" stroke-linecap="round" stroke-linejoin="round" stroke-width="2.16" d="m21.736 27.514 1.593 2.75 5.243-6.557"/></g></g><defs><clipPath id="a"><path fill="#fff" d="M0 0h80v80H0z"/></clipPath><clipPath id="b"><path fill="#fff" d="M18.572 22.143h43.436v36.164H18.572z"/></clipPath></defs></svg>