<svg xmlns="http://www.w3.org/2000/svg" fill="none" viewBox="0 0 80 80"><g clip-path="url(#a)"><g fill="#001159" clip-path="url(#b)"><path d="M52.007 37.271h-6.672v-.964c0-.679-.55-1.229-1.228-1.229h-2.765V33.6c1.422-.364 2.429-1.243 2.429-2.286v-6.171h9.264c.872 0 1.572-.707 1.572-1.572H25.22c0 .872.7 1.572 1.564 1.572h9.272v6.171c0 1.036 1.007 1.914 2.421 2.286v1.478h-2.75c-.679 0-1.229.55-1.229 1.229v.964h-6.678a3.54 3.54 0 0 0-3.536 3.536v12.457a3.54 3.54 0 0 0 3.536 3.536h24.186a3.54 3.54 0 0 0 3.535-3.536V40.807a3.54 3.54 0 0 0-3.535-3.536m-7.129 15.543a5.777 5.777 0 0 1-5.779-5.778 5.777 5.777 0 0 1 5.779-5.779 5.777 5.777 0 0 1 5.779 5.779 5.777 5.777 0 0 1-5.779 5.778"/><path d="M47.21 49.366a3.293 3.293 0 1 0-4.657-4.657 3.293 3.293 0 0 0 4.657 4.656"/></g></g><defs><clipPath id="a"><path fill="#fff" d="M0 0h80v80H0z"/></clipPath><clipPath id="b"><path fill="#fff" d="M24.285 23.571h31.257v33.23H24.285z"/></clipPath></defs></svg>