<svg xmlns="http://www.w3.org/2000/svg" width="36" height="36" fill="none"><path stroke="#fff" stroke-linecap="round" stroke-linejoin="round" stroke-width="2" d="M14.007 22.486a9 9 0 1 0-8.112-4.171l-.636 1.908-.001.003c-.244.73-.366 1.096-.279 1.34.076.212.244.379.456.454.242.087.605-.034 1.331-.276l.01-.003 1.91-.636a8.96 8.96 0 0 0 5.321 1.38m0 0q0 0 0 0m0 0a9.004 9.004 0 0 0 13.308 4.619l1.908.636h.004c.73.244 1.097.366 1.34.28a.75.75 0 0 0 .453-.455c.087-.244-.034-.61-.279-1.343l-.636-1.908.213-.353A8.96 8.96 0 0 0 31.5 19.5a9 9 0 0 0-8.999-9l-.337.006-.17.008"/></svg>