<svg xmlns="http://www.w3.org/2000/svg" width="36" height="36" fill="none"><path fill="#fff" d="M29.647 13h-1.014C28.142 7.4 23.56 3 18 3S7.866 7.403 7.373 13h-1.02C3.676 13 1.5 15.242 1.5 18v2c0 2.758 2.176 5 4.853 5h1.069c.49 4.488 4.152 8 8.637 8H18c1.606 0 2.912-1.346 2.912-3S19.606 27 18 27s-2.912 1.346-2.912 3c0 .321.062.625.153.915-3.357-.422-5.976-3.344-5.976-6.915V14c0-4.963 3.918-9 8.735-9s8.735 4.037 8.735 9v9c0 1.104.87 2 1.942 2h.97c2.677 0 4.853-2.242 4.853-5v-2c0-2.758-2.176-5-4.853-5M7.324 23h-.971c-1.606 0-2.912-1.346-2.912-3v-2c0-1.654 1.306-3 2.912-3h.97zM18 29c.535 0 .97.45.97 1s-.435 1-.97 1-.97-.45-.97-1 .435-1 .97-1m14.559-9c0 1.654-1.306 3-2.912 3h-.97v-8h.97c1.606 0 2.912 1.346 2.912 3z"/></svg>