<svg xmlns="http://www.w3.org/2000/svg" width="36" height="36" fill="none"><path stroke="#fff" stroke-linecap="round" stroke-linejoin="round" stroke-width="2" d="m6 9 9.162 6.918.002.003c1.018.746 1.527 1.12 2.084 1.263.493.128 1.01.128 1.503 0 .558-.144 1.069-.518 2.088-1.266 0 0 5.876-4.51 9.161-6.918M4.5 23.7V12.3c0-1.68 0-2.52.327-3.162a3 3 0 0 1 1.31-1.311C6.78 7.5 7.62 7.5 9.3 7.5h17.4c1.68 0 2.52 0 3.161.327a3 3 0 0 1 1.312 1.31c.327.642.327 1.481.327 3.158v11.41c0 1.677 0 2.516-.327 3.157a3 3 0 0 1-1.312 1.311c-.641.327-1.48.327-3.156.327H9.295c-1.677 0-2.516 0-3.157-.327a3 3 0 0 1-1.311-1.311C4.5 26.22 4.5 25.38 4.5 23.7"/></svg>