<svg xmlns="http://www.w3.org/2000/svg" width="36" height="36" fill="none"><g stroke="#fff" stroke-linejoin="round" stroke-width="1.8" clip-path="url(#a)"><path d="m34.065 8.12-2.085-.246a6 6 0 0 0-.493-1.08l1.261-1.598a.493.493 0 0 0-.038-.654L31.278 3.11a.49.49 0 0 0-.654-.039l-1.668 1.316a6 6 0 0 0-1.092-.437l-.238-2.015a.493.493 0 0 0-.49-.435H25.11c-.25 0-.46.187-.49.435l-.237 2.015q-.62.18-1.186.484l-1.5-1.183a.49.49 0 0 0-.654.039L19.61 4.722a.493.493 0 0 0-.038.654l1.159 1.469a6 6 0 0 0-.559 1.323l-1.737.206a.493.493 0 0 0-.435.49v2.025c0 .25.187.46.435.49l1.724.204q.213.755.608 1.432l-1.016 1.288a.493.493 0 0 0 .039.653l1.432 1.433a.49.49 0 0 0 .654.038l1.34-1.056a6.1 6.1 0 0 0 1.465.553l.193 1.64c.03.249.24.436.49.436h2.027c.25 0 .46-.187.489-.435l.211-1.792a6.2 6.2 0 0 0 1.32-.624l1.392 1.1a.49.49 0 0 0 .654-.039l1.433-1.433a.493.493 0 0 0 .038-.654l-1.218-1.544q.282-.59.436-1.228l1.919-.226a.493.493 0 0 0 .435-.49V8.61c0-.25-.187-.46-.435-.49Zm-5.249 1.777a2.697 2.697 0 0 1-2.693 2.695 2.7 2.7 0 0 1-2.694-2.695 2.696 2.696 0 0 1 2.694-2.693 2.696 2.696 0 0 1 2.693 2.693ZM25.918 28.568l-5.375-5.125-1.264-1.245-3.07-3.024-.563-.554a2.28 2.28 0 0 1-.665-1.918c.3-2.195-.422-4.467-1.885-5.928C11.952 9.631 10.397 9 8.718 9c-.335 0-.675.026-1.01.076a.79.79 0 0 0-.44 1.339l2.61 2.61-.983 3.368-3.369.985-2.61-2.61a.79.79 0 0 0-.805-.193.79.79 0 0 0-.534.633c-.307 2.036.312 4 1.7 5.388 1.24 1.24 3.035 1.952 4.925 1.952q.504 0 1-.068.146-.02.297-.02c.6 0 1.191.25 1.623.69l.484.49 4.748 4.822.339.356 4.375 4.6a3.55 3.55 0 0 0 2.551 1.082A3.36 3.36 0 0 0 27 31.105a3.56 3.56 0 0 0-1.082-2.538Z"/></g><defs><clipPath id="a"><path fill="#fff" d="M0 0h36v36H0z"/></clipPath></defs></svg>