<svg xmlns="http://www.w3.org/2000/svg" width="104" height="104" fill="none"><g fill="#fff" clip-path="url(#a)"><path d="M48.201 66.209h3.886V60.97h-2.279v-3.419h2.279v-4.21h-2.279v-3.419h2.279v-4.21h-2.279v-3.419h2.279v-3.84h-2.279v-3.418h2.279V30H37.032v44.486h11.16V66.21zm-1.284-5.238h-4.698v-3.419h4.698zm0-7.629h-4.698v-3.419h4.698zm0-7.62h-4.698v-3.42h4.698zm-4.698-7.25v-3.42h4.698v3.42zM55.981 74.486h11.16V30H52.088v5.052h2.278v3.42h-2.278v3.839h2.278v3.419h-2.278v4.21h2.278v3.419h-2.278v4.21h2.278v3.419h-2.278v5.238h3.886v8.277zm1.293-16.934h4.697v3.42h-4.697zm0-7.62h4.697v3.418h-4.697zm0-7.63h4.697v3.42h-4.697zm0-3.83v-3.42h4.697v3.42zM25.002 62.933v-2.99h8.153v-3.367h-8.153v-2.998h8.153v-3.369h-8.153v-2.997h8.153v-3.369h-8.153v-2.989h8.153v-4.092H21V75h12.155V62.933zM78.998 62.933v-2.99h-8.145v-3.367h8.145v-2.998h-8.145v-3.369h8.145v-2.997h-8.145v-3.369h8.145v-2.989h-8.145v-4.092H83V75H70.853V62.933z"/></g><defs><clipPath id="a"><path fill="#fff" d="M21 30h62v45H21z"/></clipPath></defs></svg>