<svg xmlns="http://www.w3.org/2000/svg" width="104" height="104" fill="none"><g clip-path="url(#a)"><path fill="#fff" d="M61.381 43.888V28H42.65v15.888H20V76h24.884V65.205h14.202V76h24.883V43.888H61.351zM30.743 60.142h-6.335v-3.66h6.366v3.66zm0-7.563h-6.335V48.92h6.366v3.66zm9.764 7.563H34.14v-3.66h6.366zm0-7.563H34.14V48.92h6.366zm9.764 7.563h-6.367v-3.66h6.367zm0-7.563h-6.367V48.92h6.367zm-2.418-16.986c0-2.287 1.867-4.147 4.162-4.147s4.163 1.86 4.163 4.147-1.867 4.148-4.163 4.148c-2.295 0-4.162-1.86-4.162-4.148m12.212 24.55h-6.366v-3.66h6.366zm0-7.564h-6.366V48.92h6.366zm9.764 7.563h-6.366v-3.66h6.366zm0-7.563h-6.366V48.92h6.366zm9.764 7.563h-6.367v-3.66h6.367zm0-7.563h-6.367V48.92h6.367z"/></g><defs><clipPath id="a"><path fill="#fff" d="M20 28h64v48H20z"/></clipPath></defs></svg>