<svg xmlns="http://www.w3.org/2000/svg" width="104" height="104" fill="none"><g fill="#fff" clip-path="url(#a)"><path d="M47.392 55.772s-.11.037-.349.13l1.083 5.777 3.103-1.877-3.36-3.9a.42.42 0 0 0-.477-.111zM56.645 55.956c-.312-.129-.459-.184-.459-.184a.42.42 0 0 0-.477.11l-3.323 3.865 3.176 1.932zM57.6 49.369c.514-.258 1.193-.792 1.432-1.546.165-.534.202-1.068.11-1.528a1.7 1.7 0 0 0-.367-.754H44.822a1.4 1.4 0 0 0-.367.755c-.11.46-.055.993.11 1.527.239.736.918 1.288 1.432 1.545.404 1.51 1.102 2.797 2.056 3.718 1.065 1.049 2.35 1.582 3.764 1.582s2.699-.552 3.763-1.582c.955-.939 1.653-2.227 2.057-3.718zM43.591 44.695h16.395c.22 0 .386-.184.386-.387v-1.03a.39.39 0 0 0-.386-.386h-.9c-.22-1.822-.716-3.313-1.487-4.454a5.9 5.9 0 0 0-2.13-1.913v4.545h-1.615v-5.907a.31.31 0 0 0-.312-.313h-3.525a.32.32 0 0 0-.312.313v5.907h-1.616v-4.545a5.64 5.64 0 0 0-2.13 1.932c-.77 1.14-1.248 2.631-1.487 4.453h-.9a.405.405 0 0 0-.403.386v1.03c0 .222.184.387.404.387z"/><path d="M84 52.258c0-3.22-2.478-5.834-5.618-6.128-2.332-10.084-10.244-18.015-20.287-20.352-.22-3.22-2.864-5.778-6.132-5.778s-5.911 2.558-6.132 5.778c-10.06 2.337-17.973 10.286-20.287 20.352-3.102.313-5.544 2.926-5.544 6.128s2.442 5.796 5.544 6.127c2.332 10.103 10.263 18.052 20.342 20.37.441 2.982 2.993 5.263 6.077 5.263s5.636-2.281 6.077-5.262c10.08-2.319 18.01-10.268 20.342-20.37C81.522 58.09 84 55.477 84 52.257M57.857 76.014c-.771-2.54-3.103-4.398-5.875-4.398-2.773 0-5.104 1.858-5.875 4.398-8.794-2.19-15.716-9.146-17.864-17.96 2.387-.846 4.113-3.11 4.113-5.796s-1.726-4.95-4.113-5.797c2.167-8.87 9.143-15.862 18.01-17.996.9 2.3 3.122 3.92 5.729 3.92s4.828-1.639 5.728-3.92c8.867 2.153 15.862 9.145 18.01 18.015-2.35.864-4.057 3.128-4.057 5.778s1.689 4.913 4.057 5.778c-2.148 8.832-9.07 15.788-17.863 17.978"/><path d="M61.988 58.017c-1.69-.644-2.92-1.123-3.819-1.472l-1.23 6.57a.83.83 0 0 1-.459.588l-.33.074-.423-.11-3.14-1.896v6.698h13.844c.22 0 .404-.166.422-.405 0 0 .055-5.833-.624-6.992-.716-1.233-2.056-2.19-4.241-3.037zM47.558 63.777l-.33-.074a.83.83 0 0 1-.46-.589l-1.248-6.606c-.918.35-2.185.847-3.948 1.528-2.166.828-3.506 1.803-4.222 3.036-.68 1.177-.624 6.992-.624 6.992 0 .221.202.405.422.405H50.99v-6.624l-3.011 1.821z"/></g><defs><clipPath id="a"><path fill="#fff" d="M20 20h64v64H20z"/></clipPath></defs></svg>