<svg xmlns="http://www.w3.org/2000/svg" width="55" height="55" fill="none"><g fill="#fff" clip-path="url(#a)"><path d="M45.149 0H9.869c-.604 0-1.107.498-1.107 1.097v7.427c0 .598.503 1.097 1.107 1.097h35.28c.604 0 1.107-.499 1.107-1.097V1.097C46.256.498 45.753 0 45.15 0M13.226 6.298c-.839 0-1.527-.665-1.527-1.48 0-.813.688-1.478 1.527-1.478.84 0 1.527.665 1.527 1.479s-.688 1.479-1.527 1.479m29.64-.25H26.301V3.573h16.565zM45.149 12.38H9.869c-.604 0-1.107.498-1.107 1.096v7.427c0 .599.503 1.097 1.107 1.097h35.28c.604 0 1.107-.498 1.107-1.097v-7.427c0-.598-.503-1.097-1.107-1.097m-31.923 6.297c-.839 0-1.527-.665-1.527-1.48 0-.813.688-1.478 1.527-1.478.84 0 1.527.665 1.527 1.479s-.688 1.479-1.527 1.479m29.64-.25H26.301v-2.475h16.565zM45.149 24.758H9.869c-.604 0-1.107.499-1.107 1.097v7.427c0 .599.503 1.097 1.107 1.097h35.28c.604 0 1.107-.498 1.107-1.096v-7.428c0-.598-.503-1.097-1.107-1.097m-31.923 6.298c-.839 0-1.527-.665-1.527-1.479s.688-1.479 1.527-1.479c.84 0 1.527.665 1.527 1.479s-.688 1.479-1.527 1.479m29.64-.25H26.301v-2.475h16.565zM14.098 46.891H0v5.434h14.098zM38.132 44.88a.69.69 0 0 0-.688-.68h-7.2v-7.08h-5.488v7.08h-7.2c-.37 0-.689.298-.689.68v9.439c0 .365.302.681.688.681h19.872c.37 0 .688-.3.688-.681V44.88zM55 46.891H40.917v5.434h14.081z"/></g><defs><clipPath id="a"><path fill="#fff" d="M0 0h55v55H0z"/></clipPath></defs></svg>