<svg xmlns="http://www.w3.org/2000/svg" width="97" height="98" fill="none"><g clip-path="url(#a)"><g fill="#fff" clip-path="url(#b)"><path d="M66.02 35.646c2.458 0 4.45-2.022 4.45-4.515s-1.992-4.514-4.45-4.514c-2.457 0-4.45 2.021-4.45 4.514s1.993 4.515 4.45 4.515M68.461 37.602h-2.348a6.01 6.01 0 0 0-4.697 2.285L59 42.936h-4.735c-1.063 0-1.933.872-1.933 1.96 0 .55.213 1.04.57 1.392.348.353.831.579 1.363.579h6.455l2.503-2.275v23.794c0 1.568 1.257 2.843 2.793 2.843h.01c1.537 0 2.793-1.275 2.793-2.843V54.65c1.846-.128 3.305-1.696 3.305-3.598v-9.735c0-2.049-1.633-3.716-3.663-3.716"/><path d="M24.303 62.074v10.049h4.59v-8.987h26.455v8.987h4.59V54.435H24.304zM55.385 48.828h-1.121a3.84 3.84 0 0 1-2.726-1.148c-.734-.725-1.14-1.715-1.14-2.784 0-2.166 1.73-3.921 3.865-3.921h1.122v-3.373H50.06v5.453l-2.03-1.04-2.02 1.04v-5.453h-5.324v14.912h14.699zM38.753 37.602H33.57v5.71h-4.477v-5.71h-5.052v14.912h14.712z"/></g></g><defs><clipPath id="a"><path fill="#fff" d="M0 .859h96.164v96.164H0z"/></clipPath><clipPath id="b"><path fill="#fff" d="M24.041 26.617h48.082v45.506H24.041z"/></clipPath></defs></svg>