<svg xmlns="http://www.w3.org/2000/svg" width="97" height="98" fill="none"><g clip-path="url(#a)"><g clip-path="url(#b)"><g fill="#fff" clip-path="url(#c)"><path d="M68.953 50.204H27.898c.156-2.241.682-4.419 1.569-6.49a20.3 20.3 0 0 1 1.897-3.453 20.5 20.5 0 0 1 5.556-5.488 20.7 20.7 0 0 1 4.343-2.206v9.809c0 .568.466 1.03 1.041 1.03.576 0 1.042-.462 1.042-1.03V31.003c0-1.463 1.205-2.653 2.687-2.653h4.786c1.482 0 2.687 1.19 2.687 2.653v11.373c0 .568.466 1.03 1.041 1.03.576 0 1.042-.462 1.042-1.03v-9.81q.426.156.847.332a20.7 20.7 0 0 1 6.54 4.356c.93.92 1.776 1.93 2.512 3.007a20.3 20.3 0 0 1 1.897 3.453 20 20 0 0 1 1.569 6.49M72.98 57.246c0 .569-.467 1.03-1.042 1.03H24.913a1.036 1.036 0 0 1-1.042-1.03c0-.88.121-1.717.36-2.489a6.4 6.4 0 0 1 1.108-2.126q.154-.193.324-.368h45.525q.168.176.324.368a6.4 6.4 0 0 1 1.108 2.126c.239.771.36 1.609.36 2.49M38.4 60.57H23.181v7.12h15.217zM26.96 65.59a1.47 1.47 0 0 1-1.48-1.46 1.47 1.47 0 0 1 1.48-1.463c.817 0 1.48.655 1.48 1.462a1.47 1.47 0 0 1-1.48 1.462M46.1 62.062h-6.442v4.135h6.443z"/></g></g></g><defs><clipPath id="a"><path fill="#fff" d="M0 .859h96.164v96.164H0z"/></clipPath><clipPath id="b"><path fill="#fff" d="M23.182 21.465H72.98v54.092h-49.8z"/></clipPath><clipPath id="c"><path fill="#fff" d="M23.182 28.35H72.98v39.34h-49.8z"/></clipPath></defs></svg>