<svg xmlns="http://www.w3.org/2000/svg" width="97" height="98" fill="none"><g clip-path="url(#a)"><g clip-path="url(#b)"><path fill="url(#c)" d="M48.092 76.27c-5.658 0-11.05-2.052-15.154-5.151l1.038-1.374c7.23 5.452 18.718 7.435 28.103-.421l1.099 1.314C58.412 74.63 53.14 76.26 48.092 76.26z"/><path fill="url(#d)" d="m71.309 56.977-1.709-.189c.988-8.783-3.048-19.421-14.313-23.414l.575-1.623c12.15 4.302 16.511 15.764 15.447 25.226"/><path fill="url(#e)" d="M24.901 55.234c-.515-13.188 7.281-20.718 14.751-23.371l.575 1.614c-6.894 2.447-14.09 9.419-13.609 21.68l-1.717.069z"/><path fill="#fff" d="M48.169 21.465a9.956 9.956 0 0 0-9.96 9.96 9.956 9.956 0 0 0 9.96 9.96 9.956 9.956 0 0 0 9.96-9.96 9.956 9.956 0 0 0-9.96-9.96m5.667 13.91c0 .687-.601 1.288-1.288 1.288h-8.844c-.687 0-1.288-.601-1.288-1.288v-4.551c0-.687.601-1.288 1.288-1.288h2.49v-.343c0-.258.172-.43.43-.43h1.03v-.48c-.55-.13-.945-.481-.945-.893v-2.233h-3.348a.587.587 0 0 1-.601-.6h10.818a.587.587 0 0 1-.601.6h-3.52v2.233c0 .369-.31.695-.773.85v.523h1.03c.258 0 .43.172.43.43v.343h2.404c.687 0 1.288.601 1.288 1.288z"/><path fill="#fff" d="M49.973 30.996a2.126 2.126 0 0 0-2.147 2.146c0 1.202.945 2.147 2.147 2.147a2.126 2.126 0 0 0 2.146-2.147 2.126 2.126 0 0 0-2.146-2.146m0 3.348a1.174 1.174 0 0 1-1.202-1.202c0-.687.515-1.202 1.202-1.202s1.202.515 1.202 1.202-.515 1.202-1.202 1.202M22.496 64.052h-2.318v1.46h2.318z"/><path fill="#fff" d="M26.274 54.865a9.956 9.956 0 0 0-9.96 9.96 9.956 9.956 0 0 0 9.96 9.96 9.956 9.956 0 0 0 9.96-9.96 9.956 9.956 0 0 0-9.96-9.96m-3.348 7.384h-.43v1.202h.43v5.839a.37.37 0 0 1-.344.343h-2.576a.37.37 0 0 1-.343-.343V63.45h.515V62.25h-.515v-1.631a.37.37 0 0 1 .343-.344h2.576a.37.37 0 0 1 .344.344zm8.93 3.778a3.03 3.03 0 0 0-.516 1.631v1.975l-3.95-.086v-1.46s-.515.172-1.03.172-.687-.086-.773-.6c0-.344-.343-1.718-.343-1.718l-.601-.172c-.086 0-.258-.086-.258-.171v-.344l.945-1.889c0-2.06 1.717-3.692 3.692-3.692s3.692 1.631 3.692 3.606c.086.773-.086 1.803-.859 2.748M70.579 54.865a9.956 9.956 0 0 0-9.96 9.96 9.956 9.956 0 0 0 9.96 9.96 9.956 9.956 0 0 0 9.96-9.96 9.956 9.956 0 0 0-9.96-9.96m5.495 8.758a5.65 5.65 0 0 1-1.975 4.293l-3.606 3.692-3.606-3.692c-1.202-1.03-1.975-1.116-1.975-4.293s2.49-5.667 5.667-5.667 5.667 2.576 5.667 5.667z"/><path fill="#fff" d="M74.386 65.2a4.121 4.121 0 1 0-7.616-3.154 4.121 4.121 0 0 0 7.616 3.155M54.865 59.93v1.804c0 .257.258.515.515.515h2.662c.258 0 .515-.258.515-.515V59.93zM37.264 59.93v1.804c0 .257.257.515.515.515h2.661c.258 0 .516-.258.516-.515V59.93zM60.875 50.4c0-.343-.343-.6-.6-.6l-2.748.171-1.975-4.035a1.29 1.29 0 0 0-1.202-.86H41.47c-.514 0-1.03.43-1.201.86l-1.89 4.035-2.66-.172a.587.587 0 0 0-.602.601v.687c0 .344.172.687.515.687l1.803.343v6.268c0 .43.344.773.773.773h19.748a.77.77 0 0 0 .773-.773v-6.267l1.803-.344c.343 0 .601-.343.601-.687V50.4zm-19.404-3.262c.086-.258.43-.516.773-.516H53.49c.258 0 .601.258.773.516l1.803 3.606c.172.257 0 .515-.257.515H40.269c-.258 0-.43-.258-.344-.515h-.085zm1.202 8.757h-1.889c-.687 0-1.545-.429-1.889-1.03l-.172-.343c-.343-.601-.085-1.03.601-1.03h1.89c.686 0 1.545.429 1.888 1.03l.172.343c.343.601.086 1.03-.601 1.03m7.47 1.975h-4.55v-1.975h4.55zm7.212-3.348-.172.343c-.343.601-1.202 1.03-1.889 1.03h-1.888c-.687 0-.945-.429-.602-1.03l.172-.343c.344-.601 1.202-1.03 1.89-1.03h1.888c.687 0 .945.429.601 1.03"/></g></g><defs><linearGradient id="c" x1="62.539" x2="33.159" y1="74.807" y2="70.005" gradientUnits="userSpaceOnUse"><stop stop-color="#fff" stop-opacity="0"/><stop offset=".02" stop-color="#fff" stop-opacity=".06"/><stop offset=".09" stop-color="#fff" stop-opacity=".25"/><stop offset=".17" stop-color="#fff" stop-opacity=".43"/><stop offset=".25" stop-color="#fff" stop-opacity=".58"/><stop offset=".34" stop-color="#fff" stop-opacity=".71"/><stop offset=".43" stop-color="#fff" stop-opacity=".82"/><stop offset=".53" stop-color="#fff" stop-opacity=".9"/><stop offset=".65" stop-color="#fff" stop-opacity=".96"/><stop offset=".78" stop-color="#fff" stop-opacity=".99"/><stop offset="1" stop-color="#fff"/></linearGradient><linearGradient id="d" x1="59.594" x2="70.167" y1="30.228" y2="57.35" gradientUnits="userSpaceOnUse"><stop stop-color="#fff" stop-opacity="0"/><stop offset=".02" stop-color="#fff" stop-opacity=".06"/><stop offset=".09" stop-color="#fff" stop-opacity=".25"/><stop offset=".17" stop-color="#fff" stop-opacity=".43"/><stop offset=".25" stop-color="#fff" stop-opacity=".58"/><stop offset=".34" stop-color="#fff" stop-opacity=".71"/><stop offset=".43" stop-color="#fff" stop-opacity=".82"/><stop offset=".53" stop-color="#fff" stop-opacity=".9"/><stop offset=".65" stop-color="#fff" stop-opacity=".96"/><stop offset=".78" stop-color="#fff" stop-opacity=".99"/><stop offset="1" stop-color="#fff"/></linearGradient><linearGradient id="e" x1="22.403" x2="41.464" y1="52.736" y2="33.675" gradientUnits="userSpaceOnUse"><stop stop-color="#fff" stop-opacity="0"/><stop offset=".02" stop-color="#fff" stop-opacity=".06"/><stop offset=".09" stop-color="#fff" stop-opacity=".25"/><stop offset=".17" stop-color="#fff" stop-opacity=".43"/><stop offset=".25" stop-color="#fff" stop-opacity=".58"/><stop offset=".34" stop-color="#fff" stop-opacity=".71"/><stop offset=".43" stop-color="#fff" stop-opacity=".82"/><stop offset=".53" stop-color="#fff" stop-opacity=".9"/><stop offset=".65" stop-color="#fff" stop-opacity=".96"/><stop offset=".78" stop-color="#fff" stop-opacity=".99"/><stop offset="1" stop-color="#fff"/></linearGradient><clipPath id="a"><path fill="#fff" d="M0 .859h96.164v96.164H0z"/></clipPath><clipPath id="b"><path fill="#fff" d="M16.314 21.465H80.54V76.27H16.314z"/></clipPath></defs></svg>