<svg xmlns="http://www.w3.org/2000/svg" width="97" height="97" fill="none"><g clip-path="url(#a)"><g fill="#fff" clip-path="url(#b)"><path d="M62.516 44.802h-8.02v-1.16c0-.815-.66-1.476-1.476-1.476h-3.323V40.39c1.709-.438 2.92-1.494 2.92-2.748v-7.418h11.135c1.048 0 1.89-.85 1.89-1.889H30.317c0 1.047.842 1.889 1.88 1.889h11.145v7.418c0 1.245 1.21 2.301 2.91 2.748v1.777h-3.305c-.815 0-1.477.661-1.477 1.477v1.16h-8.027a4.254 4.254 0 0 0-4.25 4.25v14.973a4.254 4.254 0 0 0 4.25 4.25h29.072a4.254 4.254 0 0 0 4.25-4.25V49.052a4.254 4.254 0 0 0-4.25-4.25m-8.569 18.683a6.944 6.944 0 0 1-6.946-6.946 6.944 6.944 0 0 1 6.946-6.946 6.944 6.944 0 0 1 6.946 6.946 6.944 6.944 0 0 1-6.946 6.946"/><path d="M56.75 59.34a3.958 3.958 0 1 0-5.598-5.598 3.958 3.958 0 0 0 5.598 5.598"/></g></g><defs><clipPath id="a"><path fill="#fff" d="M0 0h96.164v96.164H0z"/></clipPath><clipPath id="b"><path fill="#fff" d="M29.193 28.334h37.573v39.942H29.193z"/></clipPath></defs></svg>