<svg xmlns="http://www.w3.org/2000/svg" width="97" height="98" fill="none"><g clip-path="url(#a)"><g clip-path="url(#b)"><path stroke="#fff" stroke-linecap="round" stroke-linejoin="round" stroke-width="3" d="M67.35 69.659v-8.02c0-2.086.576-4.705 2.198-6.67 3.263-3.942 3.898-8.158 3.65-11.412-.31-8.225-7.067-14.794-15.37-14.794S42.442 35.65 42.442 44.141c-1.15 2.207-3.898 7.813-3.898 7.813-.215.421-.215.92-.017 1.348.197.43.575.747 1.039.859l2.515.627s1.28 5.787 1.572 7.126c.438 2.035 1.099 2.473 3.022 2.473s4.199-.627 4.199-.627v5.89"/><path fill="#fff" d="M32.714 50.58v-4.499a.997.997 0 0 0-.996-.996h-6.903a.99.99 0 0 0-.996.988v4.499h.627v3.331h-.636l-.017 15.739c0 .55.446.996.996.996h6.903a.99.99 0 0 0 .996-.988l.017-15.747h-.635v-3.322zm-3.503.962c0-.094.129-.172.283-.172.155 0 .284.078.284.172v1.16c0 .094-.13.171-.284.171s-.283-.077-.283-.172zm-1.237 0c0-.094.13-.172.284-.172s.283.078.283.172v1.16c0 .094-.129.171-.283.171-.155 0-.284-.077-.284-.172zm-1.227 0c0-.094.128-.172.283-.172s.283.078.283.172v1.16c0 .094-.128.171-.283.171s-.283-.077-.283-.172zm1.991 9.54h-.961a.726.726 0 0 1-.721-.722c0-.395.326-.721.72-.721h.962c.396 0 .722.326.722.721a.726.726 0 0 1-.722.721m2.654-2.662h-6.277v-3.134h6.277zM33.572 42.244H23.097a.77.77 0 0 1-.773-.773V30.996a.77.77 0 0 1 .773-.773h10.475a.77.77 0 0 1 .773.773V41.47a.77.77 0 0 1-.773.773m-9.702-1.546h8.93v-8.93h-8.93z"/><path stroke="#fff" stroke-linecap="round" stroke-linejoin="round" stroke-width="2.16" d="m26.127 33.932 1.915 3.306 6.302-7.882"/></g></g><defs><clipPath id="a"><path fill="#fff" d="M0 .859h96.164v96.164H0z"/></clipPath><clipPath id="b"><path fill="#fff" d="M22.324 27.476h52.212v43.47H22.324z"/></clipPath></defs></svg>