<svg xmlns="http://www.w3.org/2000/svg" width="62" height="55" fill="none"><g fill="#fff" clip-path="url(#a)"><path fill-rule="evenodd" d="M10.887 46.135h4.499v-11.83h8.482v11.83h4.484L19.62 55z" clip-rule="evenodd"/><path d="M26.922 37.78v4.133h3.422l4.072-4.133z"/><path d="M54.167 15.004C54.019 6.708 47.322 0 39.121 0a14.85 14.85 0 0 0-11.433 5.346 11.6 11.6 0 0 0-5.487-1.363c-3.113 0-6.063 1.228-8.29 3.444a12.1 12.1 0 0 0-3.393 6.619C4.41 15.543 0 21.113 0 27.642v.285c0 7.217 5.399 13.177 12.317 13.926v-4.178c-4.661-.719-8.246-4.822-8.246-9.748v-.285c0-5.001 3.673-9.209 8.556-9.793l1.77-.21.03-1.796c.088-4.253 3.555-7.712 7.76-7.712 1.74 0 3.377.569 4.734 1.647l1.756 1.378 1.21-1.902c2.035-3.204 5.487-5.106 9.219-5.106 6.048 0 10.975 5.001 10.975 11.14 0 .3 0 .614-.044.914l-.133 1.602 1.49.524c3.894 1.378 6.505 5.122 6.505 9.314v.285c0 4.761-3.348 8.745-7.774 9.658l3.26 3.31c5.03-2.082 8.6-7.113 8.6-12.968v-.285c0-5.435-3.097-10.332-7.833-12.638z"/><path fill-rule="evenodd" d="M38.148 54.79V42.96h-4.5l8.733-8.879 8.733 8.88H46.63v11.83z" clip-rule="evenodd"/></g><defs><clipPath id="a"><path fill="#fff" d="M0 0h62v55H0z"/></clipPath></defs></svg>