<svg xmlns="http://www.w3.org/2000/svg" width="62" height="34" fill="none"><path fill="#fff" d="m56.662 10.36-8.877-8.823c-2.317-2.302-6.423-2-8.057.788a4.16 4.16 0 0 0-.577 2.48c.048.602.838.861 1.287.435 1.205-1.146 3.271-2.728 4.542-1.57 1.07.976 4.071 4.104 6.455 6.616H38.684c-3.374 0-6.113 2.622-6.113 5.851v1.52a6.4 6.4 0 0 0-3.056-.095v-1.425c0-3.23-2.738-5.851-6.112-5.851H10.64c2.384-2.513 5.385-5.642 6.456-6.616 1.27-1.158 3.337.424 4.542 1.57.447.425 1.238.167 1.286-.435a4.16 4.16 0 0 0-.576-2.48c-1.634-2.788-5.74-3.092-8.058-.788l-8.859 8.807c-2.279.272-4.165 1.72-4.968 3.705h10.18v.38h12.761c.972 0 1.786.78 1.786 1.71v.38c0 1.083.457 2.07 1.132 2.944.158.227.258.493.258.797v8.904c0 1.69-1.428 3.058-3.195 3.058H6.197c-1.767 0-3.195-1.367-3.195-3.058v-7.935H1.473v7.935c0 2.488 2.124 4.522 4.722 4.522h17.206c2.6 0 4.703-2.034 4.703-4.522v-9.379c1.667-1.349 4.346-1.216 5.875.284v9.093c0 2.489 2.104 4.522 4.703 4.522h17.206c2.6 0 4.703-2.033 4.703-4.522V20.26c0-.304.1-.57.278-.798C61.523 18.588 62 17.6 62 16.518v-.38c0-2.977-2.334-5.409-5.34-5.777zm2.421 18.804c0 1.69-1.45 3.058-3.195 3.058H38.682c-1.767 0-3.195-1.367-3.195-3.058V20.26c0-.304.1-.57.278-.797.654-.874 1.131-1.862 1.131-2.944v-.38c0-.93.794-1.71 1.786-1.71h17.206c.972 0 1.786.78 1.786 1.71v.38c0 1.083.456 2.07 1.131 2.944.18.227.278.493.278.797z"/></svg>