<svg xmlns="http://www.w3.org/2000/svg" width="112" height="112" fill="none"><g clip-path="url(#a)"><g fill="#fff" clip-path="url(#b)"><path d="M28 42.82v12.064l23.09 5.461v-3.46H61.77v3.46L85 54.85v-12.03z"/><path d="M61.771 71.233H51.09v-7.218L28 58.554V85h57V58.519l-23.229 5.496z"/><path d="M59.104 59.573h-5.35v8.973h5.35zM48.075 34.654a.86.86 0 0 1 .227-.58.75.75 0 0 1 .575-.227h15.23c.227 0 .418.087.575.228a.76.76 0 0 1 .227.58v4.038h4.81v-4.039a5.7 5.7 0 0 0-1.639-4.003A5.6 5.6 0 0 0 64.107 29h-15.23a5.62 5.62 0 0 0-3.973 1.65 5.68 5.68 0 0 0-1.638 4.004v4.04h4.81z"/></g></g><defs><clipPath id="a"><path fill="#fff" d="M0 0h112v112H0z"/></clipPath><clipPath id="b"><path fill="#fff" d="M28 29h57v56H28z"/></clipPath></defs></svg>