<svg xmlns="http://www.w3.org/2000/svg" width="31" height="44" fill="none"><g fill="#000" clip-path="url(#a)"><path d="M2.093 39.006c-.043-.011-.216-.17-.216-.49V2.382c0-.321.173-.478.214-.49h15.38c1.482 0 2.699 1.187 2.746 2.68l.195 6.087 7.815 1.37c.406.061.896.6.896 1.015v20.579c.717.009 1.381.295 1.877.783v-21.94a2.78 2.78 0 0 0-.69-1.835l-6.678-7.607A8.87 8.87 0 0 0 16.969 0H2.091C.937 0 0 1.067 0 2.382v36.134C0 39.831.937 40.9 2.091 40.9h16.314l-1.368-1.893z"/><path d="M26.414 14.858H7.063v2.564h19.35zM15.501 8.973H7.063v2.564H15.5zM4.586 29.34h14.037v-1.474c0-.382.069-.747.19-1.09H4.585zM26.413 20.891H4.586v2.564h21.827zM15.499 32.807H4.586v2.564h10.913zM29.781 36.889a.87.87 0 0 0 .072-.903.86.86 0 0 0-.766-.473h-2.355l.376-7.647c0-.76-.612-1.38-1.369-1.38h-3.873c-.754 0-1.368.618-1.368 1.38l.375 7.647H18.52a.86.86 0 0 0-.766.473.87.87 0 0 0 .072.903l4.657 6.433c.308.426.8.678 1.322.678s1.014-.252 1.321-.678l4.658-6.433z"/></g><defs><clipPath id="a"><path fill="#fff" d="M0 0h31v44H0z"/></clipPath></defs></svg>