<svg xmlns="http://www.w3.org/2000/svg" width="46" height="50" fill="none"><g fill="#000" clip-path="url(#a)"><path d="M23 50a3.92 3.92 0 0 0 3.918-3.643H19.08A3.924 3.924 0 0 0 22.998 50zM16.57 42.849c0 .557.454 1.01 1.013 1.01h10.835c.56 0 1.013-.453 1.013-1.01v-2.661H16.568v2.66zM6.785 30.547l-3.16 1.817a1.479 1.479 0 0 0 .745 2.763c.252 0 .508-.064.74-.2l3.16-1.817c.71-.41.953-1.314.544-2.023a1.49 1.49 0 0 0-2.03-.542zM6.617 22.925c0-.818-.664-1.48-1.484-1.48H1.485c-.82 0-1.485.662-1.485 1.48 0 .817.665 1.48 1.485 1.48h3.648c.82 0 1.484-.663 1.484-1.48M8.269 12.737l-3.16-1.817a1.487 1.487 0 0 0-2.029.542 1.477 1.477 0 0 0 .545 2.023l3.159 1.818a1.49 1.49 0 0 0 2.03-.54 1.477 1.477 0 0 0-.546-2.024zM12.78 8.242a1.487 1.487 0 0 0 2.03.54c.71-.409.953-1.313.544-2.022L13.53 3.612a1.49 1.49 0 0 0-2.03-.543 1.48 1.48 0 0 0-.543 2.023L12.78 8.24zM23 6.596c.82 0 1.485-.663 1.485-1.48V1.48c0-.817-.664-1.48-1.484-1.48s-1.485.663-1.485 1.48v3.636c0 .817.664 1.48 1.485 1.48M31.191 8.785a1.49 1.49 0 0 0 2.03-.54l1.823-3.15a1.477 1.477 0 0 0-.544-2.022 1.487 1.487 0 0 0-2.03.543l-1.823 3.148a1.477 1.477 0 0 0 .544 2.023zM38.476 15.5c.252 0 .507-.064.74-.2l3.16-1.817a1.48 1.48 0 0 0 .544-2.023 1.49 1.49 0 0 0-2.03-.542l-3.159 1.818a1.478 1.478 0 0 0 .745 2.762zM44.515 21.445h-3.647c-.82 0-1.485.662-1.485 1.48 0 .817.664 1.48 1.485 1.48h3.647c.82 0 1.485-.663 1.485-1.48 0-.818-.664-1.48-1.485-1.48M42.374 32.364l-3.159-1.817a1.487 1.487 0 0 0-2.03.542 1.477 1.477 0 0 0 .545 2.023l3.159 1.818a1.49 1.49 0 0 0 2.03-.54 1.477 1.477 0 0 0-.545-2.024zM23 19.431a3.3 3.3 0 0 0-3.305 3.294A3.3 3.3 0 0 0 23 26.02a3.3 3.3 0 0 0 3.305-3.295A3.3 3.3 0 0 0 23 19.431"/><path d="M22.04 9.584c-6.638.463-11.97 5.883-12.317 12.508a13.2 13.2 0 0 0 4.183 10.368c1.483 1.386 2.425 3.236 2.623 5.225H29.47c.083-.856.3-1.689.64-2.468a8.1 8.1 0 0 1 1.924-2.701 13.2 13.2 0 0 0 4.259-9.717c0-7.636-6.477-13.764-14.253-13.217zm9.806 14.075c0 .434-.319.801-.75.864l-1.617.234-.457 1.102.978 1.305a.87.87 0 0 1-.084 1.138l-1.324 1.32a.88.88 0 0 1-1.142.083l-1.305-.97c-.49.2-.62.254-1.11.457l-.235 1.607a.876.876 0 0 1-.866.748h-1.872a.874.874 0 0 1-.867-.748l-.235-1.607-1.109-.458-1.307.971a.876.876 0 0 1-1.142-.083l-1.324-1.32a.87.87 0 0 1-.082-1.138l.976-1.301-.46-1.106-1.612-.234a.875.875 0 0 1-.75-.864v-1.866c0-.431.319-.8.75-.861l1.613-.235.459-1.105-.976-1.303a.87.87 0 0 1 .082-1.139l1.324-1.32a.876.876 0 0 1 1.142-.08l1.307.972c.489-.203.619-.257 1.11-.458l.234-1.607a.874.874 0 0 1 .867-.748h1.872c.435 0 .803.318.866.748l.235 1.607c.49.201.62.255 1.11.458l1.305-.973a.88.88 0 0 1 1.142.082l1.324 1.32c.308.305.343.789.084 1.138l-.974 1.3c.201.488.257.62.459 1.106l1.613.235c.43.06.75.43.75.861v1.866z"/></g><defs><clipPath id="a"><path fill="#fff" d="M0 0h46v50H0z"/></clipPath></defs></svg>