<svg xmlns="http://www.w3.org/2000/svg" width="37" height="26" fill="none"><path fill="#000" d="M33.3 0H3.7a4 4 0 0 0-.542.038 4 4 0 0 0-.531.114 4 4 0 0 0-.508.188 4 4 0 0 0-.474.257 4 4 0 0 0-.429.321 4 4 0 0 0-.486.515 3.3 3.3 0 0 0-.292.44 3 3 0 0 0-.155.315 3.4 3.4 0 0 0-.241.837 3 3 0 0 0-.04.52v18.91a4 4 0 0 0 .04.52 3.6 3.6 0 0 0 .176.674 3 3 0 0 0 .22.477 3.6 3.6 0 0 0 .403.577 3 3 0 0 0 .244.258 4 4 0 0 0 .412.34 4 4 0 0 0 .302.194 3.8 3.8 0 0 0 1.902.504h29.6a4 4 0 0 0 .362-.017 4 4 0 0 0 .537-.089 4 4 0 0 0 .682-.234 3.66 3.66 0 0 0 1.763-1.689 3 3 0 0 0 .195-.486 3.6 3.6 0 0 0 .142-.682 3 3 0 0 0 .017-.348V3.546a4 4 0 0 0-.017-.348 3 3 0 0 0-.093-.514 3.5 3.5 0 0 0-.617-1.25 4 4 0 0 0-.355-.396 4 4 0 0 0-.27-.233 4 4 0 0 0-.444-.3 3.5 3.5 0 0 0-.486-.235 4 4 0 0 0-.694-.202 4 4 0 0 0-.54-.064A4 4 0 0 0 33.3 0M2.469 3.752l10.236 8.405-10.236 9.808zm16.834 9.396a1.256 1.256 0 0 1-1.603 0L4.564 2.364h27.873zm-4.72.552 1.51 1.24a4 4 0 0 0 .537.354 3.7 3.7 0 0 0 .747.309 4 4 0 0 0 1.124.163 4 4 0 0 0 .326-.013 4 4 0 0 0 .642-.107 4 4 0 0 0 .76-.278 3.8 3.8 0 0 0 .68-.428l1.512-1.242 10.37 9.939H4.211zm9.717-1.537 10.235-8.41v18.212z"/></svg>