<svg xmlns="http://www.w3.org/2000/svg" width="64" height="27" fill="none"><g clip-path="url(#a)"><path fill="#00636F" d="M60.237 10.203c-1.995-.391-4.396-1.481-5.632-3.089l-4.41-5.241C49.24.67 47.877 0 46.36 0H28.075a4.86 4.86 0 0 0-3.132 1.146l-9.396 8.12C14.017 10.623.983 11.085.983 16.577v.21a1.84 1.84 0 0 0-.997 1.621v1.258c0 1.007.829 1.817 2.458 1.817h8.413c.14 3.033 2.64 5.465 5.716 5.465s5.575-2.432 5.716-5.465h22.358c.14 3.033 2.64 5.465 5.716 5.465s5.576-2.432 5.716-5.465h3.863c1.952 0 4.044-.517 4.044-3.075V14.76a4.65 4.65 0 0 0-3.764-4.557zm-23.693-.098H20.56l7.107-6.29a.67.67 0 0 1 .421-.14h8.455zm3.328-6.43h6.489c.196 0 .365.043.547.266l4.382 5.69c.127.167.253.32.394.474H39.872z"/></g><defs><clipPath id="a"><path fill="#fff" d="M0 0h64v26.947H0z"/></clipPath></defs></svg>