<svg xmlns="http://www.w3.org/2000/svg" width="64" height="48" fill="none"><g clip-path="url(#a)"><path fill="#DC5B46" d="M41.381 15.888V0H22.65v15.888H0V48h24.884V37.205h14.202V48h24.883V15.888H41.351zM10.743 32.142H4.407v-3.66h6.367v3.66zm0-7.563H4.407V20.92h6.367v3.66zm9.764 7.563H14.14v-3.66h6.366zm0-7.563H14.14V20.92h6.366zm9.764 7.563h-6.367v-3.66h6.367zm0-7.563h-6.367V20.92h6.367zM27.853 7.593c0-2.287 1.867-4.147 4.162-4.147s4.163 1.86 4.163 4.147-1.867 4.148-4.163 4.148c-2.295 0-4.162-1.86-4.162-4.148m12.212 24.55h-6.366v-3.66h6.366zm0-7.564h-6.366V20.92h6.366zm9.764 7.563h-6.367v-3.66h6.367zm0-7.563h-6.367V20.92h6.367zm9.764 7.563h-6.367v-3.66h6.367zm0-7.563h-6.367V20.92h6.367z"/></g><defs><clipPath id="a"><path fill="#fff" d="M0 0h64v48H0z"/></clipPath></defs></svg>