<svg xmlns="http://www.w3.org/2000/svg" width="62" height="45" fill="none"><g fill="#232CA7" clip-path="url(#a)"><path d="M27.202 36.209h3.886V30.97h-2.279v-3.419h2.279v-4.21h-2.279v-3.419h2.279v-4.21h-2.279v-3.419h2.279v-3.84h-2.279V5.036h2.279V0H16.033v44.486h11.16V36.21zm-1.284-5.238H21.22v-3.419h4.698zm0-7.629H21.22v-3.419h4.698zm0-7.62H21.22v-3.42h4.698zm-4.698-7.25v-3.42h4.698v3.42zM34.982 44.486h11.16V0H31.088v5.052h2.278v3.42h-2.278v3.839h2.278v3.419h-2.278v4.21h2.278v3.419h-2.278v4.21h2.278v3.419h-2.278v5.238h3.886v8.277zm1.293-16.934h4.697v3.42h-4.697zm0-7.62h4.697v3.419h-4.697zm0-7.63h4.697v3.42h-4.697zm0-3.83v-3.42h4.697v3.42zM4.002 32.933v-2.99h8.153v-3.367H4.002v-2.998h8.153V20.21H4.002v-2.998h8.153v-3.368H4.002v-2.99h8.153V6.762H0V45h12.155V32.933zM57.998 32.933v-2.99h-8.145v-3.367h8.145v-2.998h-8.145V20.21h8.145v-2.998h-8.145v-3.368h8.145v-2.99h-8.145V6.762H62V45H49.853V32.933z"/></g><defs><clipPath id="a"><path fill="#fff" d="M0 0h62v45H0z"/></clipPath></defs></svg>