<svg xmlns="http://www.w3.org/2000/svg" width="69" height="69" fill="none"><path fill="#fff" d="m52.638 41.157-3.325-4.182V19.37c0-.858-.682-1.54-1.54-1.54H20.386c-.858 0-1.54.682-1.54 1.54v17.605l-3.325 4.182a.6.6 0 0 0-.14.385v1.855c0 .683.542 1.225 1.225 1.225h34.93c.682 0 1.225-.542 1.225-1.225v-1.855c0-.14-.053-.28-.14-.385zM21.016 19.982h26.11v14.805h-26.11zm16.572 23.17h-7.035v-1.855h7.035zM28.349 63.347c-11.62-1.96-21.088-10.132-24.71-21.332l3.535-1.138c3.202 9.888 11.55 17.098 21.805 18.813l-.613 3.657zM2.413 36.625a33 33 0 0 1-.298-4.375c0-10.045 4.848-19.582 12.985-25.48l2.17 2.993C10.095 14.977 5.808 23.378 5.808 32.25c0 1.295.087 2.59.262 3.867l-3.675.508zM49.96 9.763C45.2 6.297 39.548 4.46 33.615 4.46c-4.042 0-7.945.84-11.567 2.52l-1.54-3.378A31.3 31.3 0 0 1 33.633.75c6.72 0 13.125 2.083 18.532 6.02l-2.187 2.992zM63.61 42.015l-3.535-1.138a27.9 27.9 0 0 0 1.347-8.592c0-7.035-2.625-13.72-7.367-18.865l2.73-2.52a31.4 31.4 0 0 1 8.365 21.385c0 3.325-.508 6.615-1.54 9.748zM33.633 63.785v-3.71c9.835 0 19.022-5.268 23.992-13.738l3.203 1.873c-5.635 9.608-16.065 15.557-27.195 15.557z"/><path fill="#fff" d="m56.207 36.205 4.865 8.365 7.84-5.688zM37.938 55.07l-7.245 6.405 7.105 6.58zM12.72 42.663 3.953 38.55.75 47.685zM17.533 15.397l1.33-9.59-9.677-.35zM44.815 11.653l9.625-1.015-1.978-9.468z"/></svg>