<svg xmlns="http://www.w3.org/2000/svg" width="48" height="55" fill="none"><g fill="#fff" clip-path="url(#a)"><path d="m24 3.581 20.402 10.66v.83q0 1.725-.042 3.328v.562c-.155 4.368-.607 7.879-1.44 11.081-1.044 4.003-2.666 7.444-4.952 10.52-.268.365-.536.716-.804 1.04l-.17.21-.098.126c-.198.225-.395.464-.607.702-.14.155-.282.31-.423.45l-.127.126s-.085.099-.127.14a5 5 0 0 1-.268.282c-.254.252-.536.533-.875.856l-.042.042s-.07.07-.113.099c-2.624 2.444-5.884 4.62-9.665 6.475l-.607.294-.606-.294c-3.782-1.854-7.04-4.031-9.68-6.475l-.084-.084-.042-.043c-.339-.323-.635-.604-.89-.87-.084-.085-.169-.183-.253-.267a1 1 0 0 1-.127-.14l-.113-.127c-.155-.155-.296-.323-.452-.492-.183-.21-.818-.955-.874-1.025a23 23 0 0 1-.776-.997s-.029-.028-.043-.056c-5.037-6.756-6.024-14.354-6.32-20.225v-.267l-.029-.309a96 96 0 0 1-.099-4.677v-.828l20.402-10.66M24 0c-.578 0-1.143.14-1.679.407L1.919 11.082A3.57 3.57 0 0 0 0 14.256v.828c0 1.77.028 3.357.099 4.846v.295l.028.323c.324 6.348 1.41 14.635 7.026 22.163a.4.4 0 0 0 .071.084c.296.393.578.744.847 1.081.084.113.761.9.987 1.152l.522.562.113.126.085.099c.14.14.24.252.338.365.283.295.607.604.988.969l.141.126c2.907 2.697 6.448 5.085 10.554 7.093l.607.295a3.7 3.7 0 0 0 1.58.365c.536 0 1.086-.126 1.58-.365l.607-.295c4.106-2.008 7.647-4.382 10.54-7.065.056-.042.112-.112.169-.168l.028-.028c.353-.337.663-.632.945-.927.113-.127.226-.239.339-.351l.113-.113.127-.126c.17-.169.339-.351.494-.534.24-.253.451-.52.677-.786l.085-.113c.07-.084.155-.182.225-.267q.445-.547.89-1.137c2.595-3.483 4.401-7.332 5.558-11.784.903-3.455 1.383-7.219 1.538-11.854v-.576c.043-1.095.057-2.247.057-3.427v-.828a3.6 3.6 0 0 0-1.92-3.174L25.666.407A3.7 3.7 0 0 0 23.985 0z"/><g clip-path="url(#b)"><path d="m24 3.581 20.402 10.66v.83q0 1.725-.042 3.328v.562c-.155 4.368-.607 7.879-1.44 11.081-1.044 4.003-2.666 7.444-4.952 10.52-.268.365-.536.716-.804 1.04l-.17.21-.098.126c-.198.225-.395.464-.607.702-.14.155-.282.31-.423.45l-.127.126s-.085.099-.127.14a5 5 0 0 1-.268.282c-.254.252-.536.533-.875.856l-.042.042s-.07.07-.113.099c-2.624 2.444-5.884 4.62-9.665 6.475l-.607.294-.606-.294c-3.782-1.854-7.04-4.031-9.68-6.475l-.084-.084-.042-.043c-.339-.323-.635-.604-.89-.87-.084-.085-.169-.183-.253-.267a1 1 0 0 1-.127-.14l-.113-.127c-.155-.155-.296-.323-.452-.492-.183-.21-.818-.955-.874-1.025a23 23 0 0 1-.776-.997s-.029-.028-.043-.056c-5.037-6.756-6.024-14.354-6.32-20.225v-.267l-.029-.309a96 96 0 0 1-.099-4.677v-.828l20.402-10.66M24 0c-.578 0-1.143.14-1.679.407L1.919 11.082A3.57 3.57 0 0 0 0 14.256v.828c0 1.77.028 3.357.099 4.846v.295l.028.323c.324 6.348 1.41 14.635 7.026 22.163a.4.4 0 0 0 .071.084c.296.393.578.744.847 1.081.084.113.761.9.987 1.152l.522.562.113.126.085.099c.14.14.24.252.338.365.283.295.607.604.988.969l.141.126c2.907 2.697 6.448 5.085 10.554 7.093l.607.295a3.7 3.7 0 0 0 1.58.365c.536 0 1.086-.126 1.58-.365l.607-.295c4.106-2.008 7.647-4.382 10.54-7.065.056-.042.112-.112.169-.168l.028-.028c.353-.337.663-.632.945-.927.113-.127.226-.239.339-.351l.113-.113.127-.126c.17-.169.339-.351.494-.534.24-.253.451-.52.677-.786l.085-.113c.07-.084.155-.182.225-.267q.445-.547.89-1.137c2.595-3.483 4.401-7.332 5.558-11.784.903-3.455 1.383-7.219 1.538-11.854v-.576c.043-1.095.057-2.247.057-3.427v-.828a3.6 3.6 0 0 0-1.92-3.174L25.666.407A3.7 3.7 0 0 0 23.985 0z"/><path d="m24 7.669-16.861 8.82c0 1.376.028 2.739.084 4.1v.507c.31 6.053 1.468 12.022 5.362 17.26a.2.2 0 0 0 .028.043c.212.28.423.562.65.843.07.098.154.182.239.28.17.197.324.394.508.59.155.169.324.337.48.52.112.112.211.225.324.351.24.253.494.492.762.73l.113.113c2.173 2.022 4.896 3.89 8.282 5.548 3.4-1.658 6.11-3.526 8.282-5.548l.127-.127c.254-.238.508-.477.748-.73.113-.112.226-.239.339-.365.155-.169.31-.323.465-.492.184-.196.353-.407.522-.604l.212-.252c.24-.295.466-.576.677-.871 4.162-5.59 5.207-12.023 5.418-18.47v-.491c.028-.969.043-1.938.043-2.921l-16.861-8.82zm1.876 20.758.663 4.958h-4.995l.663-4.958c-1.439-.688-2.44-2.135-2.44-3.834 0-2.346 1.918-4.256 4.275-4.256 2.356 0 4.275 1.91 4.275 4.256 0 1.7-1.002 3.146-2.441 3.834"/></g></g><defs><clipPath id="a"><path fill="#fff" d="M0 0h48v55H0z"/></clipPath><clipPath id="b"><path fill="#fff" d="M0 0h48v55H0z"/></clipPath></defs></svg>