<svg xmlns="http://www.w3.org/2000/svg" width="32" height="32" fill="none"><g fill="#190019" clip-path="url(#a)"><path d="M6.174 14.258c0-.51-.386-.923-.863-.923H3.53c-.477 0-.863.413-.863.923s.386.923.863.923h1.78c.478 0 .864-.413.864-.923M7.073 20.719l-2.33 2.18a.967.967 0 0 0-.082 1.302.84.84 0 0 0 .65.316.83.83 0 0 0 .569-.23l2.33-2.18a.967.967 0 0 0 .082-1.302.825.825 0 0 0-1.219-.086M7.073 7.797c.164.154.367.23.569.23a.84.84 0 0 0 .65-.316.967.967 0 0 0-.081-1.3L5.88 4.228a.825.825 0 0 0-1.219.086.967.967 0 0 0 .081 1.301zM28.47 13.335h-1.782c-.477 0-.864.413-.864.923s.387.923.864.923h1.782c.476 0 .863-.413.863-.923s-.387-.923-.863-.923M24.926 20.719a.826.826 0 0 0-1.218.086.966.966 0 0 0 .08 1.301l2.331 2.181a.83.83 0 0 0 .569.23c.24 0 .478-.108.649-.316a.966.966 0 0 0-.08-1.301zM24.357 8.027a.83.83 0 0 0 .569-.23l2.33-2.18a.966.966 0 0 0 .08-1.302.825.825 0 0 0-1.217-.086l-2.33 2.181a.966.966 0 0 0-.081 1.301c.17.209.41.316.65.316M21.95 19.598c1.32-1.564 2.049-3.587 2.049-5.697 0-2.287-.835-4.436-2.35-6.051-1.51-1.611-3.51-2.497-5.634-2.497h-.027c-2.127 0-4.128.887-5.637 2.496-1.515 1.616-2.35 3.765-2.35 6.052 0 2.11.728 4.134 2.049 5.694.788.938 1.222 2.101 1.222 3.275l-.001 1.146c0 2.196 1.672 3.984 3.727 3.984h2.003c2.055 0 3.729-1.788 3.729-3.984l-.002-1.146c0-1.174.433-2.337 1.221-3.273M9.727 13.9c0-1.793.655-3.479 1.843-4.746 1.183-1.262 2.75-1.956 4.42-1.956h.02c1.666 0 3.234.694 4.418 1.956 1.188 1.268 1.842 2.953 1.842 4.746 0 1.652-.57 3.236-1.605 4.461a7.06 7.06 0 0 0-1.637 3.89h-6.06a7.07 7.07 0 0 0-1.637-3.892c-1.034-1.223-1.604-2.806-1.604-4.46M17 26.154h-2.003c-1.077 0-1.958-.914-2-2.054h6.003c-.042 1.14-.923 2.054-2 2.054"/></g><defs><clipPath id="a"><path fill="#fff" d="M2.667 4h26.667v24H2.666z"/></clipPath></defs></svg>