<svg xmlns="http://www.w3.org/2000/svg" width="37" height="26" fill="none"><g clip-path="url(#a)"><path fill="#000" d="M33.3 0H3.7a4 4 0 0 0-.543.038 4 4 0 0 0-.53.114 4 4 0 0 0-.509.188 4 4 0 0 0-.474.257 4 4 0 0 0-.429.321 4 4 0 0 0-.375.378 3.4 3.4 0 0 0-.403.578 3 3 0 0 0-.155.314 3.4 3.4 0 0 0-.241.837 3 3 0 0 0-.04.52v18.91a4 4 0 0 0 .04.52 3.6 3.6 0 0 0 .176.674 3 3 0 0 0 .22.477 3.6 3.6 0 0 0 .403.577 3 3 0 0 0 .244.258 4 4 0 0 0 .412.34 4 4 0 0 0 .302.194 3.8 3.8 0 0 0 1.902.504h29.6a4 4 0 0 0 .363-.017 4 4 0 0 0 .536-.089 4 4 0 0 0 .683-.234 3.6 3.6 0 0 0 .622-.357 4 4 0 0 0 .537-.467 4 4 0 0 0 .335-.41 3.3 3.3 0 0 0 .268-.455 3 3 0 0 0 .195-.486 3.6 3.6 0 0 0 .142-.682 3 3 0 0 0 .017-.348V3.546a4 4 0 0 0-.04-.52 3.4 3.4 0 0 0-.582-1.45 3.4 3.4 0 0 0-.335-.412 4 4 0 0 0-.394-.36 4 4 0 0 0-.292-.207 3.5 3.5 0 0 0-.473-.257 3.7 3.7 0 0 0-.683-.234 4 4 0 0 0-.536-.089A3 3 0 0 0 33.3 0M2.467 3.752l10.236 8.405-10.236 9.808zM19.3 13.148a1.26 1.26 0 0 1-1.603 0L4.563 2.364h27.873zm-4.72.552 1.51 1.24a4 4 0 0 0 .537.354 3.8 3.8 0 0 0 .904.352 4 4 0 0 0 .804.117 4 4 0 0 0 .49-.01 4 4 0 0 0 .64-.107 4 4 0 0 0 .904-.352 4 4 0 0 0 .537-.354l1.512-1.242 10.37 9.939H4.21zm9.717-1.537 10.235-8.41v18.212z"/></g><defs><clipPath id="a"><path fill="#fff" d="M0 0h37v26H0z"/></clipPath></defs></svg>