<svg xmlns="http://www.w3.org/2000/svg" width="41" height="41" fill="none"><g fill="#000" clip-path="url(#a)"><path d="M27.387 41H3.844c-.06-.023-.119-.058-.18-.07C1.935 40.585.79 39.572.207 37.915c-.086-.247-.14-.506-.208-.76V3.844c.026-.074.06-.145.075-.22C.3 2.412.909 1.42 1.949.777 2.522.423 3.209.253 3.844 0h18.498c.222.162.47.298.663.49 2.582 2.57 5.154 5.15 7.734 7.72.343.342.501.728.498 1.215-.014 1.761 0 3.522-.01 5.284-.002.268.063.413.326.54 4.624 2.234 6.182 8.027 3.315 12.288-.071.107-.139.217-.24.378.128.104.253.185.356.288 1.795 1.791 3.591 3.58 5.375 5.382.248.25.43.563.642.847v.561c-.572 1.104-1.39 1.226-2.277.338q-2.731-2.727-5.456-5.46c-.102-.102-.163-.244-.218-.33-.568.327-1.017.619-1.494.848-.26.125-.332.267-.33.54.01 1.92.023 3.84-.002 5.76-.023 1.887-1.284 3.543-3.074 4.1-.25.079-.507.14-.761.21zM20.82 2.402H4.557c-1.319 0-2.154.832-2.154 2.148v31.907c0 1.292.84 2.139 2.123 2.139q11.09.003 22.18 0c1.283 0 2.119-.847 2.121-2.14.003-1.428 0-2.856 0-4.284v-.954c-5.108.52-9.321-3.548-9.332-8.378-.01-4.888 4.264-8.952 9.31-8.417V10.41h-.455q-3.103.002-6.206 0c-.83-.002-1.322-.49-1.324-1.316-.003-1.575 0-3.15 0-4.725zm13.085 20.42a5.994 5.994 0 0 0-5.998-6.006c-3.306-.01-6 2.687-6 6.005 0 3.3 2.677 6 5.96 6.007a5.993 5.993 0 0 0 6.04-6.005zM23.25 4.192v3.784h3.778z"/><path d="M12.817 15.215c-2.24 0-4.48.004-6.719-.002-.956-.002-1.563-.87-1.182-1.687.232-.498.646-.716 1.193-.715 2.253.004 4.507.002 6.76.002 2.226 0 4.453-.005 6.679.002.93.003 1.532.86 1.17 1.668-.232.517-.659.735-1.221.734-2.227-.005-4.454-.002-6.68-.002M11.214 20.02H6.176c-.816 0-1.362-.477-1.37-1.188-.009-.726.543-1.214 1.382-1.214q5.058-.002 10.117 0c.962 0 1.576.848 1.209 1.671-.223.5-.635.732-1.181.732q-2.56-.002-5.119 0zM11.214 24.824H6.176c-.816 0-1.362-.477-1.37-1.188-.008-.726.545-1.213 1.383-1.214q5.058-.002 10.117 0c.96 0 1.576.849 1.207 1.67-.223.5-.635.732-1.181.731h-5.119zM11.207 29.629H6.168c-.812 0-1.358-.483-1.362-1.195s.543-1.206 1.35-1.206q5.057-.003 10.116 0c.804 0 1.352.5 1.343 1.214-.009.699-.548 1.186-1.33 1.187-1.692.003-3.385 0-5.077 0z"/></g><defs><clipPath id="a"><path fill="#fff" d="M0 0h41v41H0z"/></clipPath></defs></svg>