<svg xmlns="http://www.w3.org/2000/svg" width="28" height="28" fill="none"><g fill="#000" clip-path="url(#a)"><path d="M25.343 6.64a.71.71 0 0 0-.839-.025l-5.964 4.031-3.895-6.759A.75.75 0 0 0 14 3.5a.75.75 0 0 0-.645.387l-3.895 6.76-5.964-4.031a.71.71 0 0 0-.839.024.86.86 0 0 0-.307.845l2.312 11.73c.075.379.385.65.744.65h17.19c.358 0 .668-.271.742-.65l2.312-11.73a.86.86 0 0 0-.307-.845M21.98 18.22H6.02L4.21 9.039l5.09 3.44c.17.115.378.152.575.103a.77.77 0 0 0 .473-.366l3.653-6.338 3.652 6.338a.77.77 0 0 0 .473.366.72.72 0 0 0 .575-.104l5.09-3.44zM22.595 21.689H5.405c-.42 0-.76.368-.76.822s.34.822.76.822h17.19c.42 0 .76-.368.76-.822s-.34-.822-.76-.822"/></g><defs><clipPath id="a"><path fill="#fff" d="M2.334 3.5h23.333v19.833H2.334z"/></clipPath></defs></svg>