<svg xmlns="http://www.w3.org/2000/svg" width="48" height="48" fill="none"><g clip-path="url(#a)"><path fill="#fff" d="M47.044 12.37a6.03 6.03 0 0 0-4.243-4.27c-3.753-1.01-18.753-1.01-18.753-1.01s-15 0-18.753 1.01a6.03 6.03 0 0 0-4.244 4.27C.048 16.14.048 24 .048 24s0 7.86 1.003 11.629a6.03 6.03 0 0 0 4.244 4.27c3.753 1.01 18.753 1.01 18.753 1.01s15 0 18.753-1.01a6.03 6.03 0 0 0 4.243-4.27c1.004-3.77 1.004-11.63 1.004-11.63s0-7.86-1.004-11.628"/><path fill="#333433" d="M19.139 31.138V16.863l12.545 7.138z"/></g><defs><clipPath id="a"><path fill="#fff" d="M0 0h48v48H0z"/></clipPath></defs></svg>