<svg xmlns="http://www.w3.org/2000/svg" width="200" height="36" fill="none"><g fill="#000" clip-path="url(#a)"><path d="M22.6 17.56c0-5.24 4.272-9.537 9.59-9.548V4.576a1.06 1.06 0 0 0-1.068-1.06H4.942c-.61 0-1.103.467-1.103 1.06v25.957a1.1 1.1 0 0 0 1.103 1.107h26.18c.587 0 1.069-.49 1.069-1.107v-3.412c-5.319 0-9.592-4.308-9.592-9.56"/><path d="M35.83 17.56c0 1.84-1.514 3.378-3.37 3.378-1.854 0-3.38-1.526-3.38-3.377 0-1.852 1.526-3.342 3.38-3.342 1.856 0 3.37 1.513 3.37 3.342M51.62 17.56c0 2.563-2.078 4.6-4.625 4.6s-4.638-2.037-4.638-4.6c0-2.561 2.055-4.6 4.638-4.6a4.61 4.61 0 0 1 4.625 4.6M82.778 29.1s1.902-4.46 1.89-4.529c0-.058-5.048-11.633-5.659-13.136h3.91c.058.175 3.721 9.363 3.721 9.363h.07s3.452-9.188 3.487-9.363h3.616c-.14.28-7.502 17.666-7.502 17.666h-3.545zM99.589 12.588c1.174-.978 2.853-1.49 4.989-1.49 4.532 0 5.459 2.713 5.459 4.984v8.023h-3.521v-6.789c0-1.234 0-3.796-3.029-3.796-2.301 0-3.487 1.258-3.792 1.653-.13.163-.188.222-.188.28 0 0 .023.046.023.058v8.606h-3.545v-12.67h3.346v1.328l.246-.175zM181.932 24.105V6.265h3.628v10.55l.293-.268s5.401-5.042 5.471-5.112h4.121l-6.07 5.66s6.774 6.999 6.774 7.01h-4.485c-.105-.081-6.104-6.533-6.104-6.533v6.533zM73.092 6.172v6.102l-.2-.117c-1.08-.57-2.359-.873-3.674-.873-4.39 0-7.325 2.632-7.325 6.58s2.935 6.416 7.325 6.416c1.35 0 2.583-.303 3.675-.862l.2-.105v.862h3.357V6.172zm-4.003 15.58c-2.172 0-3.945-1.746-3.945-3.9s1.773-3.913 3.945-3.913A3.89 3.89 0 0 1 73 17.852a3.883 3.883 0 0 1-3.91 3.9M136.875 11.284a8 8 0 0 0-3.686.873l-.153.117V6.172h-3.405v17.991h3.405v-.861l.153.104c1.091.571 2.336.862 3.686.862 4.391 0 7.314-2.573 7.314-6.416s-2.923-6.58-7.314-6.58m.117 10.48c-2.172 0-3.933-1.746-3.933-3.9s1.761-3.913 3.933-3.913 3.992 1.735 3.992 3.913-1.808 3.9-3.992 3.9M154.003 11.144c-4.508 0-7.513 2.69-7.513 6.708 0 4.017 3.017 6.58 7.513 6.58s7.561-2.644 7.561-6.58-3.041-6.708-7.561-6.708m.047 10.609c-2.172 0-3.944-1.747-3.944-3.901s1.772-3.913 3.944-3.913a3.9 3.9 0 0 1 3.921 3.913 3.89 3.89 0 0 1-3.921 3.9M171.59 11.144c-4.52 0-7.526 2.69-7.526 6.708 0 4.017 3.006 6.58 7.526 6.58s7.537-2.644 7.537-6.58-3.029-6.708-7.537-6.708m.058 10.609c-2.195 0-3.956-1.747-3.956-3.901s1.761-3.913 3.956-3.913a3.88 3.88 0 0 1 3.91 3.913 3.89 3.89 0 0 1-3.91 3.9M125.804 21.345l-.035-3.225v-1.642c0-3.785-1.902-5.508-6.621-5.508-1.62 0-3.886.384-4.955.885v2.585c.728-.42 2.971-1.246 4.743-1.2 2.607.059 3.604.932 3.628 2.958v.14l-.223-.082a7.6 7.6 0 0 0-3.252-.733c-3.827 0-6.269 2.003-6.269 4.378s1.89 4.53 6.187 4.472a8.3 8.3 0 0 0 3.616-.967l.152-.104s.118.652.118.791h3.099c-.012-.547-.176-2.76-.176-2.76m-6.821.804c-2.254 0-3.428-1.025-3.428-2.178 0-1.152 1.362-2.177 3.428-2.177 1.867 0 3.381 1.025 3.381 2.177s-1.514 2.178-3.381 2.178"/></g><defs><clipPath id="a"><path fill="#fff" d="M0 0h200v35.156H0z"/></clipPath></defs></svg>