<svg xmlns="http://www.w3.org/2000/svg" width="256" height="44" fill="none"><g fill="#fff" clip-path="url(#a)"><path d="M28.927 21.978c0-6.558 5.47-11.936 12.277-11.95v-4.3c0-.744-.616-1.327-1.367-1.327H6.327c-.782 0-1.413.583-1.413 1.327v32.486c0 .772.631 1.384 1.413 1.384h33.51c.751 0 1.367-.612 1.367-1.384v-4.27c-6.807 0-12.277-5.393-12.277-11.966"/><path d="M45.862 21.978c0 2.303-1.938 4.227-4.312 4.227s-4.328-1.91-4.328-4.227 1.953-4.183 4.328-4.183 4.312 1.895 4.312 4.183M66.074 21.978c0 3.206-2.66 5.757-5.92 5.757-3.261 0-5.936-2.55-5.936-5.757s2.63-5.757 5.935-5.757c3.306 0 5.921 2.609 5.921 5.757M105.956 36.421s2.434-5.582 2.419-5.67c0-.072-6.462-14.559-7.243-16.439h5.004c.075.219 4.763 11.718 4.763 11.718h.091s4.417-11.5 4.463-11.718h4.628c-.18.35-9.602 22.11-9.602 22.11h-4.539zM127.475 15.755c1.502-1.225 3.651-1.866 6.386-1.866 5.801 0 6.988 3.396 6.988 6.238v10.042h-4.508v-8.497c0-1.545 0-4.751-3.877-4.751-2.946 0-4.463 1.574-4.854 2.07-.165.203-.241.276-.241.349 0 0 .03.058.03.073v10.77h-4.538V14.326h4.283v1.662l.316-.219zM232.874 30.169V7.84h4.643v13.204l.376-.335s6.912-6.31 7.003-6.398h5.274l-7.769 7.083s8.671 8.76 8.671 8.774h-5.741c-.135-.102-7.814-8.177-7.814-8.177v8.177zM93.558 7.724v7.637l-.255-.145c-1.382-.715-3.02-1.093-4.703-1.093-5.62 0-9.377 3.293-9.377 8.234s3.756 8.03 9.377 8.03c1.728 0 3.305-.378 4.703-1.078l.255-.131v1.078h4.298V7.724zm-5.124 19.5c-2.78 0-5.049-2.185-5.049-4.882s2.27-4.896 5.05-4.896 5.003 2.171 5.003 4.896-2.224 4.883-5.004 4.883M175.2 14.123c-1.698 0-3.306.378-4.718 1.093l-.195.145V7.724h-4.358v22.518h4.358v-1.079l.195.131c1.397.715 2.99 1.079 4.718 1.079 5.62 0 9.362-3.221 9.362-8.03 0-4.81-3.742-8.235-9.362-8.235m.151 13.117c-2.78 0-5.034-2.186-5.034-4.882 0-2.697 2.254-4.898 5.034-4.898s5.109 2.172 5.109 4.898-2.314 4.882-5.109 4.882M197.124 13.948c-5.77 0-9.617 3.366-9.617 8.394s3.862 8.235 9.617 8.235 9.677-3.309 9.677-8.235-3.891-8.394-9.677-8.394m.06 13.277c-2.78 0-5.049-2.186-5.049-4.883s2.269-4.897 5.049-4.897 5.019 2.172 5.019 4.897-2.239 4.883-5.019 4.883M219.635 13.948c-5.785 0-9.632 3.366-9.632 8.394s3.847 8.235 9.632 8.235 9.648-3.309 9.648-8.235-3.877-8.394-9.648-8.394m.075 13.277c-2.81 0-5.064-2.186-5.064-4.883s2.254-4.897 5.064-4.897 5.004 2.172 5.004 4.897-2.239 4.883-5.004 4.883M161.03 26.715l-.045-4.037v-2.055c0-4.737-2.434-6.894-8.475-6.894-2.074 0-4.974.481-6.342 1.108v3.235c.932-.524 3.802-1.56 6.071-1.501 3.336.073 4.614 1.166 4.644 3.702v.175l-.286-.102a9.9 9.9 0 0 0-4.162-.918c-4.899 0-8.025 2.506-8.025 5.48 0 2.973 2.42 5.669 7.919 5.596 1.819-.058 3.457-.583 4.629-1.21l.195-.13s.15.815.15.99h3.967c-.015-.685-.225-3.454-.225-3.454m-8.731 1.006c-2.885 0-4.388-1.283-4.388-2.726 0-1.442 1.744-2.725 4.388-2.725 2.39 0 4.328 1.283 4.328 2.725s-1.938 2.726-4.328 2.726"/></g><defs><clipPath id="a"><path fill="#fff" d="M0 0h256v44H0z"/></clipPath></defs></svg>