<svg xmlns="http://www.w3.org/2000/svg" width="99" height="64" fill="none"><g clip-path="url(#a)"><path fill="#2E2D2C" fill-rule="evenodd" d="M88.097 0H10.902C9.348 0 8.083 1.298 8.083 2.886v51.74c0 1.587 1.265 2.884 2.818 2.884h77.195c1.551 0 2.819-1.299 2.819-2.884V2.886C90.916 1.299 89.648 0 88.097 0M49.501 1.4c.274 0 .498.228.498.512s-.224.51-.498.51a.506.506 0 0 1-.5-.51c0-.282.223-.512.5-.512m37.961 51.05H11.536V4.02h75.927V52.45" clip-rule="evenodd"/><path fill="#2E2D2C" d="m57.841 59.054.004.368c0 .766-.658 1.393-1.462 1.393H42.71c-.805 0-1.462-.627-1.462-1.393l.002-.368H0v3c.809.934 3.746 1.947 6.286 1.947H92.71c2.543 0 5.48-1.012 6.289-1.946v-3.001z"/><path fill="url(#b)" fill-opacity=".2" d="m57.841 59.054.004.368c0 .766-.658 1.393-1.462 1.393H42.71c-.805 0-1.462-.627-1.462-1.393l.002-.368H0v3c.809.934 3.746 1.947 6.286 1.947H92.71c2.543 0 5.48-1.012 6.289-1.946v-3.001z"/></g><defs><linearGradient id="b" x1="0" x2="99" y1="61.528" y2="61.528" gradientUnits="userSpaceOnUse"><stop stop-opacity="0"/><stop offset="1"/></linearGradient><clipPath id="a"><path fill="#fff" d="M0 0h99v64H0z"/></clipPath></defs></svg>