<svg xmlns="http://www.w3.org/2000/svg" width="93" height="65" fill="none"><g clip-path="url(#a)"><path fill="#2E2D2C" fill-rule="evenodd" d="M72.768.765H2.562A2.576 2.576 0 0 0 0 3.343v46.234c0 1.418 1.151 2.579 2.562 2.579h70.206c1.41 0 2.563-1.16 2.563-2.579V3.343c0-1.418-1.152-2.578-2.563-2.578m-35.101 1.25a.456.456 0 0 1 0 .913.456.456 0 0 1 0-.913M72.19 47.633H3.14V4.358h69.052v43.275" clip-rule="evenodd"/><path fill="#2E2D2C" d="m43.819 58 .003.521c0 1.084-.498 1.97-1.107 1.97h-10.36c-.61 0-1.107-.886-1.107-1.97l.001-.521H0v4.246C.613 63.566 2.838 65 4.762 65h65.474c1.926 0 4.151-1.432 4.764-2.754V58zM56.546 39.512a.48.48 0 0 1-.35-.152l-4.19-4.471a.484.484 0 0 1 .02-.684l34.598-32.81a3.3 3.3 0 0 1 2.282-.911c.912 0 1.795.383 2.421 1.05l.286.305c.61.65.93 1.5.905 2.394a3.33 3.33 0 0 1-1.043 2.337L56.876 39.38a.48.48 0 0 1-.33.132"/><path fill="#fff" d="M88.905.967c.757 0 1.512.302 2.072.9l.285.304a2.875 2.875 0 0 1-.118 4.047l-34.598 32.81-4.19-4.472L86.954 1.747a2.83 2.83 0 0 1 1.951-.78m0-.967c-.974 0-1.902.37-2.61 1.043l-34.599 32.81a.97.97 0 0 0-.04 1.367l4.19 4.472a.956.956 0 0 0 1.36.04L91.804 6.924a3.81 3.81 0 0 0 1.194-2.674 3.82 3.82 0 0 0-1.035-2.74l-.286-.306a3.81 3.81 0 0 0-2.77-1.202z"/><path fill="#2E2D2C" d="M49.684 42.523c-.418 0-.784-.19-1.004-.52-.234-.356-.263-.816-.077-1.264l2.208-5.322a.48.48 0 0 1 .794-.145l4.19 4.471a.486.486 0 0 1-.191.789l-5.412 1.903q-.256.09-.507.09z"/><path fill="#fff" d="m51.253 35.603 4.19 4.471-5.411 1.903a1 1 0 0 1-.348.063c-.55 0-.89-.508-.638-1.114zm.001-.969a.965.965 0 0 0-.888.595l-2.206 5.322c-.249.6-.204 1.227.122 1.718.306.462.83.736 1.404.736q.332 0 .665-.117l5.412-1.903a.967.967 0 0 0 .383-1.576l-4.19-4.472a.96.96 0 0 0-.7-.304z"/></g><defs><clipPath id="a"><path fill="#fff" d="M0 0h93v65H0z"/></clipPath></defs></svg>