<svg xmlns="http://www.w3.org/2000/svg" width="119" height="64" fill="none"><g fill="#2E2D2C" clip-path="url(#a)"><path d="M45.243 49.814H33.687v13.154h11.556z"/><path d="M56.049 61.227H22.883c-.775 0-1.403.62-1.403 1.386v.001c0 .766.628 1.386 1.403 1.386h33.165c.776 0 1.404-.62 1.404-1.386v-.001c0-.765-.628-1.386-1.404-1.386M75.746.486H3.182C1.425.486 0 1.893 0 3.63v43.615c0 1.736 1.425 3.143 3.182 3.143h72.564c1.757 0 3.183-1.407 3.183-3.143V3.63c0-1.736-1.425-3.144-3.183-3.144m-2.448 42.525H5.63V4.917h67.668zM115.392 0H93.46c-1.993 0-3.607 1.595-3.607 3.563v56.873c0 1.968 1.614 3.563 3.607 3.563h21.932c1.993 0 3.608-1.595 3.608-3.563V3.563C119 1.595 117.385 0 115.392 0m-3.411 11.38c-1.553 0-2.813-1.243-2.813-2.778s1.26-2.778 2.813-2.778 2.813 1.244 2.813 2.778-1.259 2.779-2.813 2.779"/></g><defs><clipPath id="a"><path fill="#fff" d="M0 0h119v64H0z"/></clipPath></defs></svg>