<svg xmlns="http://www.w3.org/2000/svg" width="65" height="38" fill="none"><g clip-path="url(#a)"><path fill="#2E2D2C" fill-rule="evenodd" d="M29.365 0H3.634a.945.945 0 0 0-.94.947v16.977c0 .52.422.947.94.947h25.731c.517 0 .94-.427.94-.947V.947a.946.946 0 0 0-.94-.947M16.5.46c.091 0 .166.074.166.167a.166.166 0 1 1-.333 0c0-.092.075-.168.167-.168m12.654 16.75H3.845V1.32h25.31z" clip-rule="evenodd"/><path fill="#2E2D2C" d="m19.28 19.377.002.12c0 .252-.22.458-.488.458h-4.558c-.268 0-.487-.206-.487-.457v-.121H0v.985c.27.306 1.249.638 2.095.638h28.809c.847 0 1.826-.332 2.096-.638v-.985z"/><path fill="url(#b)" fill-opacity=".2" d="m19.28 19.377.002.12c0 .252-.22.458-.488.458h-4.558c-.268 0-.487-.206-.487-.457v-.121H0v.985c.27.306 1.249.638 2.095.638h28.809c.847 0 1.826-.332 2.096-.638v-.985z"/></g><g clip-path="url(#c)"><path fill="#2E2D2C" fill-rule="evenodd" d="M61.365 0H35.633a.945.945 0 0 0-.939.947v16.977c0 .52.422.947.94.947h25.731c.517 0 .94-.427.94-.947V.947a.946.946 0 0 0-.94-.947M48.5.46c.091 0 .166.074.166.167a.166.166 0 1 1-.333 0c0-.092.075-.168.167-.168m12.654 16.75H35.845V1.32h25.31z" clip-rule="evenodd"/><path fill="#2E2D2C" d="m51.28 19.377.002.12c0 .252-.22.458-.487.458h-4.559c-.268 0-.487-.206-.487-.457v-.121H32v.985c.27.306 1.249.638 2.095.638h28.809c.847 0 1.826-.332 2.096-.638v-.985z"/><path fill="url(#d)" fill-opacity=".2" d="m51.28 19.377.002.12c0 .252-.22.458-.487.458h-4.559c-.268 0-.487-.206-.487-.457v-.121H32v.985c.27.306 1.249.638 2.095.638h28.809c.847 0 1.826-.332 2.096-.638v-.985z"/></g><g clip-path="url(#e)"><path fill="#fff" d="M15 9.875h35v22.969H15z"/><path fill="#2E2D2C" fill-rule="evenodd" d="M50.044 8H14.956c-.706 0-1.281.608-1.281 1.353v24.253c0 .744.575 1.352 1.28 1.352h35.09c.704 0 1.28-.609 1.28-1.352V9.353c0-.744-.576-1.353-1.28-1.353m-17.543.656c.124 0 .226.107.226.24a.233.233 0 0 1-.226.24.234.234 0 0 1-.228-.24c0-.132.102-.24.228-.24m17.255 23.93H15.244v-22.7h34.512z" clip-rule="evenodd"/><path fill="#2E2D2C" d="m36.291 35.681.002.173c0 .36-.299.653-.664.653h-6.216a.66.66 0 0 1-.664-.653v-.173H10v1.407c.368.438 1.703.913 2.857.913h39.284c1.156 0 2.491-.475 2.859-.913v-1.407z"/><path fill="url(#f)" fill-opacity=".2" d="m36.291 35.681.002.173c0 .36-.299.653-.664.653h-6.216a.66.66 0 0 1-.664-.653v-.173H10v1.407c.368.438 1.703.913 2.857.913h39.284c1.156 0 2.491-.475 2.859-.913v-1.407z"/></g><defs><linearGradient id="b" x1="0" x2="33" y1="20.189" y2="20.189" gradientUnits="userSpaceOnUse"><stop stop-opacity="0"/><stop offset="1"/></linearGradient><linearGradient id="d" x1="32" x2="65" y1="20.189" y2="20.189" gradientUnits="userSpaceOnUse"><stop stop-opacity="0"/><stop offset="1"/></linearGradient><linearGradient id="f" x1="10" x2="55" y1="36.841" y2="36.841" gradientUnits="userSpaceOnUse"><stop stop-opacity="0"/><stop offset="1"/></linearGradient><clipPath id="a"><path fill="#fff" d="M0 0h33v21H0z"/></clipPath><clipPath id="c"><path fill="#fff" d="M32 0h33v21H32z"/></clipPath><clipPath id="e"><path fill="#fff" d="M10 8h45v30H10z"/></clipPath></defs></svg>