<svg xmlns="http://www.w3.org/2000/svg" width="30" height="66" fill="none"><g fill="#000" clip-path="url(#a)"><path d="M16.5 20.949h-3c-7.447 0-13.5 6.06-13.5 13.515v18.02C0 59.94 6.053 66 13.5 66h3C23.948 66 30 59.94 30 52.485v-18.02c0-7.457-6.052-13.516-13.5-13.516m0 16.519c0 .833-.668 1.501-1.5 1.501s-1.5-.668-1.5-1.501V31.46c0-.834.668-1.502 1.5-1.502s1.5.668 1.5 1.502zM10.373 13.253a1.503 1.503 0 0 0 1.552 2.575c1.943-1.171 4.215-1.171 6.158 0 .24.143.51.218.772.218.51 0 1.005-.256 1.283-.729a1.51 1.51 0 0 0-.51-2.065 8.98 8.98 0 0 0-9.255 0M22.59 11.278c.48 0 .952-.225 1.237-.66a1.5 1.5 0 0 0-.397-2.088c-4.995-3.41-11.873-3.41-16.868 0a1.506 1.506 0 0 0-.397 2.087c.465.691 1.41.864 2.085.398 4.005-2.718 9.495-2.718 13.492 0a1.5 1.5 0 0 0 .84.263z"/><path d="M4.575 6.277c6.15-4.385 14.708-4.385 20.85 0a1.497 1.497 0 0 0 2.093-.353 1.504 1.504 0 0 0-.353-2.095c-7.162-5.105-17.167-5.105-24.33 0a1.504 1.504 0 0 0-.352 2.095 1.5 1.5 0 0 0 2.092.353"/></g><defs><clipPath id="a"><path fill="#fff" d="M0 0h30v66H0z"/></clipPath></defs></svg>