<svg xmlns="http://www.w3.org/2000/svg" width="68" height="54" fill="none"><g clip-path="url(#a)"><path fill="#000" d="M7.766 0h52.197c2.401 0 4.35 1.94 4.35 4.33v32.433c0 2.39-1.949 4.33-4.35 4.33H7.766c-2.4 0-4.35-1.94-4.35-4.33V4.33C3.418 1.94 5.367 0 7.766 0"/><path fill="#fff" d="M59.964 5.095H7.084v30.311h52.88z"/><path fill="#000" d="M.547 48.99h66.905c.44 0 .699-.492.45-.853l-3.588-5.175H3.759L.1 48.132a.544.544 0 0 0 .446.858M.11 50.35h66.994c.045 0 .069.051.04.084l-1.705 2.148A3.75 3.75 0 0 1 62.5 54H4.72a3.75 3.75 0 0 1-2.939-1.414L.07 50.434a.053.053 0 0 1 .04-.085M46.812 28.697l-.928-7.728a3.955 3.955 0 0 0-3.318-3.427v-1.451c0-2.287-.93-4.357-2.437-5.855a8.3 8.3 0 0 0-5.879-2.423c-4.591 0-8.315 3.705-8.315 8.278v1.464a3.96 3.96 0 0 0-3.202 3.229l-1.308 7.728c-.407 2.408 1.456 4.602 3.91 4.602h17.54c2.376 0 4.22-2.066 3.937-4.415zM29.006 16.685c0-2.93 2.386-5.306 5.33-5.306 1.471 0 2.805.594 3.77 1.553a5.29 5.29 0 0 1 1.56 3.753v.552h-10.66z"/><path fill="#fff" d="m31.82 29.349 4.435.17-.854-4.075c1.018-.816 1.127-2.29.34-3.17-.779-.873-2.172-.862-3.012-.17-.94.774-1.077 2.305-.171 3.34l-.739 3.907z"/></g><defs><clipPath id="a"><path fill="#fff" d="M0 0h68v54H0z"/></clipPath></defs></svg>