<svg xmlns="http://www.w3.org/2000/svg" width="51" height="66" fill="none"><g clip-path="url(#a)"><path fill="#000" d="m25.639 66-.442-.181c-6.215-2.546-14.847-7.654-20.66-17.527a46 46 0 0 1-.308-.534C1.416 42.808-.046 36.973 0 30.89c.032-4.205.124-8.473.212-12.604q.07-3.114.127-6.23l.024-1.276 1.263-.048a35.9 35.9 0 0 0 13.252-3.073A36.2 36.2 0 0 0 24.923.999l1.07-1 .893 1.166c1.652 2.161 4.548 5.167 8.956 7.205 5.244 2.426 10.148 2.389 13.34 1.93l1.503-.216.312 22.267c.087 6.175-1.602 12.315-4.883 17.758A36.1 36.1 0 0 1 32.97 62.864a36 36 0 0 1-6.874 2.99l-.456.144zM2.989 13.364q-.051 2.491-.104 4.982c-.089 4.12-.18 8.38-.212 12.565-.043 5.606 1.296 10.965 3.872 15.501q.14.248.287.497c5.296 8.995 13.125 13.771 18.922 16.22a33.4 33.4 0 0 0 5.911-2.622c10.436-5.893 16.82-16.666 16.66-28.116l-.27-19.241c-3.49.3-8.264.02-13.326-2.32a26.7 26.7 0 0 1-9.052-6.89 38.8 38.8 0 0 1-9.725 6.194 38.5 38.5 0 0 1-12.964 3.23"/><path fill="#000" d="M7.8 18.1a25.7 25.7 0 0 0 9.453-1.682 25.9 25.9 0 0 0 8.664-5.487 21.1 21.1 0 0 0 7.001 5.487 20.9 20.9 0 0 0 10.24 2.035v12.608c0 5.651-1.715 11.19-5.024 15.743q-.161.221-.33.443c-4.401 5.816-9.826 8.367-12.304 9.353a32.87 32.87 0 0 1-12.306-9.94C9.665 42.006 7.8 36.279 7.8 30.414z"/><path fill="#fff" d="M25.479 14.915V33h15.139l-.35-12.243c-1.626.107-4.38.075-7.526-1.062a18.8 18.8 0 0 1-7.263-4.78M10.952 33h14.526l.02 20.238c-1.614-.526-8.629-3.007-12.36-10.355C11.1 38.866 10.898 35.08 10.95 33z"/></g><defs><clipPath id="a"><path fill="#fff" d="M0 0h51v66H0z"/></clipPath></defs></svg>