<svg xmlns="http://www.w3.org/2000/svg" width="80" height="80" fill="none"><g clip-path="url(#a)"><g clip-path="url(#b)"><g fill="#8A2C85" clip-path="url(#c)"><path d="M57.363 41.051H23.209c.13-1.865.567-3.676 1.305-5.4.429-1.001.96-1.967 1.578-2.871a17.1 17.1 0 0 1 4.623-4.566 17.2 17.2 0 0 1 3.612-1.836v8.16c0 .474.388.857.867.857a.86.86 0 0 0 .866-.856v-9.461c0-1.217 1.003-2.208 2.235-2.208h3.982c1.233 0 2.235.99 2.235 2.207v9.462c0 .473.388.856.867.856a.86.86 0 0 0 .867-.856v-8.16q.354.13.703.275a17.2 17.2 0 0 1 5.441 3.624 17 17 0 0 1 2.09 2.501c.618.904 1.15 1.87 1.579 2.873a16.6 16.6 0 0 1 1.304 5.399M60.714 46.91a.86.86 0 0 1-.867.856h-39.12a.86.86 0 0 1-.868-.856c0-.733.101-1.43.3-2.071a5.3 5.3 0 0 1 .921-1.769q.129-.161.27-.306h37.872q.141.146.27.306c.404.503.714 1.098.922 1.769.199.641.3 1.338.3 2.07M31.945 49.674h-12.66v5.923h12.66zm-9.516 4.178c-.68 0-1.23-.545-1.23-1.216 0-.672.55-1.216 1.23-1.216s1.231.544 1.231 1.216-.55 1.215-1.23 1.215M38.352 50.916h-5.36v3.44h5.36z"/></g></g></g><defs><clipPath id="a"><path fill="#fff" d="M0 0h80v80H0z"/></clipPath><clipPath id="b"><path fill="#fff" d="M19.285 17.143h41.43v45h-41.43z"/></clipPath><clipPath id="c"><path fill="#fff" d="M19.285 22.87h41.43v32.727h-41.43z"/></clipPath></defs></svg>