<svg xmlns="http://www.w3.org/2000/svg" width="80" height="80" fill="none"><g fill="#8A2C85" clip-path="url(#a)"><path d="m57.318 35.877-5.647-5.614c-1.474-1.464-4.086-1.272-5.126.502-.264.45-.414.974-.367 1.577.031.383.534.548.819.277.766-.729 2.081-1.736 2.89-.999.68.621 2.59 2.611 4.106 4.21h-8.112c-2.146 0-3.888 1.667-3.888 3.721v.967a4.06 4.06 0 0 0-1.945-.06v-.907c0-2.054-1.742-3.722-3.888-3.722h-8.12c1.518-1.599 3.426-3.589 4.108-4.209.808-.737 2.122.27 2.889 1 .284.27.788.105.818-.278a2.64 2.64 0 0 0-.366-1.577c-1.04-1.774-3.652-1.967-5.126-.502l-5.636 5.603c-1.45.173-2.65 1.094-3.16 2.357h6.476v.242h8.118c.618 0 1.136.495 1.136 1.087v.242c0 .69.29 1.317.72 1.873.1.145.164.314.164.508v5.664c0 1.075-.908 1.945-2.032 1.945H25.214c-1.124 0-2.032-.87-2.032-1.945V42.79h-.973v5.048c0 1.583 1.351 2.876 3.004 2.876H36.16c1.654 0 2.992-1.293 2.992-2.876v-5.967c1.06-.858 2.764-.773 3.737.181v5.785c0 1.583 1.338 2.876 2.992 2.876h10.946c1.654 0 2.992-1.293 2.992-2.876v-5.665c0-.193.063-.362.176-.507.417-.556.72-1.184.72-1.873v-.242c0-1.893-1.485-3.44-3.397-3.674zm1.54 11.962c0 1.075-.922 1.945-2.032 1.945H45.88c-1.124 0-2.033-.87-2.033-1.945v-5.664c0-.194.063-.363.177-.508.416-.556.72-1.184.72-1.873v-.242c0-.591.505-1.087 1.136-1.087h10.946c.618 0 1.136.495 1.136 1.087v.242c0 .69.29 1.317.72 1.873a.8.8 0 0 1 .176.508z"/><path d="M27.408 38.825H20v3.36h7.408zm-5.568 2.37c-.398 0-.721-.31-.721-.69 0-.381.323-.69.72-.69.399 0 .722.309.722.69s-.323.69-.721.69M31.159 39.53h-3.137v1.95h3.137z"/></g><defs><clipPath id="a"><path fill="#fff" d="M0 0h80v80H0z"/></clipPath></defs></svg>