<svg xmlns="http://www.w3.org/2000/svg" width="80" height="80" fill="none"><g clip-path="url(#a)"><g fill="#8A2C85" clip-path="url(#b)"><path d="M54.925 28.94c2.044 0 3.702-1.682 3.702-3.756s-1.658-3.755-3.702-3.755-3.702 1.681-3.702 3.755c0 2.075 1.657 3.756 3.702 3.756M56.953 30.568H55a5 5 0 0 0-3.908 1.9l-2.01 2.536h-3.939a1.62 1.62 0 0 0-1.608 1.632c0 .456.177.864.475 1.158.289.293.69.48 1.133.48h5.37l2.083-1.891v19.794c0 1.305 1.045 2.365 2.323 2.365h.008c1.279 0 2.324-1.06 2.324-2.365V44.75c1.535-.106 2.75-1.411 2.75-2.994V33.66c0-1.705-1.36-3.091-3.048-3.091"/><path d="M20.217 50.926v8.36h3.819V51.81h22.008v7.476h3.819V44.57H20.217zM46.076 39.906h-.933a3.2 3.2 0 0 1-2.267-.954 3.23 3.23 0 0 1-.948-2.316c0-1.803 1.439-3.263 3.215-3.263h.933v-2.805h-4.43v4.535l-1.688-.864-1.68.864v-4.535h-4.43v12.405h12.228zM32.24 30.568h-4.313v4.75h-3.724v-4.75H20v12.405h12.24z"/></g></g><defs><clipPath id="a"><path fill="#fff" d="M0 0h80v80H0z"/></clipPath><clipPath id="b"><path fill="#fff" d="M20 21.429h40v37.857H20z"/></clipPath></defs></svg>