<svg width="100" height="100" viewBox="0 0 100 100" fill="none" xmlns="http://www.w3.org/2000/svg">
<g clip-path="url(#clip0_2527_364)">
<path d="M74.4875 68.0178L72.6102 65.6972C66.6765 59.0035 58.2852 54.0066 54.783 52.0825L53.4309 54.2369C52.395 55.9103 50.5148 56.9511 48.5244 56.9511C48.0137 56.9511 47.5088 56.8841 47.004 56.7441L46.914 56.7121C43.9718 55.7267 42.2657 52.7472 42.9447 49.7764C43.4437 47.5783 44.2417 45.4705 45.321 43.4997L43.3625 43.2227C42.9795 43.1674 42.5878 43.1411 42.199 43.1411C40.783 43.1411 39.3845 43.4997 38.1513 44.179L36.6077 45.0186C35.4442 45.66 34.1298 46.0011 32.8066 46.0011C31.7679 46.0011 30.7494 45.7999 29.7774 45.4005L26.8759 44.1906L14.6777 63.3532L18.56 65.9741L20.7391 63.7847C21.8011 62.7206 23.2083 62.1317 24.7055 62.1317C26.2027 62.1317 27.6129 62.7177 28.6719 63.7818C29.4525 64.5543 29.9718 65.5397 30.1836 66.6447C30.4593 66.6038 30.7349 66.5834 31.0106 66.5834C32.4933 66.5834 33.8889 67.1636 34.9393 68.2219C35.9926 69.2801 36.5729 70.6941 36.5729 72.2101C36.5729 72.4695 36.5526 72.7348 36.5148 72.9972C37.5246 73.2013 38.4415 73.6648 39.1785 74.347L39.3584 74.5103C40.6089 75.7755 41.1718 77.5072 40.9223 79.2885C42.0017 79.5043 43.0056 80.0348 43.7687 80.8045L43.8674 80.9182C44.8597 81.9677 45.4052 83.3438 45.4052 84.7956C45.4052 85.9413 45.0686 87.0375 44.4303 87.9733L46.7573 90.8391C47.2854 91.3464 48.0427 91.6379 48.8406 91.6379C49.6821 91.6379 50.48 91.3202 51.0284 90.7633C51.6087 90.1803 51.9308 89.4048 51.9308 88.5826C51.9308 87.8072 51.6435 87.0696 51.1271 86.5128L50.0622 85.4457C49.3455 84.7227 49.3455 83.5449 50.0622 82.8219C50.4104 82.475 50.8717 82.2826 51.3621 82.2826C51.8525 82.2826 52.3138 82.475 52.662 82.8219L54.6292 84.8131C55.2066 85.3903 55.9785 85.7081 56.8025 85.7081C57.6265 85.7081 58.3868 85.3962 58.9671 84.8277C58.9903 84.7985 59.0193 84.7694 59.0541 84.7402C60.1857 83.5245 60.1625 81.6529 59.0048 80.478L56.8025 78.2681C56.4543 77.9183 56.2628 77.4548 56.2628 76.9621C56.2628 76.4694 56.4543 76.0058 56.8025 75.656C57.1507 75.3062 57.6178 75.1137 58.114 75.1137C58.6102 75.1137 59.0599 75.3003 59.4081 75.6414L62.5911 78.8425C63.1453 79.3993 63.9374 79.72 64.7731 79.72C65.5971 79.72 66.3805 79.3993 66.9289 78.8425C67.5092 78.2594 67.8313 77.4868 67.8313 76.6618C67.8313 75.8367 67.5383 75.1196 67.0073 74.5598L63.6908 71.2363C63.3455 70.8719 63.1569 70.4084 63.1569 69.9273C63.1569 69.4463 63.3513 68.9594 63.6937 68.6154C64.0419 68.2656 64.5061 68.0732 65.0023 68.0732C65.4985 68.0732 65.9569 68.2656 66.3051 68.6154L70.3702 72.6998C71.0027 73.3354 71.8761 73.7027 72.7698 73.7027C72.8075 73.7027 72.8423 73.7027 72.8829 73.7027C73.707 73.694 74.4585 73.3645 74.9982 72.7785C75.5117 72.2013 75.7961 71.4608 75.7961 70.6999C75.7961 70.3297 75.7235 69.9536 75.5814 69.5833C75.1955 69.0148 74.8212 68.493 74.4788 68.0353L74.4875 68.0178Z" fill="white"/>
<path d="M67.6513 44.6689C64.9442 44.6689 62.2689 44.2287 59.704 43.357L55.0412 41.7768C54.545 41.6107 54.0285 41.5261 53.5062 41.5261C51.8872 41.5261 50.39 42.322 49.505 43.6514L49.3019 43.9721C48.0049 45.9749 47.0735 48.2023 46.528 50.5958C46.2814 51.6832 46.9487 52.8231 48.0397 53.1875C48.2109 53.2342 48.3908 53.2604 48.5678 53.2604C49.2758 53.2604 49.9257 52.8931 50.3087 52.275L52.5748 48.66C52.9143 48.1177 53.4975 47.7941 54.133 47.7941C54.4173 47.7941 54.6901 47.8583 54.9454 47.9836C55.607 48.3101 71.1622 56.0475 78.6743 67.531L85.3015 63.7382L72.8364 44.1208C71.1332 44.4852 69.3893 44.6689 67.6513 44.6689Z" fill="white"/>
<path d="M39.7993 82.8511C39.2799 82.8511 38.7954 83.0522 38.4327 83.4167L35.0002 86.8655C34.2486 87.6206 34.2486 88.8538 35.0002 89.6118C35.3396 89.9499 35.8358 90.1453 36.3639 90.1453C36.8949 90.1453 37.391 89.9499 37.7305 89.6118L41.1631 86.1629C41.5257 85.7985 41.7231 85.3116 41.7231 84.7927C41.7231 84.2738 41.5228 83.784 41.1631 83.4225C40.8004 83.0581 40.3158 82.8569 39.7964 82.8569L39.7993 82.8511Z" fill="white"/>
<path d="M36.7498 77.1254C36.39 76.761 35.9055 76.5627 35.3861 76.5627C34.8667 76.5627 34.3821 76.7639 34.0224 77.1254L29.6642 81.5043C29.3015 81.8687 29.1013 82.3555 29.1013 82.8745C29.1013 83.3934 29.3015 83.8832 29.6642 84.2476C30.0037 84.5887 30.4999 84.7811 31.028 84.7811C31.556 84.7811 32.0551 84.5858 32.3917 84.2476L36.7498 79.8717C37.5013 79.1137 37.5013 77.8834 36.7498 77.1283V77.1254Z" fill="white"/>
<path d="M32.8995 72.2099C32.8995 71.6881 32.6993 71.2012 32.3366 70.8368C31.9739 70.4724 31.4864 70.2712 30.9699 70.2712C30.4535 70.2712 29.9689 70.4724 29.6062 70.8368L24.3254 76.1398C23.9627 76.5043 23.7654 76.9911 23.7654 77.513C23.7654 78.0348 23.9656 78.5217 24.3283 78.8861C24.6736 79.233 25.1697 79.4313 25.692 79.4313C26.2143 79.4313 26.7134 79.233 27.0586 78.8861L32.3366 73.5831C32.6993 73.2187 32.8995 72.7289 32.8995 72.2099Z" fill="white"/>
<path d="M26.0779 66.4028C25.7152 66.0383 25.2307 65.8401 24.7113 65.8401C24.1919 65.8401 23.7074 66.0412 23.3447 66.4057L18.9923 70.7816C18.6297 71.146 18.4294 71.6329 18.4294 72.1518C18.4294 72.6708 18.6297 73.1605 18.9894 73.522C19.355 73.8894 19.8396 74.0905 20.3532 74.0905C20.8696 74.0905 21.3542 73.8894 21.7198 73.522L26.075 69.1461C26.8265 68.3881 26.8265 67.1578 26.075 66.3998L26.0779 66.4028Z" fill="white"/>
<path d="M15.4002 35.8382L1.31605 57.9803C0.483302 59.2893 0.863405 61.0297 2.1662 61.8664L6.2632 64.499C7.566 65.3357 9.29822 64.9538 10.131 63.6448L24.2151 41.5056C25.0479 40.1966 24.6678 38.4562 23.365 37.6195L19.268 34.9869C17.9652 34.1502 16.2329 34.5321 15.4002 35.8411V35.8382ZM7.1917 61.0705C5.79024 61.0705 4.66734 59.9131 4.66734 58.505C4.66734 57.0969 5.79024 55.9687 7.1917 55.9687C8.59315 55.9687 9.71605 57.1261 9.71605 58.505C9.71605 59.884 8.59315 61.0705 7.1917 61.0705Z" fill="white"/>
<path d="M80.4849 34.984L76.385 37.6166C75.0823 38.4533 74.7021 40.1909 75.532 41.4999L89.59 63.6419C90.4228 64.9509 92.1521 65.3357 93.4549 64.502L97.5751 61.8636C98.8808 61.0269 99.2638 59.2864 98.4311 57.9745L84.3498 35.8382C83.5171 34.5293 81.7848 34.1444 80.482 34.984H80.4849ZM92.5612 61.0706C91.1598 61.0706 90.0079 59.9132 90.0079 58.5051C90.0079 57.097 91.1598 55.9687 92.5612 55.9687C93.9627 55.9687 95.0856 57.1261 95.0856 58.5051C95.0856 59.884 93.9337 61.0706 92.5612 61.0706Z" fill="white"/>
<path d="M38.3776 40.1004C39.5904 39.6835 40.9019 39.459 42.2105 39.459C42.7531 39.459 43.3276 39.4911 43.8731 39.5552L45.823 39.8438L47.7409 40.1004C49.2758 38.6573 51.3185 37.8206 53.5237 37.8206C54.4174 37.8206 55.3459 37.9809 56.2076 38.2695L60.8733 39.8438C61.0648 39.908 61.2883 39.9721 61.4798 40.0362C64.9935 36.8265 67.1987 32.2027 67.1987 27.0659C67.0711 17.4015 59.3703 9.63208 49.8822 9.63208C40.3942 9.63208 32.5629 17.4015 32.5629 27.0659C32.5629 32.2668 34.8 36.9227 38.3776 40.1004ZM40.7423 25.0776C41.636 24.2117 43.0433 24.2117 43.905 25.0776L47.355 28.5439L55.0876 20.7745C55.9813 19.9087 57.3886 19.9087 58.2503 20.7745C59.1121 21.6404 59.144 23.0864 58.2503 23.9523L48.9537 33.328C48.5388 33.7449 47.9643 33.9694 47.355 33.9694C46.7805 33.9694 46.2031 33.7449 45.7881 33.328L40.7394 28.2553C39.8777 27.3895 39.8777 25.9435 40.7394 25.0776H40.7423Z" fill="white"/>
</g>
<defs>
<clipPath id="clip0_2527_364">
<rect width="98" height="82" fill="white" transform="translate(0.875 9.63501)"/>
</clipPath>
</defs>
</svg>
