<svg width="100" height="100" viewBox="0 0 100 100" fill="none" xmlns="http://www.w3.org/2000/svg">
<g clip-path="url(#clip0_2527_1385)">
<path d="M28.5918 53.0119C28.6286 54.0041 29.4436 54.782 30.4271 54.782C30.4486 54.782 30.4731 54.782 30.4945 54.782C31.5087 54.7453 32.3022 53.8939 32.2655 52.8802C32.2195 51.597 32.195 50.2924 32.195 49C32.195 36.6489 34.2877 25.0696 38.087 16.3874C41.6228 8.30856 46.3291 3.675 50.9985 3.675C55.668 3.675 60.4999 8.428 64.0541 16.7182C64.4554 17.6523 65.534 18.0841 66.4685 17.6829C67.403 17.2817 67.835 16.2037 67.4336 15.2696C63.2115 5.42369 57.3746 0 51.0016 0C38.3934 0 28.5183 21.5233 28.5183 49C28.5183 50.3353 28.5428 51.6858 28.5918 53.0119ZM68.4325 23.6364C67.4489 23.8844 66.8515 24.8859 67.1027 25.8689C67.5715 27.7156 67.9851 29.6573 68.3344 31.6326C68.4937 32.5238 69.2689 33.1485 70.1422 33.1485C70.2494 33.1485 70.3566 33.1393 70.4639 33.1209C71.4627 32.9433 72.1307 31.9909 71.953 30.9925C71.5883 28.9284 71.1533 26.901 70.663 24.9655C70.4148 23.9824 69.4129 23.3853 68.4294 23.6364H68.4325ZM73.4114 44.9881C73.3746 43.9744 72.532 43.1843 71.5087 43.218C70.4945 43.2547 69.7009 44.1061 69.7377 45.1198C69.7837 46.403 69.8082 47.7076 69.8082 49C69.8082 61.3511 67.7155 72.9304 63.9162 81.6126C60.3804 89.6914 55.6741 94.325 51.0047 94.325C46.3352 94.325 41.5033 89.572 37.9491 81.2818C37.5477 80.3478 36.4692 79.9159 35.5347 80.3171C34.6002 80.7183 34.1682 81.7963 34.5696 82.7304C38.7917 92.5763 44.6286 98 51.0047 98C63.6129 98 73.488 76.4768 73.488 49C73.488 47.6647 73.4635 46.3142 73.4145 44.9881H73.4114ZM62.2402 29.5409C61.0851 28.8733 59.9024 28.2209 58.7258 27.5962C57.8281 27.1215 56.7159 27.4614 56.241 28.3587C55.7661 29.2561 56.1062 30.3678 57.0039 30.8424C58.1406 31.4458 59.2835 32.0766 60.4018 32.7228C71.1012 38.8968 80.0908 46.501 85.7132 54.1297C90.9464 61.2316 92.6071 67.62 90.2724 71.6625C87.9009 75.7663 81.4022 77.5088 72.4432 76.4431C71.4351 76.3236 70.519 77.0433 70.3995 78.0509C70.28 79.0584 71.0001 79.9741 72.0081 80.0936C73.8986 80.3171 75.691 80.4304 77.3823 80.4304C85.2168 80.4304 90.8331 78.0417 93.4558 73.5031C99.7584 62.5914 86.0472 43.2793 62.2402 29.5439V29.5409ZM57.3808 72.6854C56.4279 72.3393 55.3708 72.8324 55.0246 73.7848C54.6783 74.7373 55.1716 75.7938 56.1245 76.1399C58.0947 76.8565 60.0679 77.4935 61.989 78.0356C62.1575 78.0815 62.326 78.106 62.4914 78.106C63.2942 78.106 64.0296 77.5762 64.2594 76.7677C64.5351 75.7907 63.9683 74.7771 62.9909 74.4984C61.1556 73.9778 59.2682 73.3683 57.3808 72.6823V72.6854ZM39.7599 68.4591C40.915 69.1267 42.0977 69.7791 43.2743 70.4038C43.55 70.5478 43.8442 70.6182 44.1322 70.6182C44.791 70.6182 45.4283 70.2629 45.7592 69.6413C46.2341 68.7439 45.894 67.6322 44.9962 67.1576C43.8595 66.5543 42.7166 65.9234 41.5983 65.2772C30.899 59.1032 21.9093 51.499 16.2869 43.8703C11.0537 36.7684 9.39302 30.38 11.7278 26.3375C14.0993 22.2338 20.5979 20.4912 29.5569 21.5569C30.568 21.6794 31.4811 20.9567 31.6006 19.9491C31.7201 18.9416 31.0001 18.0259 29.992 17.9064C19.3478 16.6386 11.7308 18.9814 8.5443 24.4969C2.24174 35.4086 15.953 54.7208 39.7599 68.4561V68.4591ZM65.681 66.3919C66.542 65.8529 66.8024 64.7198 66.2632 63.8593C65.7239 62.9987 64.5903 62.7384 63.7293 63.2774C62.6416 63.9572 61.5232 64.631 60.4018 65.2772C49.7025 71.4512 38.6201 75.4324 29.1985 76.4829C20.4294 77.4598 14.0625 75.705 11.7278 71.6625C9.35625 67.5588 11.0966 61.0632 16.5014 53.8388C17.1081 53.0272 16.9426 51.8757 16.1307 51.2663C15.3187 50.6568 14.1667 50.8253 13.5569 51.6368C7.13794 60.2179 5.35778 67.9814 8.5443 73.5C11.164 78.0356 16.7894 80.4274 24.6301 80.4274C26.2019 80.4274 27.8656 80.3324 29.609 80.1364C39.524 79.0309 51.1119 74.8843 62.2433 68.4622C63.4014 67.7946 64.5596 67.0963 65.6841 66.3919H65.681ZM24.9212 39.8646C23.3157 41.2121 21.7775 42.6024 20.3436 43.9928C19.6144 44.7002 19.5991 45.864 20.3068 46.5898C20.6684 46.9604 21.1464 47.1472 21.6243 47.1472C22.1023 47.1472 22.5497 46.9757 22.9051 46.6266C24.2716 45.2974 25.7454 43.9683 27.2835 42.6759C28.0617 42.0236 28.1598 40.8629 27.5072 40.0881C26.8545 39.3102 25.6933 39.2092 24.9181 39.8646H24.9212ZM36.3191 31.6081C35.4581 32.1471 35.1977 33.2802 35.7369 34.1408C36.2762 35.0013 37.4099 35.2616 38.2708 34.7226C39.3585 34.0428 40.4769 33.369 41.5983 32.7228C52.2976 26.5488 63.38 22.5676 72.8017 21.5171C81.5707 20.5371 87.9376 22.295 90.2724 26.3375C92.6439 30.4412 90.9035 36.9368 85.4987 44.1613C84.8921 44.9728 85.0575 46.1243 85.8695 46.7338C86.2004 46.9818 86.5864 47.1013 86.9694 47.1013C87.5301 47.1013 88.0816 46.8471 88.4432 46.3632C94.8622 37.7851 96.6423 30.0217 93.4558 24.5031C90.3122 19.0579 82.83 16.7029 72.3911 17.8666C62.4761 18.9722 50.8882 23.1188 39.7569 29.5409C38.5987 30.2085 37.4405 30.9068 36.316 31.6111L36.3191 31.6081ZM60.9503 57.8445V40.1586C60.9503 39.1449 60.1261 38.3211 59.1119 38.3211C58.0977 38.3211 57.2735 39.1449 57.2735 40.1586V57.8445C57.2735 58.8582 58.0977 59.682 59.1119 59.682C60.1261 59.682 60.9503 58.8582 60.9503 57.8445ZM45.8388 38.318C43.3478 38.318 40.9855 40.278 40.4646 42.7801L38.6324 51.5694C38.6324 51.5694 38.6324 51.5786 38.6324 51.5848L37.4068 57.4678C37.1985 58.4601 37.8388 59.4339 38.8315 59.6422C38.9572 59.6698 39.0828 59.682 39.2084 59.682C40.0602 59.682 40.8262 59.0848 41.007 58.2181L41.9323 53.7867H49.2031L49.9292 58.1477C50.0947 59.1491 51.0445 59.8259 52.0433 59.6575C53.0453 59.4891 53.7224 58.5427 53.5539 57.5444L51.1088 42.8781C50.6829 40.3239 48.3697 38.3211 45.8419 38.3211L45.8388 38.318ZM42.6952 50.1086L44.0679 43.5273C44.2333 42.7372 45.0943 41.993 45.8419 41.993C46.5895 41.993 47.3524 42.7004 47.4811 43.4783L48.5872 50.1086H42.6952Z" fill="white"/>
</g>
<defs>
<clipPath id="clip0_2527_1385">
<rect width="88" height="98" fill="white" transform="translate(7)"/>
</clipPath>
</defs>
</svg>
