<svg width="102" height="101" viewBox="0 0 102 101" fill="none" xmlns="http://www.w3.org/2000/svg">
<g clip-path="url(#clip0_2527_242)">
<path fill-rule="evenodd" clip-rule="evenodd" d="M5.14909 66H40.7981C41.7609 66 42.5412 66.7904 42.5412 67.7656V87.5786C42.5412 88.5539 41.7609 89.3442 40.7981 89.3442H5.14909C4.18625 89.3442 3.40596 88.5539 3.40596 87.5786V67.7656C3.40596 66.7904 4.18625 66 5.14909 66ZM5.66722 86.0646C5.66722 86.6103 6.10437 87.0531 6.6431 87.0531H39.3041C39.8428 87.0531 40.2799 86.6103 40.2799 86.0646V69.3324C40.2799 68.7589 39.8167 68.2897 39.2505 68.2897H6.69594C6.12977 68.2897 5.66653 68.7589 5.66653 69.3324V86.0646H5.66722Z" fill="white"/>
<path fill-rule="evenodd" clip-rule="evenodd" d="M0.072052 98.4921L3.16576 90.9466C3.31125 90.5921 3.65301 90.3606 4.03252 90.3606H41.9675C42.347 90.3606 42.6887 90.5921 42.8342 90.9466L45.9279 98.4921C46.2724 99.7531 45.3364 100.999 44.0448 100.999H1.95586C0.664307 100.999 -0.271767 99.7531 0.0727386 98.4921H0.072052ZM14.4103 98.6158H31.5897C31.777 98.6158 31.893 98.4101 31.7983 98.2467L30.6879 96.3358C30.6447 96.2608 30.5651 96.2149 30.4793 96.2149H15.5207C15.4349 96.2149 15.356 96.2608 15.3121 96.3358L14.2017 98.2467C14.107 98.4101 14.2229 98.6158 14.4103 98.6158Z" fill="white"/>
</g>
<g clip-path="url(#clip1_2527_242)">
<path fill-rule="evenodd" clip-rule="evenodd" d="M61.1491 66H96.7981C97.7609 66 98.5412 66.7904 98.5412 67.7656V87.5786C98.5412 88.5539 97.7609 89.3442 96.7981 89.3442H61.1491C60.1862 89.3442 59.406 88.5539 59.406 87.5786V67.7656C59.406 66.7904 60.1862 66 61.1491 66ZM61.6672 86.0646C61.6672 86.6103 62.1044 87.0531 62.6431 87.0531H95.3041C95.8428 87.0531 96.2799 86.6103 96.2799 86.0646V69.3324C96.2799 68.7589 95.8167 68.2897 95.2505 68.2897H62.6959C62.1298 68.2897 61.6665 68.7589 61.6665 69.3324V86.0646H61.6672Z" fill="white"/>
<path fill-rule="evenodd" clip-rule="evenodd" d="M56.0721 98.4921L59.1658 90.9466C59.3112 90.5921 59.653 90.3606 60.0325 90.3606H97.9675C98.347 90.3606 98.6887 90.5921 98.8342 90.9466L101.928 98.4921C102.272 99.7531 101.336 100.999 100.045 100.999H57.9559C56.6643 100.999 55.7282 99.7531 56.0727 98.4921H56.0721ZM70.4103 98.6158H87.5897C87.777 98.6158 87.893 98.4101 87.7983 98.2467L86.6879 96.3358C86.6447 96.2608 86.5651 96.2149 86.4793 96.2149H71.5207C71.4349 96.2149 71.356 96.2608 71.3121 96.3358L70.2017 98.2467C70.107 98.4101 70.2229 98.6158 70.4103 98.6158Z" fill="white"/>
</g>
<path d="M78 61V49H50.5H23V61" stroke="white" stroke-width="2"/>
<g clip-path="url(#clip2_2527_242)">
<path d="M76.0248 0H25.9752C24.3319 0 23 1.26384 23 2.82324V11.1768C23 12.7362 24.3319 14 25.9752 14H76.0248C77.6681 14 79 12.7362 79 11.1768V2.82324C79 1.26384 77.6681 0 76.0248 0ZM61.5687 7.67932H53.9847C53.5944 7.67932 53.2778 7.37891 53.2778 7.00851C53.2778 6.6381 53.5944 6.3377 53.9847 6.3377H61.5687C61.9591 6.3377 62.2757 6.6381 62.2757 7.00851C62.2757 7.37891 61.9591 7.67932 61.5687 7.67932ZM66.1243 8.53241C65.2324 8.53241 64.5091 7.84605 64.5091 6.99976C64.5091 6.15347 65.2324 5.4671 66.1243 5.4671C67.0161 5.4671 67.7395 6.15347 67.7395 6.99976C67.7395 7.84605 67.0161 8.53241 66.1243 8.53241ZM71.5804 8.53241C70.6885 8.53241 69.9652 7.84605 69.9652 6.99976C69.9652 6.15347 70.6885 5.4671 71.5804 5.4671C72.4722 5.4671 73.1956 6.15347 73.1956 6.99976C73.1956 7.84605 72.4722 8.53241 71.5804 8.53241Z" fill="white"/>
</g>
<path d="M76.0248 20H25.9752C24.3319 20 23 21.2638 23 22.8232V31.1768C23 32.7362 24.3319 34 25.9752 34H76.0248C77.6681 34 79 32.7362 79 31.1768V22.8232C79 21.2638 77.6681 20 76.0248 20ZM61.5687 27.6793H53.9847C53.5944 27.6793 53.2778 27.3789 53.2778 27.0085C53.2778 26.6381 53.5944 26.3377 53.9847 26.3377H61.5687C61.9591 26.3377 62.2757 26.6381 62.2757 27.0085C62.2757 27.3789 61.9591 27.6793 61.5687 27.6793ZM66.1243 28.5324C65.2324 28.5324 64.5091 27.846 64.5091 26.9998C64.5091 26.1535 65.2324 25.4671 66.1243 25.4671C67.0161 25.4671 67.7395 26.1535 67.7395 26.9998C67.7395 27.846 67.0161 28.5324 66.1243 28.5324ZM71.5804 28.5324C70.6885 28.5324 69.9652 27.846 69.9652 26.9998C69.9652 26.1535 70.6885 25.4671 71.5804 25.4671C72.4722 25.4671 73.1956 26.1535 73.1956 26.9998C73.1956 27.846 72.4722 28.5324 71.5804 28.5324Z" fill="white"/>
<path d="M51 38V49" stroke="white" stroke-width="2"/>
<defs>
<clipPath id="clip0_2527_242">
<rect width="46" height="35" fill="white" transform="matrix(-1 0 0 1 46 66)"/>
</clipPath>
<clipPath id="clip1_2527_242">
<rect width="46" height="35" fill="white" transform="matrix(-1 0 0 1 102 66)"/>
</clipPath>
<clipPath id="clip2_2527_242">
<rect width="56" height="14" fill="white" transform="translate(23)"/>
</clipPath>
</defs>
</svg>
