<svg width="100" height="100" viewBox="0 0 100 100" fill="none" xmlns="http://www.w3.org/2000/svg">
<g clip-path="url(#clip0_2527_699)">
<path fill-rule="evenodd" clip-rule="evenodd" d="M84.1754 62.5792C84.1754 63.4044 84.177 64.228 84.1721 65.0532C84.1688 65.7475 84.1605 66.4418 84.1406 67.1361C84.1008 68.6473 84.0097 70.1734 83.7412 71.6698C83.4695 73.1893 83.0221 74.6027 82.3195 75.983C81.6285 77.3385 80.7271 78.578 79.6517 79.6534C78.5762 80.7288 77.3351 81.6302 75.978 82.3212C74.5993 83.0238 73.1875 83.4696 71.668 83.743C70.1717 84.0114 68.6456 84.1009 67.1327 84.1423C66.4384 84.1622 65.7441 84.1688 65.0498 84.1738C64.2246 84.1771 63.401 84.1771 62.5758 84.1771H36.7276C35.9024 84.1771 35.0788 84.1788 34.2536 84.1738C33.5593 84.1705 32.865 84.1622 32.1707 84.1423C30.6578 84.1026 29.13 84.0114 27.6354 83.743C26.1175 83.4679 24.7041 83.0238 23.3254 82.3212C21.97 81.6302 20.7288 80.7288 19.6518 79.6534C18.5763 78.578 17.6749 77.3385 16.9839 75.983C16.2813 74.6027 15.8356 73.1893 15.5622 71.6698C15.2937 70.1734 15.2042 68.649 15.1628 67.1361C15.1429 66.4418 15.1363 65.7475 15.1313 65.0532C15.128 64.228 15.128 63.4044 15.128 62.5792V36.731C15.128 35.9058 15.128 35.0822 15.1313 34.2587C15.1346 33.5644 15.1429 32.8701 15.1628 32.1758C15.2026 30.6645 15.2937 29.1384 15.5622 27.6421C15.8339 26.1226 16.2813 24.7091 16.9839 23.3288C17.6749 21.9733 18.5763 20.7339 19.6518 19.6584C20.7272 18.583 21.9683 17.6816 23.3254 16.9906C24.7041 16.288 26.1159 15.8423 27.6354 15.5689C29.1317 15.2988 30.6578 15.2109 32.1707 15.1679C32.865 15.148 33.5593 15.1413 34.2536 15.1364C35.0788 15.1331 35.9024 15.1331 36.7276 15.1331H62.5775C63.4027 15.1331 64.2262 15.1331 65.0514 15.1364C65.7457 15.1397 66.4401 15.148 67.1344 15.1679C68.6472 15.2076 70.175 15.2988 71.6697 15.5672C73.1875 15.8423 74.601 16.2864 75.9796 16.9889C77.3351 17.6799 78.5762 18.5814 79.6533 19.6568C80.7287 20.7322 81.6302 21.9717 82.3212 23.3271C83.0238 24.7075 83.4695 26.1209 83.7429 27.6404C84.0113 29.1367 84.1008 30.6612 84.1423 32.1741C84.1621 32.8684 84.1688 33.5627 84.1721 34.257C84.1754 35.0822 84.1754 35.9058 84.1754 36.731H84.1737V62.5792H84.1754Z" fill="white"/>
<path fill-rule="evenodd" clip-rule="evenodd" d="M34.8203 3.48061C34.8203 3.42924 34.8203 3.37953 34.8203 3.32816C34.8203 3.28508 34.8203 3.24366 34.8187 3.20057C34.817 3.10778 34.8104 3.01333 34.7938 2.92219C34.7773 2.82939 34.7491 2.74157 34.706 2.65706C34.6629 2.57421 34.6082 2.49799 34.542 2.4317C34.4757 2.36542 34.3995 2.31074 34.3166 2.26766C34.2321 2.22457 34.1459 2.19806 34.0515 2.17983C33.9603 2.16326 33.8659 2.15829 33.7731 2.15498C33.73 2.15498 33.6886 2.15498 33.6455 2.15332C33.5941 2.15332 33.5444 2.15332 33.493 2.15332H31.9056C31.8542 2.15332 31.8045 2.15332 31.7532 2.15332C31.7101 2.15332 31.6686 2.15332 31.6256 2.15498C31.5328 2.15829 31.4383 2.16326 31.3472 2.17983C31.2544 2.1964 31.1666 2.22457 31.0821 2.26766C30.9992 2.31074 30.923 2.36542 30.8567 2.4317C30.7904 2.49799 30.7357 2.57421 30.6926 2.65706C30.6496 2.74157 30.6214 2.82939 30.6048 2.92219C30.5883 3.01333 30.5833 3.10778 30.58 3.20057C30.58 3.24366 30.58 3.28508 30.5783 3.32816C30.5783 3.37788 30.5783 3.42924 30.5783 3.48061V9.9348C30.5783 9.98617 30.5783 10.0359 30.5783 10.0872C30.5783 10.1303 30.5783 10.1718 30.58 10.2148C30.5816 10.3076 30.5883 10.4021 30.6048 10.4932C30.6214 10.586 30.6496 10.6738 30.6926 10.7584C30.7357 10.8412 30.7904 10.9174 30.8567 10.9837C30.923 11.05 30.9992 11.1047 31.0821 11.1478C31.1666 11.1908 31.2527 11.2174 31.3472 11.2356C31.4383 11.2521 31.5328 11.2571 31.6256 11.2604C31.6686 11.2604 31.7101 11.2604 31.7532 11.2621C31.8045 11.2621 31.8542 11.2621 31.9056 11.2621H33.4914C33.5428 11.2621 33.5925 11.2621 33.6438 11.2621C33.6869 11.2621 33.7283 11.2621 33.7714 11.2604C33.8642 11.2571 33.9587 11.2521 34.0498 11.2356C34.1426 11.219 34.2304 11.1908 34.3149 11.1478C34.3978 11.1047 34.474 11.05 34.5403 10.9837C34.6066 10.9174 34.6613 10.8412 34.7043 10.7584C34.7474 10.6738 34.7756 10.586 34.7922 10.4932C34.8087 10.4021 34.8137 10.3076 34.817 10.2148C34.817 10.1718 34.817 10.1303 34.8187 10.0872C34.8187 10.0359 34.8187 9.98617 34.8187 9.9348V3.48061H34.8203Z" fill="white"/>
<path fill-rule="evenodd" clip-rule="evenodd" d="M43.2978 3.48061C43.2978 3.42924 43.2978 3.37953 43.2978 3.32816C43.2978 3.28508 43.2978 3.24366 43.2961 3.20057C43.2945 3.10778 43.2878 3.01333 43.2713 2.92219C43.2547 2.82939 43.2265 2.74157 43.1835 2.65706C43.1404 2.57421 43.0857 2.49799 43.0194 2.4317C42.9531 2.36542 42.8769 2.31074 42.794 2.26766C42.7095 2.22457 42.6234 2.19806 42.5289 2.17983C42.4378 2.16326 42.3433 2.15829 42.2505 2.15498C42.2075 2.15498 42.166 2.15498 42.1229 2.15332C42.0716 2.15332 42.0219 2.15332 41.9705 2.15332H40.383C40.3317 2.15332 40.282 2.15332 40.2306 2.15332C40.1875 2.15332 40.1461 2.15332 40.103 2.15498C40.0102 2.15829 39.9158 2.16326 39.8246 2.17983C39.7318 2.1964 39.644 2.22457 39.5595 2.26766C39.4766 2.31074 39.4004 2.36542 39.3341 2.4317C39.2679 2.49799 39.2132 2.57421 39.1701 2.65706C39.127 2.74157 39.0988 2.82939 39.0823 2.92219C39.0657 3.01333 39.0607 3.10778 39.0574 3.20057C39.0574 3.24366 39.0574 3.28508 39.0558 3.32816C39.0558 3.37788 39.0558 3.42924 39.0558 3.48061V9.9348C39.0558 9.98617 39.0558 10.0359 39.0558 10.0872C39.0558 10.1303 39.0558 10.1718 39.0574 10.2148C39.0591 10.3076 39.0657 10.4021 39.0823 10.4932C39.0988 10.586 39.127 10.6738 39.1701 10.7584C39.2132 10.8412 39.2679 10.9174 39.3341 10.9837C39.4004 11.05 39.4766 11.1047 39.5595 11.1478C39.644 11.1908 39.7302 11.2174 39.8246 11.2356C39.9158 11.2521 40.0102 11.2571 40.103 11.2604C40.1461 11.2604 40.1875 11.2604 40.2306 11.2621C40.282 11.2621 40.3317 11.2621 40.383 11.2621H41.9688C42.0202 11.2621 42.0699 11.2621 42.1213 11.2621C42.1644 11.2621 42.2058 11.2621 42.2489 11.2604C42.3417 11.2571 42.4361 11.2521 42.5273 11.2356C42.6201 11.219 42.7079 11.1908 42.7924 11.1478C42.8752 11.1047 42.9515 11.05 43.0177 10.9837C43.084 10.9174 43.1387 10.8412 43.1818 10.7584C43.2249 10.6738 43.253 10.586 43.2696 10.4932C43.2862 10.4021 43.2912 10.3076 43.2945 10.2148C43.2945 10.1718 43.2945 10.1303 43.2961 10.0872C43.2961 10.0359 43.2961 9.98617 43.2961 9.9348V3.48061H43.2978Z" fill="white"/>
<path fill-rule="evenodd" clip-rule="evenodd" d="M51.7736 3.48061C51.7736 3.42924 51.7736 3.37953 51.7736 3.32816C51.7736 3.28508 51.7736 3.24366 51.7719 3.20057C51.7702 3.10778 51.7636 3.01333 51.747 2.92219C51.7305 2.82939 51.7023 2.74157 51.6592 2.65706C51.6161 2.57421 51.5615 2.49799 51.4952 2.4317C51.4289 2.36542 51.3527 2.31074 51.2698 2.26766C51.1853 2.22457 51.0991 2.19806 51.0047 2.17983C50.9136 2.16326 50.8191 2.15829 50.7263 2.15498C50.6832 2.15498 50.6418 2.15498 50.5987 2.15332C50.5473 2.15332 50.4976 2.15332 50.4463 2.15332H48.8588C48.8075 2.15332 48.7577 2.15332 48.7064 2.15332C48.6633 2.15332 48.6219 2.15332 48.5788 2.15498C48.486 2.15829 48.3915 2.16326 48.3004 2.17983C48.2076 2.1964 48.1198 2.22457 48.0353 2.26766C47.9524 2.31074 47.8762 2.36542 47.8099 2.4317C47.7436 2.49799 47.6889 2.57421 47.6459 2.65706C47.6028 2.74157 47.5746 2.82939 47.558 2.92219C47.5415 3.01333 47.5365 3.10778 47.5332 3.20057C47.5332 3.24366 47.5332 3.28508 47.5315 3.32816C47.5315 3.37788 47.5315 3.42924 47.5315 3.48061V9.9348C47.5315 9.98617 47.5315 10.0359 47.5315 10.0872C47.5315 10.1303 47.5315 10.1718 47.5332 10.2148C47.5348 10.3076 47.5415 10.4021 47.558 10.4932C47.5746 10.586 47.6028 10.6738 47.6459 10.7584C47.6889 10.8412 47.7436 10.9174 47.8099 10.9837C47.8762 11.05 47.9524 11.1047 48.0353 11.1478C48.1198 11.1908 48.2059 11.2174 48.3004 11.2356C48.3915 11.2521 48.486 11.2571 48.5788 11.2604C48.6219 11.2604 48.6633 11.2604 48.7064 11.2621C48.7577 11.2621 48.8075 11.2621 48.8588 11.2621H50.4446C50.496 11.2621 50.5457 11.2621 50.5971 11.2621C50.6401 11.2621 50.6816 11.2621 50.7246 11.2604C50.8174 11.2571 50.9119 11.2521 51.003 11.2356C51.0958 11.219 51.1837 11.1908 51.2682 11.1478C51.351 11.1047 51.4272 11.05 51.4935 10.9837C51.5598 10.9174 51.6145 10.8412 51.6576 10.7584C51.7006 10.6738 51.7288 10.586 51.7454 10.4932C51.762 10.4021 51.7669 10.3076 51.7702 10.2148C51.7702 10.1718 51.7702 10.1303 51.7719 10.0872C51.7719 10.0359 51.7719 9.98617 51.7719 9.9348V3.48061H51.7736Z" fill="white"/>
<path fill-rule="evenodd" clip-rule="evenodd" d="M60.2493 3.48061C60.2493 3.42924 60.2493 3.37953 60.2493 3.32816C60.2493 3.28508 60.2493 3.24366 60.2477 3.20057C60.246 3.10778 60.2394 3.01333 60.2228 2.92219C60.2062 2.82939 60.1781 2.74157 60.135 2.65706C60.0919 2.57421 60.0372 2.49799 59.9709 2.4317C59.9047 2.36542 59.8284 2.31074 59.7456 2.26766C59.6611 2.22457 59.5749 2.19806 59.4805 2.17983C59.3893 2.16326 59.2949 2.15829 59.2021 2.15498C59.159 2.15498 59.1176 2.15498 59.0745 2.15332C59.0231 2.15332 58.9734 2.15332 58.922 2.15332H57.3346C57.2832 2.15332 57.2335 2.15332 57.1821 2.15332C57.1391 2.15332 57.0976 2.15332 57.0545 2.15498C56.9618 2.15829 56.8673 2.16326 56.7762 2.17983C56.6834 2.1964 56.5955 2.22457 56.511 2.26766C56.4282 2.31074 56.352 2.36542 56.2857 2.4317C56.2194 2.49799 56.1647 2.57421 56.1216 2.65706C56.0785 2.74157 56.0504 2.82939 56.0338 2.92219C56.0172 3.01333 56.0123 3.10778 56.009 3.20057C56.009 3.24366 56.009 3.28508 56.0073 3.32816C56.0073 3.37788 56.0073 3.42924 56.0073 3.48061V9.9348C56.0073 9.98617 56.0073 10.0359 56.0073 10.0872C56.0073 10.1303 56.0073 10.1718 56.009 10.2148C56.0106 10.3076 56.0172 10.4021 56.0338 10.4932C56.0504 10.586 56.0785 10.6738 56.1216 10.7584C56.1647 10.8412 56.2194 10.9174 56.2857 10.9837C56.352 11.05 56.4282 11.1047 56.511 11.1478C56.5955 11.1908 56.6817 11.2174 56.7762 11.2356C56.8673 11.2521 56.9618 11.2571 57.0545 11.2604C57.0976 11.2604 57.1391 11.2604 57.1821 11.2621C57.2335 11.2621 57.2832 11.2621 57.3346 11.2621H58.9204C58.9717 11.2621 59.0215 11.2621 59.0728 11.2621C59.1159 11.2621 59.1573 11.2621 59.2004 11.2604C59.2932 11.2571 59.3877 11.2521 59.4788 11.2356C59.5716 11.219 59.6594 11.1908 59.7439 11.1478C59.8268 11.1047 59.903 11.05 59.9693 10.9837C60.0356 10.9174 60.0903 10.8412 60.1333 10.7584C60.1764 10.6738 60.2046 10.586 60.2212 10.4932C60.2377 10.4021 60.2427 10.3076 60.246 10.2148C60.246 10.1718 60.246 10.1303 60.2477 10.0872C60.2477 10.0359 60.2477 9.98617 60.2477 9.9348V3.48061H60.2493Z" fill="white"/>
<path fill-rule="evenodd" clip-rule="evenodd" d="M68.7268 3.48061C68.7268 3.42924 68.7268 3.37953 68.7268 3.32816C68.7268 3.28508 68.7268 3.24366 68.7251 3.20057C68.7235 3.10778 68.7168 3.01333 68.7003 2.92219C68.6837 2.82939 68.6555 2.74157 68.6124 2.65706C68.5694 2.57421 68.5147 2.49799 68.4484 2.4317C68.3821 2.36542 68.3059 2.31074 68.223 2.26766C68.1385 2.22457 68.0524 2.19806 67.9579 2.17983C67.8668 2.16326 67.7723 2.15829 67.6795 2.15498C67.6364 2.15498 67.595 2.15498 67.5519 2.15332C67.5006 2.15332 67.4508 2.15332 67.3995 2.15332H65.812C65.7607 2.15332 65.711 2.15332 65.6596 2.15332C65.6165 2.15332 65.5751 2.15332 65.532 2.15498C65.4392 2.15829 65.3447 2.16326 65.2536 2.17983C65.1608 2.1964 65.073 2.22457 64.9885 2.26766C64.9056 2.31074 64.8294 2.36542 64.7631 2.4317C64.6968 2.49799 64.6422 2.57421 64.5991 2.65706C64.556 2.74157 64.5278 2.82939 64.5113 2.92219C64.4947 3.01333 64.4897 3.10778 64.4864 3.20057C64.4864 3.24366 64.4864 3.28508 64.4847 3.32816C64.4847 3.37788 64.4847 3.42924 64.4847 3.48061V9.9348C64.4847 9.98617 64.4847 10.0359 64.4847 10.0872C64.4847 10.1303 64.4847 10.1718 64.4864 10.2148C64.4881 10.3076 64.4947 10.4021 64.5113 10.4932C64.5278 10.586 64.556 10.6738 64.5991 10.7584C64.6422 10.8412 64.6968 10.9174 64.7631 10.9837C64.8294 11.05 64.9056 11.1047 64.9885 11.1478C65.073 11.1908 65.1592 11.2174 65.2536 11.2356C65.3447 11.2521 65.4392 11.2571 65.532 11.2604C65.5751 11.2604 65.6165 11.2604 65.6596 11.2621C65.711 11.2621 65.7607 11.2621 65.812 11.2621H67.3978C67.4492 11.2621 67.4989 11.2621 67.5503 11.2621C67.5934 11.2621 67.6348 11.2621 67.6779 11.2604C67.7707 11.2571 67.8651 11.2521 67.9563 11.2356C68.049 11.219 68.1369 11.1908 68.2214 11.1478C68.3042 11.1047 68.3805 11.05 68.4467 10.9837C68.513 10.9174 68.5677 10.8412 68.6108 10.7584C68.6539 10.6738 68.682 10.586 68.6986 10.4932C68.7152 10.4021 68.7201 10.3076 68.7235 10.2148C68.7235 10.1718 68.7235 10.1303 68.7251 10.0872C68.7251 10.0359 68.7251 9.98617 68.7251 9.9348V3.48061H68.7268Z" fill="white"/>
<path fill-rule="evenodd" clip-rule="evenodd" d="M34.8203 89.3751C34.8203 89.3238 34.8203 89.2741 34.8203 89.2227C34.8203 89.1796 34.8203 89.1382 34.8187 89.0951C34.817 89.0023 34.8104 88.9079 34.7938 88.8167C34.7773 88.7239 34.7491 88.6361 34.706 88.5516C34.6629 88.4687 34.6082 88.3925 34.542 88.3262C34.4757 88.26 34.3995 88.2053 34.3166 88.1622C34.2321 88.1191 34.1459 88.0926 34.0515 88.0744C33.9603 88.0578 33.8659 88.0528 33.7731 88.0495C33.73 88.0495 33.6886 88.0479 33.6455 88.0479C33.5941 88.0479 33.5444 88.0479 33.493 88.0479H31.9056C31.8542 88.0479 31.8045 88.0479 31.7532 88.0479C31.7101 88.0479 31.6686 88.0479 31.6256 88.0495C31.5328 88.0528 31.4383 88.0578 31.3472 88.0744C31.2544 88.0909 31.1666 88.1191 31.0821 88.1622C30.9992 88.2053 30.923 88.26 30.8567 88.3262C30.7904 88.3925 30.7357 88.4687 30.6926 88.5516C30.6496 88.6361 30.6214 88.7239 30.6048 88.8167C30.5883 88.9079 30.5833 89.0023 30.58 89.0951C30.58 89.1382 30.58 89.1796 30.5783 89.2227C30.5783 89.2724 30.5783 89.3238 30.5783 89.3751V95.8293C30.5783 95.8807 30.5783 95.9304 30.5783 95.9818C30.5783 96.0249 30.5783 96.0663 30.58 96.1094C30.5816 96.2022 30.5883 96.2966 30.6048 96.3878C30.6214 96.4806 30.6496 96.5684 30.6926 96.6529C30.7357 96.7357 30.7904 96.812 30.8567 96.8782C30.923 96.9445 30.9992 96.9992 31.0821 97.0423C31.1666 97.0854 31.2527 97.1119 31.3472 97.1301C31.4383 97.1467 31.5328 97.1517 31.6256 97.155C31.6686 97.155 31.7101 97.155 31.7532 97.1566C31.8045 97.1566 31.8542 97.1566 31.9056 97.1566H33.4914C33.5428 97.1566 33.5925 97.1566 33.6438 97.1566C33.6869 97.1566 33.7283 97.1566 33.7714 97.155C33.8642 97.1533 33.9587 97.1467 34.0498 97.1301C34.1426 97.1135 34.2304 97.0854 34.3149 97.0423C34.3978 96.9992 34.474 96.9445 34.5403 96.8782C34.6066 96.812 34.6613 96.7357 34.7043 96.6529C34.7474 96.5684 34.7756 96.4806 34.7922 96.3878C34.8087 96.2966 34.8137 96.2022 34.817 96.1094C34.817 96.0663 34.817 96.0249 34.8187 95.9818C34.8187 95.9304 34.8187 95.8807 34.8187 95.8293V89.3751H34.8203Z" fill="white"/>
<path fill-rule="evenodd" clip-rule="evenodd" d="M43.2978 89.3751C43.2978 89.3238 43.2978 89.2741 43.2978 89.2227C43.2978 89.1796 43.2978 89.1382 43.2961 89.0951C43.2945 89.0023 43.2878 88.9079 43.2713 88.8167C43.2547 88.7239 43.2265 88.6361 43.1835 88.5516C43.1404 88.4687 43.0857 88.3925 43.0194 88.3262C42.9531 88.26 42.8769 88.2053 42.794 88.1622C42.7095 88.1191 42.6234 88.0926 42.5289 88.0744C42.4378 88.0578 42.3433 88.0528 42.2505 88.0495C42.2075 88.0495 42.166 88.0479 42.1229 88.0479C42.0716 88.0479 42.0219 88.0479 41.9705 88.0479H40.383C40.3317 88.0479 40.282 88.0479 40.2306 88.0479C40.1875 88.0479 40.1461 88.0479 40.103 88.0495C40.0102 88.0528 39.9158 88.0578 39.8246 88.0744C39.7318 88.0909 39.644 88.1191 39.5595 88.1622C39.4766 88.2053 39.4004 88.26 39.3341 88.3262C39.2679 88.3925 39.2132 88.4687 39.1701 88.5516C39.127 88.6361 39.0988 88.7239 39.0823 88.8167C39.0657 88.9079 39.0607 89.0023 39.0574 89.0951C39.0574 89.1382 39.0574 89.1796 39.0558 89.2227C39.0558 89.2724 39.0558 89.3238 39.0558 89.3751V95.8293C39.0558 95.8807 39.0558 95.9304 39.0558 95.9818C39.0558 96.0249 39.0558 96.0663 39.0574 96.1094C39.0591 96.2022 39.0657 96.2966 39.0823 96.3878C39.0988 96.4806 39.127 96.5684 39.1701 96.6529C39.2132 96.7357 39.2679 96.812 39.3341 96.8782C39.4004 96.9445 39.4766 96.9992 39.5595 97.0423C39.644 97.0854 39.7302 97.1119 39.8246 97.1301C39.9158 97.1467 40.0102 97.1517 40.103 97.155C40.1461 97.155 40.1875 97.155 40.2306 97.1566C40.282 97.1566 40.3317 97.1566 40.383 97.1566H41.9688C42.0202 97.1566 42.0699 97.1566 42.1213 97.1566C42.1644 97.1566 42.2058 97.1566 42.2489 97.155C42.3417 97.1533 42.4361 97.1467 42.5273 97.1301C42.6201 97.1135 42.7079 97.0854 42.7924 97.0423C42.8752 96.9992 42.9515 96.9445 43.0177 96.8782C43.084 96.812 43.1387 96.7357 43.1818 96.6529C43.2249 96.5684 43.253 96.4806 43.2696 96.3878C43.2862 96.2966 43.2912 96.2022 43.2945 96.1094C43.2945 96.0663 43.2945 96.0249 43.2961 95.9818C43.2961 95.9304 43.2961 95.8807 43.2961 95.8293V89.3751H43.2978Z" fill="white"/>
<path fill-rule="evenodd" clip-rule="evenodd" d="M51.7736 89.3751C51.7736 89.3238 51.7736 89.2741 51.7736 89.2227C51.7736 89.1796 51.7736 89.1382 51.7719 89.0951C51.7702 89.0023 51.7636 88.9079 51.747 88.8167C51.7305 88.7239 51.7023 88.6361 51.6592 88.5516C51.6161 88.4687 51.5615 88.3925 51.4952 88.3262C51.4289 88.26 51.3527 88.2053 51.2698 88.1622C51.1853 88.1191 51.0991 88.0926 51.0047 88.0744C50.9136 88.0578 50.8191 88.0528 50.7263 88.0495C50.6832 88.0495 50.6418 88.0479 50.5987 88.0479C50.5473 88.0479 50.4976 88.0479 50.4463 88.0479H48.8588C48.8075 88.0479 48.7577 88.0479 48.7064 88.0479C48.6633 88.0479 48.6219 88.0479 48.5788 88.0495C48.486 88.0528 48.3915 88.0578 48.3004 88.0744C48.2076 88.0909 48.1198 88.1191 48.0353 88.1622C47.9524 88.2053 47.8762 88.26 47.8099 88.3262C47.7436 88.3925 47.6889 88.4687 47.6459 88.5516C47.6028 88.6361 47.5746 88.7239 47.558 88.8167C47.5415 88.9079 47.5365 89.0023 47.5332 89.0951C47.5332 89.1382 47.5332 89.1796 47.5315 89.2227C47.5315 89.2724 47.5315 89.3238 47.5315 89.3751V95.8293C47.5315 95.8807 47.5315 95.9304 47.5315 95.9818C47.5315 96.0249 47.5315 96.0663 47.5332 96.1094C47.5348 96.2022 47.5415 96.2966 47.558 96.3878C47.5746 96.4806 47.6028 96.5684 47.6459 96.6529C47.6889 96.7357 47.7436 96.812 47.8099 96.8782C47.8762 96.9445 47.9524 96.9992 48.0353 97.0423C48.1198 97.0854 48.2059 97.1119 48.3004 97.1301C48.3915 97.1467 48.486 97.1517 48.5788 97.155C48.6219 97.155 48.6633 97.155 48.7064 97.1566C48.7577 97.1566 48.8075 97.1566 48.8588 97.1566H50.4446C50.496 97.1566 50.5457 97.1566 50.5971 97.1566C50.6401 97.1566 50.6816 97.1566 50.7246 97.155C50.8174 97.1533 50.9119 97.1467 51.003 97.1301C51.0958 97.1135 51.1837 97.0854 51.2682 97.0423C51.351 96.9992 51.4272 96.9445 51.4935 96.8782C51.5598 96.812 51.6145 96.7357 51.6576 96.6529C51.7006 96.5684 51.7288 96.4806 51.7454 96.3878C51.762 96.2966 51.7669 96.2022 51.7702 96.1094C51.7702 96.0663 51.7702 96.0249 51.7719 95.9818C51.7719 95.9304 51.7719 95.8807 51.7719 95.8293V89.3751H51.7736Z" fill="white"/>
<path fill-rule="evenodd" clip-rule="evenodd" d="M60.2493 89.3751C60.2493 89.3238 60.2493 89.2741 60.2493 89.2227C60.2493 89.1796 60.2493 89.1382 60.2477 89.0951C60.246 89.0023 60.2394 88.9079 60.2228 88.8167C60.2062 88.7239 60.1781 88.6361 60.135 88.5516C60.0919 88.4687 60.0372 88.3925 59.9709 88.3262C59.9047 88.26 59.8284 88.2053 59.7456 88.1622C59.6611 88.1191 59.5749 88.0926 59.4805 88.0744C59.3893 88.0578 59.2949 88.0528 59.2021 88.0495C59.159 88.0495 59.1176 88.0479 59.0745 88.0479C59.0231 88.0479 58.9734 88.0479 58.922 88.0479H57.3346C57.2832 88.0479 57.2335 88.0479 57.1821 88.0479C57.1391 88.0479 57.0976 88.0479 57.0545 88.0495C56.9618 88.0528 56.8673 88.0578 56.7762 88.0744C56.6834 88.0909 56.5955 88.1191 56.511 88.1622C56.4282 88.2053 56.352 88.26 56.2857 88.3262C56.2194 88.3925 56.1647 88.4687 56.1216 88.5516C56.0785 88.6361 56.0504 88.7239 56.0338 88.8167C56.0172 88.9079 56.0123 89.0023 56.009 89.0951C56.009 89.1382 56.009 89.1796 56.0073 89.2227C56.0073 89.2724 56.0073 89.3238 56.0073 89.3751V95.8293C56.0073 95.8807 56.0073 95.9304 56.0073 95.9818C56.0073 96.0249 56.0073 96.0663 56.009 96.1094C56.0106 96.2022 56.0172 96.2966 56.0338 96.3878C56.0504 96.4806 56.0785 96.5684 56.1216 96.6529C56.1647 96.7357 56.2194 96.812 56.2857 96.8782C56.352 96.9445 56.4282 96.9992 56.511 97.0423C56.5955 97.0854 56.6817 97.1119 56.7762 97.1301C56.8673 97.1467 56.9618 97.1517 57.0545 97.155C57.0976 97.155 57.1391 97.155 57.1821 97.1566C57.2335 97.1566 57.2832 97.1566 57.3346 97.1566H58.9204C58.9717 97.1566 59.0215 97.1566 59.0728 97.1566C59.1159 97.1566 59.1573 97.1566 59.2004 97.155C59.2932 97.1533 59.3877 97.1467 59.4788 97.1301C59.5716 97.1135 59.6594 97.0854 59.7439 97.0423C59.8268 96.9992 59.903 96.9445 59.9693 96.8782C60.0356 96.812 60.0903 96.7357 60.1333 96.6529C60.1764 96.5684 60.2046 96.4806 60.2212 96.3878C60.2377 96.2966 60.2427 96.2022 60.246 96.1094C60.246 96.0663 60.246 96.0249 60.2477 95.9818C60.2477 95.9304 60.2477 95.8807 60.2477 95.8293V89.3751H60.2493Z" fill="white"/>
<path fill-rule="evenodd" clip-rule="evenodd" d="M68.7268 89.3751C68.7268 89.3238 68.7268 89.2741 68.7268 89.2227C68.7268 89.1796 68.7268 89.1382 68.7251 89.0951C68.7235 89.0023 68.7168 88.9079 68.7003 88.8167C68.6837 88.7239 68.6555 88.6361 68.6124 88.5516C68.5694 88.4687 68.5147 88.3925 68.4484 88.3262C68.3821 88.26 68.3059 88.2053 68.223 88.1622C68.1385 88.1191 68.0524 88.0926 67.9579 88.0744C67.8668 88.0578 67.7723 88.0528 67.6795 88.0495C67.6364 88.0495 67.595 88.0479 67.5519 88.0479C67.5006 88.0479 67.4508 88.0479 67.3995 88.0479H65.812C65.7607 88.0479 65.711 88.0479 65.6596 88.0479C65.6165 88.0479 65.5751 88.0479 65.532 88.0495C65.4392 88.0528 65.3447 88.0578 65.2536 88.0744C65.1608 88.0909 65.073 88.1191 64.9885 88.1622C64.9056 88.2053 64.8294 88.26 64.7631 88.3262C64.6968 88.3925 64.6422 88.4687 64.5991 88.5516C64.556 88.6361 64.5278 88.7239 64.5113 88.8167C64.4947 88.9079 64.4897 89.0023 64.4864 89.0951C64.4864 89.1382 64.4864 89.1796 64.4847 89.2227C64.4847 89.2724 64.4847 89.3238 64.4847 89.3751V95.8293C64.4847 95.8807 64.4847 95.9304 64.4847 95.9818C64.4847 96.0249 64.4847 96.0663 64.4864 96.1094C64.4881 96.2022 64.4947 96.2966 64.5113 96.3878C64.5278 96.4806 64.556 96.5684 64.5991 96.6529C64.6422 96.7357 64.6968 96.812 64.7631 96.8782C64.8294 96.9445 64.9056 96.9992 64.9885 97.0423C65.073 97.0854 65.1592 97.1119 65.2536 97.1301C65.3447 97.1467 65.4392 97.1517 65.532 97.155C65.5751 97.155 65.6165 97.155 65.6596 97.1566C65.711 97.1566 65.7607 97.1566 65.812 97.1566H67.3978C67.4492 97.1566 67.4989 97.1566 67.5503 97.1566C67.5934 97.1566 67.6348 97.1566 67.6779 97.155C67.7707 97.1533 67.8651 97.1467 67.9563 97.1301C68.049 97.1135 68.1369 97.0854 68.2214 97.0423C68.3042 96.9992 68.3805 96.9445 68.4467 96.8782C68.513 96.812 68.5677 96.7357 68.6108 96.6529C68.6539 96.5684 68.682 96.4806 68.6986 96.3878C68.7152 96.2966 68.7201 96.2022 68.7235 96.1094C68.7235 96.0663 68.7235 96.0249 68.7251 95.9818C68.7251 95.9304 68.7251 95.8807 68.7251 95.8293V89.3751H68.7268Z" fill="white"/>
<path fill-rule="evenodd" clip-rule="evenodd" d="M95.8294 34.8204C95.8808 34.8204 95.9305 34.8204 95.9818 34.8204C96.0249 34.8204 96.0664 34.8204 96.1094 34.8187C96.2022 34.8171 96.2967 34.8105 96.3878 34.7939C96.4806 34.7773 96.5684 34.7491 96.653 34.7061C96.7358 34.663 96.812 34.6083 96.8783 34.542C96.9446 34.4757 96.9993 34.3995 97.0424 34.3167C97.0854 34.2322 97.1119 34.146 97.1302 34.0515C97.1467 33.9604 97.1517 33.8659 97.155 33.7731C97.155 33.7301 97.155 33.6886 97.1567 33.6456C97.1567 33.5942 97.1567 33.5445 97.1567 33.4931V31.9057C97.1567 31.8543 97.1567 31.8046 97.1567 31.7532C97.1567 31.7101 97.1567 31.6687 97.155 31.6256C97.1517 31.5328 97.1467 31.4384 97.1302 31.3472C97.1136 31.2544 97.0854 31.1666 97.0424 31.0821C96.9993 30.9993 96.9446 30.923 96.8783 30.8568C96.812 30.7905 96.7358 30.7358 96.653 30.6927C96.5684 30.6496 96.4806 30.6215 96.3878 30.6049C96.2967 30.5883 96.2022 30.5833 96.1094 30.58C96.0664 30.58 96.0249 30.5784 95.9818 30.5784C95.9321 30.5784 95.8808 30.5784 95.8294 30.5784H89.3752C89.3238 30.5784 89.2741 30.5784 89.2228 30.5784C89.1797 30.5784 89.1382 30.5784 89.0952 30.58C89.0024 30.5817 88.9079 30.5883 88.8168 30.6049C88.724 30.6215 88.6362 30.6496 88.5517 30.6927C88.4688 30.7358 88.3926 30.7905 88.3263 30.8568C88.26 30.923 88.2053 30.9993 88.1622 31.0821C88.1192 31.1666 88.0927 31.2528 88.0744 31.3472C88.0579 31.4384 88.0529 31.5328 88.0496 31.6256C88.0496 31.6687 88.0496 31.7101 88.0479 31.7532C88.0479 31.8046 88.0479 31.8543 88.0479 31.9057V33.4915C88.0479 33.5428 88.0479 33.5925 88.0479 33.6439C88.0479 33.687 88.0479 33.7284 88.0496 33.7715C88.0512 33.8643 88.0579 33.9587 88.0744 34.0499C88.091 34.1427 88.1192 34.2305 88.1622 34.315C88.2053 34.3979 88.26 34.4741 88.3263 34.5404C88.3926 34.6066 88.4688 34.6613 88.5517 34.7044C88.6362 34.7475 88.724 34.7757 88.8168 34.7922C88.9079 34.8088 89.0024 34.8138 89.0952 34.8171C89.1382 34.8171 89.1797 34.8187 89.2228 34.8187C89.2741 34.8187 89.3238 34.8187 89.3752 34.8187H95.8294V34.8204Z" fill="white"/>
<path fill-rule="evenodd" clip-rule="evenodd" d="M95.8294 43.2979C95.8808 43.2979 95.9305 43.2979 95.9818 43.2979C96.0249 43.2979 96.0664 43.2979 96.1094 43.2963C96.2022 43.2946 96.2967 43.288 96.3878 43.2714C96.4806 43.2549 96.5684 43.2267 96.653 43.1836C96.7358 43.1405 96.812 43.0858 96.8783 43.0196C96.9446 42.9533 96.9993 42.8771 97.0424 42.7942C97.0854 42.7097 97.1119 42.6235 97.1302 42.5291C97.1467 42.4379 97.1517 42.3435 97.155 42.2507C97.155 42.2076 97.155 42.1662 97.1567 42.1231C97.1567 42.0717 97.1567 42.022 97.1567 41.9706V40.3832C97.1567 40.3318 97.1567 40.2821 97.1567 40.2308C97.1567 40.1877 97.1567 40.1462 97.155 40.1032C97.1517 40.0104 97.1467 39.9159 97.1302 39.8248C97.1136 39.732 97.0854 39.6442 97.0424 39.5596C96.9993 39.4768 96.9446 39.4006 96.8783 39.3343C96.812 39.268 96.7358 39.2133 96.653 39.1702C96.5684 39.1272 96.4806 39.099 96.3878 39.0824C96.2967 39.0659 96.2022 39.0609 96.1094 39.0576C96.0664 39.0576 96.0249 39.0576 95.9818 39.0559C95.9321 39.0559 95.8808 39.0559 95.8294 39.0559H89.3752C89.3238 39.0559 89.2741 39.0559 89.2228 39.0559C89.1797 39.0559 89.1382 39.0559 89.0952 39.0576C89.0024 39.0592 88.9079 39.0659 88.8168 39.0824C88.724 39.099 88.6362 39.1272 88.5517 39.1702C88.4688 39.2133 88.3926 39.268 88.3263 39.3343C88.26 39.4006 88.2053 39.4768 88.1622 39.5596C88.1192 39.6442 88.0927 39.7303 88.0744 39.8248C88.0579 39.9159 88.0529 40.0104 88.0496 40.1032C88.0496 40.1462 88.0496 40.1877 88.0479 40.2308C88.0479 40.2821 88.0479 40.3318 88.0479 40.3832V41.969C88.0479 42.0204 88.0479 42.0701 88.0479 42.1214C88.0479 42.1645 88.0479 42.2059 88.0496 42.249C88.0512 42.3418 88.0579 42.4363 88.0744 42.5274C88.091 42.6202 88.1192 42.708 88.1622 42.7925C88.2053 42.8754 88.26 42.9516 88.3263 43.0179C88.3926 43.0842 88.4688 43.1389 88.5517 43.1819C88.6362 43.225 88.724 43.2532 88.8168 43.2698C88.9079 43.2863 89.0024 43.2913 89.0952 43.2946C89.1382 43.2946 89.1797 43.2963 89.2228 43.2963C89.2741 43.2963 89.3238 43.2963 89.3752 43.2963H95.8294V43.2979Z" fill="white"/>
<path fill-rule="evenodd" clip-rule="evenodd" d="M95.8294 51.7735C95.8808 51.7735 95.9305 51.7735 95.9818 51.7735C96.0249 51.7735 96.0664 51.7735 96.1094 51.7719C96.2022 51.7702 96.2967 51.7636 96.3878 51.747C96.4806 51.7304 96.5684 51.7023 96.653 51.6592C96.7358 51.6161 96.812 51.5614 96.8783 51.4951C96.9446 51.4289 96.9993 51.3526 97.0424 51.2698C97.0854 51.1853 97.1119 51.0991 97.1302 51.0047C97.1467 50.9135 97.1517 50.8191 97.155 50.7263C97.155 50.6832 97.155 50.6418 97.1567 50.5987C97.1567 50.5473 97.1567 50.4976 97.1567 50.4462V48.8588C97.1567 48.8074 97.1567 48.7577 97.1567 48.7063C97.1567 48.6633 97.1567 48.6218 97.155 48.5787C97.1517 48.486 97.1467 48.3915 97.1302 48.3004C97.1136 48.2076 97.0854 48.1197 97.0424 48.0352C96.9993 47.9524 96.9446 47.8762 96.8783 47.8099C96.812 47.7436 96.7358 47.6889 96.653 47.6458C96.5684 47.6027 96.4806 47.5746 96.3878 47.558C96.2967 47.5414 96.2022 47.5365 96.1094 47.5332C96.0664 47.5332 96.0249 47.5315 95.9818 47.5315C95.9321 47.5315 95.8808 47.5315 95.8294 47.5315H89.3752C89.3238 47.5315 89.2741 47.5315 89.2228 47.5315C89.1797 47.5315 89.1382 47.5315 89.0952 47.5332C89.0024 47.5348 88.9079 47.5414 88.8168 47.558C88.724 47.5746 88.6362 47.6027 88.5517 47.6458C88.4688 47.6889 88.3926 47.7436 88.3263 47.8099C88.26 47.8762 88.2053 47.9524 88.1622 48.0352C88.1192 48.1197 88.0927 48.2059 88.0744 48.3004C88.0579 48.3915 88.0529 48.486 88.0496 48.5787C88.0496 48.6218 88.0496 48.6633 88.0479 48.7063C88.0479 48.7577 88.0479 48.8074 88.0479 48.8588V50.4446C88.0479 50.4959 88.0479 50.5457 88.0479 50.597C88.0479 50.6401 88.0479 50.6815 88.0496 50.7246C88.0512 50.8174 88.0579 50.9119 88.0744 51.003C88.091 51.0958 88.1192 51.1836 88.1622 51.2681C88.2053 51.351 88.26 51.4272 88.3263 51.4935C88.3926 51.5598 88.4688 51.6144 88.5517 51.6575C88.6362 51.7006 88.724 51.7288 88.8168 51.7454C88.9079 51.7619 89.0024 51.7669 89.0952 51.7702C89.1382 51.7702 89.1797 51.7702 89.2228 51.7719C89.2741 51.7719 89.3238 51.7719 89.3752 51.7719H95.8294V51.7735Z" fill="white"/>
<path fill-rule="evenodd" clip-rule="evenodd" d="M95.8294 60.2494C95.8808 60.2494 95.9305 60.2494 95.9818 60.2494C96.0249 60.2494 96.0664 60.2494 96.1094 60.2477C96.2022 60.246 96.2967 60.2394 96.3878 60.2228C96.4806 60.2063 96.5684 60.1781 96.653 60.135C96.7358 60.0919 96.812 60.0373 96.8783 59.971C96.9446 59.9047 96.9993 59.8285 97.0424 59.7456C97.0854 59.6611 97.1119 59.5749 97.1302 59.4805C97.1467 59.3894 97.1517 59.2949 97.155 59.2021C97.155 59.159 97.155 59.1176 97.1567 59.0745C97.1567 59.0231 97.1567 58.9734 97.1567 58.9221V57.3346C97.1567 57.2832 97.1567 57.2335 97.1567 57.1822C97.1567 57.1391 97.1567 57.0977 97.155 57.0546C97.1517 56.9618 97.1467 56.8673 97.1302 56.7762C97.1136 56.6834 97.0854 56.5956 97.0424 56.5111C96.9993 56.4282 96.9446 56.352 96.8783 56.2857C96.812 56.2194 96.7358 56.1647 96.653 56.1217C96.5684 56.0786 96.4806 56.0504 96.3878 56.0338C96.2967 56.0173 96.2022 56.0123 96.1094 56.009C96.0664 56.009 96.0249 56.0073 95.9818 56.0073C95.9321 56.0073 95.8808 56.0073 95.8294 56.0073H89.3752C89.3238 56.0073 89.2741 56.0073 89.2228 56.0073C89.1797 56.0073 89.1382 56.0073 89.0952 56.009C89.0024 56.0123 88.9079 56.0173 88.8168 56.0338C88.724 56.0504 88.6362 56.0786 88.5517 56.1217C88.4688 56.1647 88.3926 56.2194 88.3263 56.2857C88.26 56.352 88.2053 56.4282 88.1622 56.5111C88.1192 56.5956 88.0927 56.6817 88.0744 56.7762C88.0579 56.8673 88.0529 56.9618 88.0496 57.0546C88.0496 57.0977 88.0496 57.1391 88.0479 57.1822C88.0479 57.2335 88.0479 57.2832 88.0479 57.3346V58.9204C88.0479 58.9718 88.0479 59.0215 88.0479 59.0729C88.0479 59.1159 88.0479 59.1574 88.0496 59.2005C88.0512 59.2932 88.0579 59.3877 88.0744 59.4788C88.091 59.5716 88.1192 59.6595 88.1622 59.744C88.2053 59.8268 88.26 59.903 88.3263 59.9693C88.3926 60.0356 88.4688 60.0903 88.5517 60.1334C88.6362 60.1765 88.724 60.2046 88.8168 60.2212C88.9079 60.2378 89.0024 60.2427 89.0952 60.246C89.1382 60.246 89.1797 60.2477 89.2228 60.2477C89.2741 60.2477 89.3238 60.2477 89.3752 60.2477H95.8294V60.2494Z" fill="white"/>
<path fill-rule="evenodd" clip-rule="evenodd" d="M95.8294 68.7269C95.8808 68.7269 95.9305 68.7269 95.9818 68.7269C96.0249 68.7269 96.0664 68.7269 96.1094 68.7252C96.2022 68.7236 96.2967 68.717 96.3878 68.7004C96.4806 68.6838 96.5684 68.6556 96.653 68.6126C96.7358 68.5695 96.812 68.5148 96.8783 68.4485C96.9446 68.3822 96.9993 68.306 97.0424 68.2232C97.0854 68.1386 97.1119 68.0525 97.1302 67.958C97.1467 67.8669 97.1517 67.7724 97.155 67.6796C97.155 67.6366 97.155 67.5951 97.1567 67.5521C97.1567 67.5007 97.1567 67.451 97.1567 67.3996V65.8122C97.1567 65.7608 97.1567 65.7111 97.1567 65.6597C97.1567 65.6166 97.1567 65.5752 97.155 65.5321C97.1517 65.4393 97.1467 65.3449 97.1302 65.2537C97.1136 65.1609 97.0854 65.0731 97.0424 64.9886C96.9993 64.9058 96.9446 64.8295 96.8783 64.7632C96.812 64.697 96.7358 64.6423 96.653 64.5992C96.5684 64.5561 96.4806 64.5279 96.3878 64.5114C96.2967 64.4948 96.2022 64.4898 96.1094 64.4865C96.0664 64.4865 96.0249 64.4865 95.9818 64.4849C95.9321 64.4849 95.8808 64.4849 95.8294 64.4849H89.3752C89.3238 64.4849 89.2741 64.4849 89.2228 64.4849C89.1797 64.4849 89.1382 64.4849 89.0952 64.4865C89.0024 64.4898 88.9079 64.4948 88.8168 64.5114C88.724 64.5279 88.6362 64.5561 88.5517 64.5992C88.4688 64.6423 88.3926 64.697 88.3263 64.7632C88.26 64.8295 88.2053 64.9058 88.1622 64.9886C88.1192 65.0731 88.0927 65.1593 88.0744 65.2537C88.0579 65.3449 88.0529 65.4393 88.0496 65.5321C88.0496 65.5752 88.0496 65.6166 88.0479 65.6597C88.0479 65.7111 88.0479 65.7608 88.0479 65.8122V67.3979C88.0479 67.4493 88.0479 67.499 88.0479 67.5504C88.0479 67.5935 88.0479 67.6349 88.0496 67.678C88.0512 67.7708 88.0579 67.8652 88.0744 67.9564C88.091 68.0492 88.1192 68.137 88.1622 68.2215C88.2053 68.3044 88.26 68.3806 88.3263 68.4469C88.3926 68.5131 88.4688 68.5678 88.5517 68.6109C88.6362 68.654 88.724 68.6822 88.8168 68.6987C88.9079 68.7153 89.0024 68.7203 89.0952 68.7236C89.1382 68.7236 89.1797 68.7236 89.2228 68.7252C89.2741 68.7252 89.3238 68.7252 89.3752 68.7252H95.8294V68.7269Z" fill="white"/>
<path fill-rule="evenodd" clip-rule="evenodd" d="M9.93486 34.8204C9.98623 34.8204 10.0359 34.8204 10.0873 34.8204C10.1304 34.8204 10.1718 34.8204 10.2149 34.8187C10.3077 34.8171 10.4021 34.8105 10.4933 34.7939C10.5861 34.7773 10.6739 34.7492 10.7584 34.7061C10.8413 34.663 10.9175 34.6083 10.9838 34.542C11.0501 34.4757 11.1047 34.3995 11.1478 34.3167C11.1909 34.2322 11.2174 34.146 11.2356 34.0515C11.2522 33.9604 11.2572 33.8659 11.2605 33.7732C11.2605 33.7301 11.2605 33.6886 11.2622 33.6456C11.2622 33.5942 11.2622 33.5445 11.2622 33.4931V31.9057C11.2622 31.8543 11.2622 31.8046 11.2622 31.7532C11.2622 31.7101 11.2622 31.6687 11.2605 31.6256C11.2572 31.5328 11.2522 31.4384 11.2356 31.3472C11.2191 31.2544 11.1909 31.1666 11.1478 31.0821C11.1047 30.9993 11.0501 30.923 10.9838 30.8568C10.9175 30.7905 10.8413 30.7358 10.7584 30.6927C10.6739 30.6496 10.5861 30.6215 10.4933 30.6049C10.4021 30.5883 10.3077 30.5833 10.2149 30.58C10.1718 30.58 10.1304 30.5784 10.0873 30.5784C10.0376 30.5784 9.98623 30.5784 9.93486 30.5784H3.48067C3.42931 30.5784 3.37959 30.5784 3.32823 30.5784C3.28514 30.5784 3.24372 30.5784 3.20063 30.58C3.10784 30.5817 3.01339 30.5883 2.92225 30.6049C2.82946 30.6215 2.74163 30.6496 2.65712 30.6927C2.57427 30.7358 2.49805 30.7905 2.43176 30.8568C2.36548 30.923 2.3108 30.9993 2.26772 31.0821C2.22463 31.1666 2.19812 31.2528 2.17989 31.3472C2.16332 31.4384 2.15835 31.5328 2.15504 31.6256C2.15504 31.6687 2.15504 31.7101 2.15338 31.7532C2.15338 31.8046 2.15338 31.8543 2.15338 31.9057V33.4915C2.15504 33.5461 2.15504 33.5975 2.15504 33.6472C2.15504 33.6903 2.15504 33.7317 2.1567 33.7748C2.15835 33.8676 2.16498 33.9621 2.18155 34.0532C2.19812 34.146 2.22629 34.2338 2.26937 34.3183C2.31246 34.4012 2.36714 34.4774 2.43342 34.5437C2.4997 34.61 2.57593 34.6646 2.65878 34.7077C2.74329 34.7508 2.83111 34.779 2.92391 34.7955C3.01504 34.8121 3.1095 34.8171 3.20229 34.8204C3.24537 34.8204 3.2868 34.8221 3.32988 34.8221C3.38125 34.8221 3.43096 34.8221 3.48233 34.8221H9.93652L9.93486 34.8204Z" fill="white"/>
<path fill-rule="evenodd" clip-rule="evenodd" d="M9.93486 43.2979C9.98623 43.2979 10.0359 43.2979 10.0873 43.2979C10.1304 43.2979 10.1718 43.2979 10.2149 43.2963C10.3077 43.2946 10.4021 43.288 10.4933 43.2714C10.5861 43.2549 10.6739 43.2267 10.7584 43.1836C10.8413 43.1405 10.9175 43.0858 10.9838 43.0196C11.0501 42.9533 11.1047 42.8771 11.1478 42.7942C11.1909 42.7097 11.2174 42.6235 11.2356 42.5291C11.2522 42.4379 11.2572 42.3435 11.2605 42.2507C11.2605 42.2076 11.2605 42.1662 11.2622 42.1231C11.2622 42.0717 11.2622 42.022 11.2622 41.9706V40.3832C11.2622 40.3318 11.2622 40.2821 11.2622 40.2308C11.2622 40.1877 11.2622 40.1462 11.2605 40.1032C11.2572 40.0104 11.2522 39.9159 11.2356 39.8248C11.2191 39.732 11.1909 39.6442 11.1478 39.5596C11.1047 39.4768 11.0501 39.4006 10.9838 39.3343C10.9175 39.268 10.8413 39.2133 10.7584 39.1702C10.6739 39.1272 10.5861 39.099 10.4933 39.0824C10.4021 39.0659 10.3077 39.0609 10.2149 39.0576C10.1718 39.0576 10.1304 39.0576 10.0873 39.0559C10.0376 39.0559 9.98623 39.0559 9.93486 39.0559H3.48067C3.42931 39.0559 3.37959 39.0559 3.32823 39.0559C3.28514 39.0559 3.24372 39.0559 3.20063 39.0576C3.10784 39.0592 3.01339 39.0659 2.92225 39.0824C2.82946 39.099 2.74163 39.1272 2.65712 39.1702C2.57427 39.2133 2.49805 39.268 2.43176 39.3343C2.36548 39.4006 2.3108 39.4768 2.26772 39.5596C2.22463 39.6442 2.19812 39.7303 2.17989 39.8248C2.16332 39.9159 2.15835 40.0104 2.15504 40.1032C2.15504 40.1462 2.15504 40.1877 2.15338 40.2308C2.15338 40.2821 2.15338 40.3318 2.15338 40.3832V41.969C2.15504 42.022 2.15504 42.0734 2.15504 42.1231C2.15504 42.1662 2.15504 42.2076 2.1567 42.2507C2.15835 42.3435 2.16498 42.4379 2.18155 42.5291C2.19812 42.6219 2.22629 42.7097 2.26937 42.7942C2.31246 42.8771 2.36714 42.9533 2.43342 43.0196C2.4997 43.0858 2.57593 43.1405 2.65878 43.1836C2.74329 43.2267 2.83111 43.2549 2.92391 43.2714C3.01504 43.288 3.1095 43.293 3.20229 43.2963C3.24537 43.2963 3.2868 43.2979 3.32988 43.2979C3.38125 43.2979 3.43096 43.2979 3.48233 43.2979H9.93652H9.93486Z" fill="white"/>
<path fill-rule="evenodd" clip-rule="evenodd" d="M9.93486 51.7735C9.98623 51.7735 10.0359 51.7735 10.0873 51.7735C10.1304 51.7735 10.1718 51.7735 10.2149 51.7719C10.3077 51.7702 10.4021 51.7636 10.4933 51.747C10.5861 51.7304 10.6739 51.7023 10.7584 51.6592C10.8413 51.6161 10.9175 51.5614 10.9838 51.4951C11.0501 51.4289 11.1047 51.3526 11.1478 51.2698C11.1909 51.1853 11.2174 51.0991 11.2356 51.0047C11.2522 50.9135 11.2572 50.8191 11.2605 50.7263C11.2605 50.6832 11.2605 50.6418 11.2622 50.5987C11.2622 50.5473 11.2622 50.4976 11.2622 50.4462V48.8588C11.2622 48.8074 11.2622 48.7577 11.2622 48.7063C11.2622 48.6633 11.2622 48.6218 11.2605 48.5787C11.2572 48.486 11.2522 48.3915 11.2356 48.3004C11.2191 48.2076 11.1909 48.1197 11.1478 48.0352C11.1047 47.9524 11.0501 47.8762 10.9838 47.8099C10.9175 47.7436 10.8413 47.6889 10.7584 47.6458C10.6739 47.6027 10.5861 47.5746 10.4933 47.558C10.4021 47.5414 10.3077 47.5365 10.2149 47.5332C10.1718 47.5332 10.1304 47.5315 10.0873 47.5315C10.0376 47.5315 9.98623 47.5315 9.93486 47.5315H3.48067C3.42931 47.5315 3.37959 47.5315 3.32823 47.5315C3.28514 47.5315 3.24372 47.5315 3.20063 47.5332C3.10784 47.5348 3.01339 47.5414 2.92225 47.558C2.82946 47.5746 2.74163 47.6027 2.65712 47.6458C2.57427 47.6889 2.49805 47.7436 2.43176 47.8099C2.36548 47.8762 2.3108 47.9524 2.26772 48.0352C2.22463 48.1197 2.19812 48.2059 2.17989 48.3004C2.16332 48.3915 2.15835 48.486 2.15504 48.5787C2.15504 48.6218 2.15504 48.6633 2.15338 48.7063C2.15338 48.7577 2.15338 48.8074 2.15338 48.8588V50.4446C2.15338 50.4959 2.15338 50.5457 2.15338 50.597C2.15338 50.6401 2.15338 50.6815 2.15504 50.7246C2.1567 50.8174 2.16332 50.9119 2.17989 51.003C2.19646 51.0958 2.22463 51.1836 2.26772 51.2681C2.3108 51.351 2.36548 51.4272 2.43176 51.4935C2.49805 51.5598 2.57427 51.6144 2.65712 51.6575C2.74163 51.7006 2.82946 51.7288 2.92225 51.7454C3.01339 51.7619 3.10784 51.7669 3.20063 51.7702C3.24372 51.7702 3.28514 51.7702 3.32823 51.7719C3.37959 51.7719 3.42931 51.7719 3.48067 51.7719H9.93486V51.7735Z" fill="white"/>
<path fill-rule="evenodd" clip-rule="evenodd" d="M9.93486 60.2494C9.98623 60.2494 10.0359 60.2494 10.0873 60.2494C10.1304 60.2494 10.1718 60.2494 10.2149 60.2477C10.3077 60.246 10.4021 60.2394 10.4933 60.2228C10.5861 60.2063 10.6739 60.1781 10.7584 60.135C10.8413 60.0919 10.9175 60.0373 10.9838 59.971C11.0501 59.9047 11.1047 59.8285 11.1478 59.7456C11.1909 59.6611 11.2174 59.5749 11.2356 59.4805C11.2522 59.3894 11.2572 59.2949 11.2605 59.2021C11.2605 59.159 11.2605 59.1176 11.2622 59.0745C11.2622 59.0231 11.2622 58.9734 11.2622 58.9221V57.3346C11.2622 57.2832 11.2622 57.2335 11.2622 57.1822C11.2622 57.1391 11.2622 57.0977 11.2605 57.0546C11.2572 56.9618 11.2522 56.8673 11.2356 56.7762C11.2191 56.6834 11.1909 56.5956 11.1478 56.5111C11.1047 56.4282 11.0501 56.352 10.9838 56.2857C10.9175 56.2194 10.8413 56.1647 10.7584 56.1217C10.6739 56.0786 10.5861 56.0504 10.4933 56.0338C10.4021 56.0173 10.3077 56.0123 10.2149 56.009C10.1718 56.009 10.1304 56.0073 10.0873 56.0073C10.0376 56.0073 9.98623 56.0073 9.93486 56.0073H3.48067C3.42931 56.0073 3.37959 56.0073 3.32823 56.0073C3.28514 56.0073 3.24372 56.0073 3.20063 56.009C3.10784 56.0123 3.01339 56.0173 2.92225 56.0338C2.82946 56.0504 2.74163 56.0786 2.65712 56.1217C2.57427 56.1647 2.49805 56.2194 2.43176 56.2857C2.36548 56.352 2.3108 56.4282 2.26772 56.5111C2.22463 56.5956 2.19812 56.6817 2.17989 56.7762C2.16332 56.8673 2.15835 56.9618 2.15504 57.0546C2.15504 57.0977 2.15504 57.1391 2.15338 57.1822C2.15338 57.2335 2.15338 57.2832 2.15338 57.3346V58.9204C2.15338 58.9718 2.15338 59.0215 2.15338 59.0729C2.15338 59.1159 2.15338 59.1574 2.15504 59.2005C2.1567 59.2932 2.16332 59.3877 2.17989 59.4788C2.19646 59.5716 2.22463 59.6595 2.26772 59.744C2.3108 59.8268 2.36548 59.903 2.43176 59.9693C2.49805 60.0356 2.57427 60.0903 2.65712 60.1334C2.74163 60.1765 2.82946 60.2046 2.92225 60.2212C3.01339 60.2378 3.10784 60.2427 3.20063 60.246C3.24372 60.246 3.28514 60.2477 3.32823 60.2477C3.37959 60.2477 3.42931 60.2477 3.48067 60.2477H9.93486V60.2494Z" fill="white"/>
<path fill-rule="evenodd" clip-rule="evenodd" d="M9.93486 68.7269C9.98623 68.7269 10.0359 68.7269 10.0873 68.7269C10.1304 68.7269 10.1718 68.7269 10.2149 68.7252C10.3077 68.7236 10.4021 68.717 10.4933 68.7004C10.5861 68.6838 10.6739 68.6556 10.7584 68.6126C10.8413 68.5695 10.9175 68.5148 10.9838 68.4485C11.0501 68.3822 11.1047 68.306 11.1478 68.2232C11.1909 68.1386 11.2174 68.0525 11.2356 67.958C11.2522 67.8669 11.2572 67.7724 11.2605 67.6796C11.2605 67.6366 11.2605 67.5951 11.2622 67.5521C11.2622 67.5007 11.2622 67.451 11.2622 67.3996V65.8122C11.2622 65.7608 11.2622 65.7111 11.2622 65.6597C11.2622 65.6166 11.2622 65.5752 11.2605 65.5321C11.2572 65.4393 11.2522 65.3449 11.2356 65.2537C11.2191 65.1609 11.1909 65.0731 11.1478 64.9886C11.1047 64.9058 11.0501 64.8295 10.9838 64.7632C10.9175 64.697 10.8413 64.6423 10.7584 64.5992C10.6739 64.5561 10.5861 64.5279 10.4933 64.5114C10.4021 64.4948 10.3077 64.4898 10.2149 64.4865C10.1718 64.4865 10.1304 64.4865 10.0873 64.4849C10.0376 64.4849 9.98623 64.4849 9.93486 64.4849H3.48067C3.42931 64.4849 3.37959 64.4849 3.32823 64.4849C3.28514 64.4849 3.24372 64.4849 3.20063 64.4865C3.10784 64.4898 3.01339 64.4948 2.92225 64.5114C2.82946 64.5279 2.74163 64.5561 2.65712 64.5992C2.57427 64.6423 2.49805 64.697 2.43176 64.7632C2.36548 64.8295 2.3108 64.9058 2.26772 64.9886C2.22463 65.0731 2.19812 65.1593 2.17989 65.2537C2.16332 65.3449 2.15835 65.4393 2.15504 65.5321C2.15504 65.5752 2.15504 65.6166 2.15338 65.6597C2.15338 65.7111 2.15338 65.7608 2.15338 65.8122V67.3979C2.15338 67.4493 2.15338 67.499 2.15338 67.5504C2.15338 67.5935 2.15338 67.6349 2.15504 67.678C2.1567 67.7708 2.16332 67.8652 2.17989 67.9564C2.19646 68.0492 2.22463 68.137 2.26772 68.2215C2.3108 68.3044 2.36548 68.3806 2.43176 68.4469C2.49805 68.5131 2.57427 68.5678 2.65712 68.6109C2.74163 68.654 2.82946 68.6822 2.92225 68.6987C3.01339 68.7153 3.10784 68.7203 3.20063 68.7236C3.24372 68.7236 3.28514 68.7236 3.32823 68.7252C3.37959 68.7252 3.42931 68.7252 3.48067 68.7252H9.93486V68.7269Z" fill="white"/>
</g>
<rect x="50.9583" y="73" width="10.2222" height="22.0417" rx="2" transform="rotate(-90 50.9583 73)" fill="black"/>
<rect x="50.9583" y="61.074" width="10.2222" height="22.0417" rx="2" transform="rotate(-90 50.9583 61.074)" fill="black"/>
<rect x="50.9583" y="49.1482" width="10.2222" height="22.0417" rx="2" transform="rotate(-90 50.9583 49.1482)" fill="black"/>
<rect x="50.9583" y="37.2222" width="10.2222" height="22.0417" rx="2" transform="rotate(-90 50.9583 37.2222)" fill="black"/>
<rect x="27" y="73" width="10.2222" height="22.0417" rx="2" transform="rotate(-90 27 73)" fill="black"/>
<rect x="27" y="61.074" width="10.2222" height="22.0417" rx="2" transform="rotate(-90 27 61.074)" fill="black"/>
<rect x="27" y="49.1482" width="10.2222" height="22.0417" rx="2" transform="rotate(-90 27 49.1482)" fill="black"/>
<rect x="27" y="37.2222" width="10.2222" height="22.0417" rx="2" transform="rotate(-90 27 37.2222)" fill="black"/>
<defs>
<clipPath id="clip0_2527_699">
<rect width="95" height="95" fill="white" transform="translate(2.15503 2.15503)"/>
</clipPath>
</defs>
</svg>
