<svg width="100" height="100" viewBox="0 0 100 100" fill="none" xmlns="http://www.w3.org/2000/svg">
<g clip-path="url(#clip0_2527_163)">
<path d="M56.8753 29.9808L37.968 51.4246C37.6083 51.8322 37.8974 52.4743 38.4398 52.4743H46.1769C46.5983 52.4743 46.9004 52.8803 46.781 53.2855L41.7379 70.3328C41.5463 70.9813 42.3672 71.437 42.8138 70.9301L61.7211 49.4863C62.0808 49.0786 61.7918 48.4366 61.2486 48.4366H53.5114C53.09 48.4366 52.7879 48.0306 52.9073 47.6253L57.9504 30.5781C58.142 29.9295 57.3211 29.4739 56.8737 29.9808H56.8753Z" fill="white"/>
<path d="M49.8445 23.4711C48.8669 23.4711 48.0745 22.6769 48.0745 21.6972V16.4992C48.0745 15.5195 48.8669 14.7253 49.8445 14.7253C50.8221 14.7253 51.6146 15.5195 51.6146 16.4992V21.6972C51.6146 22.6769 50.8221 23.4711 49.8445 23.4711Z" fill="white"/>
<path d="M40.0304 25.2059C39.3069 25.2059 38.6281 24.7583 38.3667 24.0382L36.5925 19.1535C36.258 18.2332 36.7322 17.2152 37.6505 16.88C38.5689 16.5447 39.5846 17.0199 39.9192 17.9402L41.6933 22.8249C42.0278 23.7452 41.5536 24.7632 40.6353 25.0984C40.4356 25.1717 40.2309 25.2059 40.0296 25.2059H40.0304Z" fill="white"/>
<path d="M31.4009 30.1996C30.8958 30.1996 30.394 29.984 30.0441 29.5657L26.7102 25.5842C26.0817 24.834 26.1792 23.7143 26.9286 23.0853C27.6772 22.4555 28.7937 22.5532 29.4221 23.3042L32.756 27.2857C33.3845 28.036 33.2871 29.1556 32.5376 29.7846C32.2063 30.0637 31.802 30.1996 31.4009 30.1996Z" fill="white"/>
<path d="M24.9921 37.8503C24.6916 37.8503 24.3872 37.7738 24.1087 37.6127L19.6169 35.0137C18.77 34.5238 18.4801 33.4392 18.9689 32.5905C19.4577 31.7418 20.5401 31.4513 21.387 31.9411L25.8787 34.5401C26.7256 35.03 27.0155 36.1147 26.5267 36.9634C26.1986 37.5321 25.6035 37.8503 24.9921 37.8503Z" fill="white"/>
<path d="M21.5875 47.2355C21.4852 47.2355 21.3821 47.2265 21.2781 47.2086L16.1701 46.3062C15.2071 46.1362 14.5648 45.2159 14.7345 44.2508C14.9042 43.2857 15.8226 42.6421 16.7855 42.8122L21.8936 43.7146C22.8566 43.8846 23.4988 44.8049 23.3291 45.77C23.1773 46.6309 22.4311 47.2363 21.5883 47.2363L21.5875 47.2355Z" fill="white"/>
<path d="M16.4753 58.1254C15.6325 58.1254 14.8855 57.5201 14.7345 56.6591C14.5648 55.6941 15.2079 54.7738 16.17 54.6037L21.2781 53.7013C22.2411 53.5312 23.1594 54.1757 23.3291 55.1399C23.4988 56.105 22.8557 57.0253 21.8936 57.1954L16.7855 58.0978C16.6816 58.1165 16.5785 58.1246 16.4762 58.1246L16.4753 58.1254Z" fill="white"/>
<path d="M20.5035 69.2067C19.8913 69.2067 19.297 68.8886 18.9689 68.3198C18.4801 67.4711 18.77 66.3864 19.6169 65.8966L24.1087 63.2976C24.9555 62.8077 26.0379 63.0982 26.5267 63.9469C27.0155 64.7956 26.7256 65.8803 25.8787 66.3701L21.387 68.9691C21.1085 69.1303 20.804 69.2067 20.5035 69.2067Z" fill="white"/>
<path d="M28.0645 78.2404C27.6626 78.2404 27.2591 78.1045 26.9278 77.8254C26.1791 77.1956 26.0809 76.0767 26.7094 75.3265L30.0433 71.345C30.6717 70.5947 31.7882 70.4963 32.5368 71.1261C33.2854 71.7559 33.3837 72.8748 32.7552 73.625L29.4213 77.6065C29.0714 78.0247 28.5696 78.2404 28.0645 78.2404Z" fill="white"/>
<path d="M38.2563 84.1365C38.0549 84.1365 37.8511 84.1023 37.6505 84.0291C36.7322 83.6939 36.258 82.6759 36.5925 81.7556L38.3667 76.8709C38.7012 75.9506 39.717 75.4754 40.6353 75.8106C41.5536 76.1459 42.0278 77.1638 41.6933 78.0841L39.9192 82.9688C39.6577 83.689 38.9789 84.1365 38.2554 84.1365H38.2563Z" fill="white"/>
<path d="M49.8445 86.184C48.8669 86.184 48.0745 85.3898 48.0745 84.4101V79.2121C48.0745 78.2324 48.8669 77.4382 49.8445 77.4382C50.8221 77.4382 51.6146 78.2324 51.6146 79.2121V84.4101C51.6146 85.3898 50.8221 86.184 49.8445 86.184Z" fill="white"/>
<path d="M61.4337 84.1366C60.7103 84.1366 60.0315 83.6891 59.77 82.9689L57.9959 78.0842C57.6613 77.1639 58.1355 76.146 59.0539 75.8107C59.9722 75.4755 60.988 75.9499 61.3225 76.871L63.0966 81.7557C63.4311 82.676 62.957 83.694 62.0386 84.0292C61.8389 84.1024 61.6343 84.1366 61.4329 84.1366H61.4337Z" fill="white"/>
<path d="M71.6246 78.2404C71.1196 78.2404 70.6178 78.0248 70.2678 77.6065L66.9339 73.625C66.3055 72.8748 66.4029 71.7559 67.1523 71.1261C67.901 70.4963 69.0174 70.5939 69.6459 71.345L72.9798 75.3265C73.6083 76.0767 73.5108 77.1956 72.7614 77.8254C72.4301 78.1045 72.0257 78.2404 71.6246 78.2404Z" fill="white"/>
<path d="M79.1864 69.2067C78.886 69.2067 78.5815 69.1303 78.303 68.9691L73.8112 66.3701C72.9643 65.8803 72.6745 64.7956 73.1633 63.9469C73.6521 63.0982 74.7344 62.8077 75.5813 63.2976L80.0731 65.8966C80.9199 66.3864 81.2098 67.4711 80.721 68.3198C80.393 68.8886 79.7978 69.2067 79.1864 69.2067Z" fill="white"/>
<path d="M83.2146 58.1256C83.1123 58.1256 83.0091 58.1167 82.9052 58.0988L77.7971 57.1963C76.8342 57.0263 76.1919 56.106 76.3616 55.1409C76.5313 54.1758 77.4496 53.5314 78.4126 53.7023L83.5207 54.6047C84.4837 54.7747 85.1259 55.695 84.9562 56.6601C84.8052 57.521 84.0582 58.1264 83.2154 58.1264L83.2146 58.1256Z" fill="white"/>
<path d="M78.1025 47.2356C77.2597 47.2356 76.5127 46.6302 76.3616 45.7692C76.1919 44.8042 76.835 43.8839 77.7972 43.7138L82.9052 42.8114C83.8682 42.6413 84.7866 43.2858 84.9563 44.25C85.126 45.2151 84.4829 46.1354 83.5207 46.3055L78.4127 47.2079C78.3087 47.2266 78.2056 47.2347 78.1033 47.2347L78.1025 47.2356Z" fill="white"/>
<path d="M74.6979 37.8503C74.0857 37.8503 73.4913 37.5321 73.1633 36.9634C72.6745 36.1147 72.9643 35.03 73.8112 34.5401L78.303 31.9411C79.1499 31.4513 80.2322 31.7418 80.721 32.5905C81.2098 33.4392 80.9199 34.5238 80.0731 35.0137L75.5813 37.6127C75.3028 37.7738 74.9983 37.8503 74.6979 37.8503Z" fill="white"/>
<path d="M68.2891 30.1996C67.8872 30.1996 67.4836 30.0637 67.1523 29.7846C66.4037 29.1548 66.3055 28.0359 66.9339 27.2857L70.2678 23.3042C70.8963 22.554 72.0127 22.4555 72.7614 23.0853C73.51 23.7151 73.6082 24.834 72.9798 25.5842L69.6459 29.5657C69.2959 29.984 68.7941 30.1996 68.2891 30.1996Z" fill="white"/>
<path d="M59.6596 25.2059C59.4582 25.2059 59.2544 25.1717 59.0539 25.0984C58.1355 24.7632 57.6613 23.7452 57.9959 22.8249L59.77 17.9402C60.1045 17.0199 61.1203 16.5447 62.0386 16.88C62.957 17.2152 63.4311 18.2332 63.0966 19.1535L61.3225 24.0382C61.061 24.7583 60.3822 25.2059 59.6588 25.2059H59.6596Z" fill="white"/>
<path d="M56.5571 11.46C56.4613 11.46 56.3646 11.4518 56.2672 11.4364C55.3026 11.2769 54.6498 10.3639 54.8089 9.3972L55.4601 5.44093C55.6193 4.47424 56.5303 3.82002 57.4949 3.97951C58.4595 4.13899 59.1123 5.05198 58.9532 6.01867L58.302 9.97494C58.1591 10.844 57.4088 11.4608 56.5579 11.4608L56.5571 11.46Z" fill="white"/>
<path d="M42.2341 11.6186C41.3994 11.6186 40.6556 11.0238 40.4965 10.1718L39.7584 6.23104C39.5781 5.26842 40.2107 4.34078 41.1712 4.16014C42.1318 3.9795 43.0574 4.61338 43.2377 5.576L43.9757 9.51681C44.156 10.4794 43.5235 11.4071 42.5629 11.5877C42.4525 11.6089 42.3429 11.6186 42.2341 11.6186Z" fill="white"/>
<path d="M28.8367 16.6759C28.2318 16.6759 27.6423 16.3651 27.3118 15.8052L25.273 12.3551C24.7745 11.5121 25.053 10.4242 25.8942 9.92454C26.7353 9.42492 27.8209 9.70402 28.3195 10.547L30.3583 13.9972C30.8569 14.8402 30.5784 15.9281 29.7372 16.4277C29.4546 16.5953 29.1436 16.6759 28.8367 16.6759Z" fill="white"/>
<path d="M17.9678 26.0206C17.5723 26.0206 17.1753 25.8888 16.8465 25.6178L13.7529 23.075C12.9969 22.4533 12.8873 21.3361 13.5069 20.5785C14.1272 19.8209 15.242 19.7111 15.998 20.3319L19.0915 22.8748C19.8475 23.4965 19.9571 24.6137 19.3376 25.3713C18.9876 25.7985 18.4801 26.0198 17.9678 26.0198V26.0206Z" fill="white"/>
<path d="M10.9459 38.5273C10.751 38.5273 10.5529 38.4948 10.3588 38.4264L6.58403 37.0968C5.66164 36.7721 5.1769 35.7591 5.50088 34.8347C5.82485 33.9103 6.83574 33.4245 7.75813 33.7492L11.5329 35.0788C12.4553 35.4035 12.9401 36.4166 12.6161 37.3409C12.3603 38.0708 11.6767 38.5273 10.9459 38.5273Z" fill="white"/>
<path d="M4.61507 52.7306C3.6464 52.7306 2.85636 51.9495 2.84581 50.9763C2.83525 49.9966 3.6188 49.1934 4.5964 49.1829L8.59693 49.1389C8.60343 49.1389 8.60992 49.1389 8.61723 49.1389C9.5859 49.1389 10.3759 49.9201 10.3865 50.8933C10.3971 51.873 9.61351 52.6761 8.63591 52.6867L4.63537 52.7306C4.62888 52.7306 4.62238 52.7306 4.61507 52.7306Z" fill="white"/>
<path d="M7.51458 68.2034C6.79843 68.2034 6.1245 67.7648 5.85736 67.0545C5.51309 66.1374 5.9751 65.1146 6.89018 64.7696L10.6341 63.357C11.5492 63.0111 12.5698 63.4749 12.9149 64.392C13.2592 65.3091 12.7972 66.3319 11.8821 66.6769L8.13816 68.0895C7.93274 68.1668 7.72163 68.2034 7.51458 68.2034Z" fill="white"/>
<path d="M15.5197 81.7493C15.0211 81.7493 14.5258 81.5393 14.1759 81.1308C13.5393 80.3871 13.6245 79.2674 14.3667 78.6295L17.4026 76.0183C18.1447 75.3803 19.262 75.4658 19.8986 76.2095C20.5352 76.9532 20.4499 78.0729 19.7078 78.7109L16.6718 81.3221C16.3381 81.6093 15.9281 81.7501 15.5197 81.7501V81.7493Z" fill="white"/>
<path d="M27.6618 91.7343C27.3678 91.7343 27.0698 91.6611 26.7954 91.5065C25.9437 91.0264 25.6416 89.9441 26.1207 89.0906L28.0824 85.5965C28.5614 84.7429 29.6413 84.4394 30.4931 84.9203C31.3448 85.4004 31.6469 86.4826 31.1678 87.3362L29.2061 90.8311C28.8813 91.4096 28.2805 91.7351 27.6618 91.7351V91.7343Z" fill="white"/>
<path d="M42.4858 96.9551C42.39 96.9551 42.2934 96.9469 42.1959 96.9315C41.2313 96.772 40.5785 95.859 40.7376 94.8923L41.3888 90.936C41.548 89.9694 42.459 89.3151 43.4236 89.4746C44.3882 89.6341 45.041 90.5471 44.8819 91.5138L44.2307 95.4701C44.0878 96.3391 43.3367 96.9559 42.4866 96.9559L42.4858 96.9551Z" fill="white"/>
<path d="M58.1899 96.781C57.3552 96.781 56.6115 96.1862 56.4523 95.3342L55.7143 91.3934C55.534 90.4308 56.1665 89.5031 57.1271 89.3225C58.0876 89.1418 59.0133 89.7757 59.1935 90.7384L59.9316 94.6792C60.1119 95.6418 59.4793 96.5694 58.5188 96.7501C58.4084 96.7704 58.2987 96.781 58.1899 96.781Z" fill="white"/>
<path d="M72.8946 91.233C72.2896 91.233 71.7002 90.9222 71.3697 90.3624L69.3309 86.9122C68.8323 86.0692 69.1108 84.9813 69.952 84.4817C70.7932 83.982 71.8788 84.2611 72.3773 85.1042L74.4162 88.5543C74.9139 89.3973 74.6362 90.4852 73.795 90.9849C73.5125 91.1525 73.2015 91.233 72.8946 91.233Z" fill="white"/>
<path d="M84.8134 80.9803C84.4179 80.9803 84.0209 80.8485 83.692 80.5775L80.5985 78.0347C79.8425 77.413 79.7329 76.2958 80.3524 75.5382C80.9728 74.7806 82.0876 74.6708 82.8435 75.2917L85.9371 77.8345C86.693 78.4562 86.8027 79.5734 86.1831 80.331C85.8332 80.7582 85.3257 80.9795 84.8134 80.9795V80.9803Z" fill="white"/>
<path d="M92.518 67.2612C92.3232 67.2612 92.1251 67.2287 91.931 67.1603L88.1562 65.8307C87.2338 65.506 86.749 64.493 87.073 63.5686C87.397 62.6442 88.4079 62.1584 89.3303 62.4831L93.1051 63.8127C94.0275 64.1374 94.5122 65.1504 94.1882 66.0748C93.9325 66.8047 93.2488 67.2612 92.518 67.2612Z" fill="white"/>
<path d="M91.0736 51.772C90.1049 51.772 89.3149 50.9908 89.3043 50.0176C89.2937 49.0379 90.0773 48.2348 91.0549 48.2242L95.0554 48.1794C95.0619 48.1794 95.0692 48.1794 95.0757 48.1794C96.0444 48.1794 96.8344 48.9606 96.845 49.9338C96.8555 50.9135 96.072 51.7167 95.0944 51.7272L91.0939 51.7712C91.0874 51.7712 91.0809 51.7712 91.0736 51.7712V51.772Z" fill="white"/>
<path d="M88.4314 37.668C87.7153 37.668 87.0414 37.2294 86.7742 36.5191C86.43 35.602 86.892 34.5792 87.807 34.2333L91.551 32.8207C92.4661 32.4757 93.4867 32.9387 93.8318 33.8558C94.1761 34.7728 93.7141 35.7957 92.799 36.1415L89.055 37.5541C88.8496 37.6314 88.6385 37.668 88.4314 37.668Z" fill="white"/>
<path d="M81.1359 25.3198C80.6374 25.3198 80.1421 25.1099 79.7921 24.7014C79.1556 23.9577 79.2408 22.838 79.983 22.2L83.0189 19.5888C83.761 18.9509 84.8783 19.0363 85.5149 19.7801C86.1514 20.5238 86.0662 21.6435 85.324 22.2814L82.2881 24.8926C81.9544 25.1799 81.5444 25.3206 81.1359 25.3206V25.3198Z" fill="white"/>
<path d="M70.0624 16.2186C69.7685 16.2186 69.4705 16.1454 69.196 15.99C68.3443 15.5099 68.0422 14.4277 68.5213 13.5741L70.483 10.08C70.9621 9.22641 72.042 8.92371 72.8937 9.4038C73.7455 9.88389 74.0475 10.9661 73.5684 11.8197L71.6067 15.3138C71.282 15.8923 70.6811 16.2178 70.0624 16.2178V16.2186Z" fill="white"/>
</g>
<defs>
<clipPath id="clip0_2527_163">
<rect width="94" height="93" fill="white" transform="translate(2.84497 3.95508)"/>
</clipPath>
</defs>
</svg>
