<svg width="100" height="100" viewBox="0 0 100 100" fill="none" xmlns="http://www.w3.org/2000/svg">
<path d="M50 8.67896C59.033 15.8491 68.6082 19.3384 79.2437 19.3384C89.8793 19.3384 80.6629 19.3224 81.3804 19.2905V61.5448C81.3804 65.3694 79.754 69.3937 76.549 73.4898C73.91 76.8593 70.2267 80.2687 65.5786 83.6382C58.6822 88.6365 51.9055 91.9501 50 92.8444C48.0866 91.9501 41.3178 88.6365 34.4214 83.6382C29.7813 80.2687 26.09 76.8593 23.451 73.4898C20.246 69.3937 18.6196 65.3774 18.6196 61.5448V19.2984C19.3371 19.3304 20.0547 19.3464 20.7563 19.3464C31.3918 19.3464 40.9749 15.8571 50 8.68695M50 4L48.5091 5.22164C39.9385 12.264 30.8337 15.7134 20.7563 15.7134C10.6788 15.7134 18.6036 15.6734 17.5114 15.5936L15 15.4179V61.5528C15 66.2078 16.8815 70.9826 20.6048 75.7334C23.451 79.3664 27.3815 83.0154 32.3007 86.5845C40.5683 92.5729 48.7005 96.2538 49.0433 96.4055L50 96.8367L50.9567 96.4055C51.2995 96.2538 59.4396 92.5729 67.6993 86.5845C72.6185 83.0154 76.549 79.3664 79.3952 75.7334C83.1105 70.9826 85 66.2078 85 61.5528V15.4179L82.4886 15.5936C81.3964 15.6734 80.3121 15.7134 79.2437 15.7134C69.1663 15.7134 60.0615 12.264 51.4909 5.22164L50 4Z" fill="white"/>
<path d="M50 13.2382C41.3895 19.4742 32.2608 22.668 22.2392 22.9554V61.5529C22.2392 64.5471 23.6025 67.8128 26.2973 71.2541C28.7209 74.3521 32.1731 77.53 36.5421 80.6999C41.8599 84.5564 47.2016 87.4149 50 88.8122C52.7984 87.4149 58.1401 84.5564 63.4578 80.6999C67.8269 77.53 71.2711 74.3521 73.7027 71.2541C76.3975 67.8128 77.7608 64.5471 77.7608 61.5529V22.9475C67.7392 22.66 58.6184 19.4662 50 13.2302V13.2382ZM62.4373 63.7886C62.4373 65.2897 61.2255 66.5033 59.7266 66.5033H40.2654C38.7665 66.5033 37.5547 65.2897 37.5547 63.7886V49.9593C37.5547 48.4582 38.7665 47.2445 40.2654 47.2445H41.1822V42.8849C41.1822 38.1581 45.0091 34.3255 49.7289 34.3255C54.4487 34.3255 58.2756 38.1581 58.2756 42.8849V47.2445H59.7266C61.2255 47.2445 62.4373 48.4582 62.4373 49.9593V63.7886Z" fill="white"/>
<path d="M49.7289 37.8069C46.9305 37.8069 44.6583 40.0825 44.6583 42.8851V47.2447H54.7996V42.8851C54.7996 40.0825 52.5273 37.8069 49.7289 37.8069Z" fill="white"/>
<path d="M51.8736 54.9897C51.8736 53.8958 50.9886 53.0095 49.8964 53.0095C48.8041 53.0095 47.9192 53.8958 47.9192 54.9897C47.9192 56.0836 48.2381 56.2193 48.7244 56.5786L47.9192 60.2595H51.8736L51.0684 56.5786C51.5547 56.2193 51.8736 55.6444 51.8736 54.9897Z" fill="white"/>
</svg>
