<svg width="36" height="36" viewBox="0 0 36 36" fill="none" xmlns="http://www.w3.org/2000/svg">
<path d="M6 9L15.1615 15.9184L15.1645 15.9209C16.1818 16.6669 16.6907 17.0401 17.2481 17.1843C17.7408 17.3118 18.2588 17.3118 18.7515 17.1843C19.3094 17.04 19.8198 16.6657 20.8389 15.9184C20.8389 15.9184 26.7151 11.4089 30 9M4.5 23.7003V12.3003C4.5 10.6201 4.5 9.77943 4.82698 9.1377C5.1146 8.57321 5.57321 8.1146 6.1377 7.82698C6.77943 7.5 7.62014 7.5 9.30029 7.5H26.7003C28.3805 7.5 29.2194 7.5 29.8611 7.82698C30.4256 8.1146 30.8857 8.57321 31.1733 9.1377C31.5 9.7788 31.5 10.6185 31.5 12.2954V23.7054C31.5 25.3822 31.5 26.2207 31.1733 26.8618C30.8857 27.4263 30.4256 27.8857 29.8611 28.1733C29.22 28.5 28.3815 28.5 26.7046 28.5H9.29537C7.61849 28.5 6.7788 28.5 6.1377 28.1733C5.57321 27.8857 5.1146 27.4263 4.82698 26.8618C4.5 26.2201 4.5 25.3805 4.5 23.7003Z" stroke="white" stroke-width="3" stroke-linecap="round" stroke-linejoin="round"/>
</svg>
