<svg width="65" height="38" viewBox="0 0 65 38" fill="none" xmlns="http://www.w3.org/2000/svg">
<g clip-path="url(#clip0_5_475)">
<path fill-rule="evenodd" clip-rule="evenodd" d="M29.3657 0H3.63391C3.11655 0 2.69473 0.42582 2.69473 0.946862V17.924C2.69473 18.4447 3.11655 18.8705 3.63391 18.8705H29.3657C29.8827 18.8705 30.3053 18.4444 30.3053 17.924V0.946862C30.3053 0.426177 29.8827 0 29.3657 0ZM16.5003 0.459344C16.5916 0.459344 16.6663 0.534237 16.6663 0.627318C16.6663 0.720399 16.5916 0.794579 16.5003 0.794579C16.4091 0.794579 16.3337 0.719686 16.3337 0.627318C16.3337 0.53495 16.408 0.459344 16.5003 0.459344ZM29.1541 17.2101H3.84553V1.31954H29.1545V17.2101H29.1541Z" fill="#2E2D2C"/>
<path d="M19.2804 19.377C19.2811 19.4404 19.2818 19.4921 19.2818 19.4979C19.2818 19.7493 19.0624 19.9547 18.7945 19.9547H14.2363C13.968 19.9547 13.749 19.7493 13.749 19.4979C13.749 19.4921 13.7494 19.4408 13.7497 19.377H0V20.3616C0.269651 20.668 1.24882 21.0003 2.09528 21.0003H30.9037C31.7512 21.0003 32.7303 20.6683 33 20.3616V19.377H19.28H19.2804Z" fill="#2E2D2C"/>
<path d="M19.2804 19.377C19.2811 19.4404 19.2818 19.4921 19.2818 19.4979C19.2818 19.7493 19.0624 19.9547 18.7945 19.9547H14.2363C13.968 19.9547 13.749 19.7493 13.749 19.4979C13.749 19.4921 13.7494 19.4408 13.7497 19.377H0V20.3616C0.269651 20.668 1.24882 21.0003 2.09528 21.0003H30.9037C31.7512 21.0003 32.7303 20.6683 33 20.3616V19.377H19.28H19.2804Z" fill="url(#paint0_linear_5_475)" fill-opacity="0.2"/>
</g>
<g clip-path="url(#clip1_5_475)">
<path fill-rule="evenodd" clip-rule="evenodd" d="M61.3657 0H35.6339C35.1165 0 34.6947 0.42582 34.6947 0.946862V17.924C34.6947 18.4447 35.1165 18.8705 35.6339 18.8705H61.3657C61.8827 18.8705 62.3053 18.4444 62.3053 17.924V0.946862C62.3053 0.426177 61.8827 0 61.3657 0ZM48.5003 0.459344C48.5916 0.459344 48.6663 0.534237 48.6663 0.627318C48.6663 0.720399 48.5916 0.794579 48.5003 0.794579C48.4091 0.794579 48.3337 0.719686 48.3337 0.627318C48.3337 0.53495 48.408 0.459344 48.5003 0.459344ZM61.1541 17.2101H35.8455V1.31954H61.1545V17.2101H61.1541Z" fill="#2E2D2C"/>
<path d="M51.2804 19.377C51.2811 19.4404 51.2818 19.4921 51.2818 19.4979C51.2818 19.7493 51.0624 19.9547 50.7945 19.9547H46.2363C45.968 19.9547 45.749 19.7493 45.749 19.4979C45.749 19.4921 45.7494 19.4408 45.7497 19.377H32V20.3616C32.2697 20.668 33.2488 21.0003 34.0953 21.0003H62.9037C63.7512 21.0003 64.7303 20.6683 65 20.3616V19.377H51.28H51.2804Z" fill="#2E2D2C"/>
<path d="M51.2804 19.377C51.2811 19.4404 51.2818 19.4921 51.2818 19.4979C51.2818 19.7493 51.0624 19.9547 50.7945 19.9547H46.2363C45.968 19.9547 45.749 19.7493 45.749 19.4979C45.749 19.4921 45.7494 19.4408 45.7497 19.377H32V20.3616C32.2697 20.668 33.2488 21.0003 34.0953 21.0003H62.9037C63.7512 21.0003 64.7303 20.6683 65 20.3616V19.377H51.28H51.2804Z" fill="url(#paint1_linear_5_475)" fill-opacity="0.2"/>
</g>
<g clip-path="url(#clip2_5_475)">
<rect x="15" y="9.875" width="35" height="22.9688" fill="white"/>
<path fill-rule="evenodd" clip-rule="evenodd" d="M50.0442 8H14.9553C14.2499 8 13.6747 8.60831 13.6747 9.35266V33.6058C13.6747 34.3496 14.2499 34.9579 14.9553 34.9579H50.0442C50.7492 34.9579 51.3254 34.3491 51.3254 33.6058V9.35266C51.3254 8.60882 50.7492 8 50.0442 8ZM32.5005 8.65621C32.625 8.65621 32.7268 8.7632 32.7268 8.89617C32.7268 9.02914 32.625 9.13511 32.5005 9.13511C32.376 9.13511 32.2732 9.02812 32.2732 8.89617C32.2732 8.76421 32.3745 8.65621 32.5005 8.65621ZM49.7556 32.5858H15.2439V9.88506H49.7561V32.5858H49.7556Z" fill="#2E2D2C"/>
<path d="M36.2914 35.6816C36.2924 35.7723 36.2933 35.8462 36.2933 35.8544C36.2933 36.2135 35.9942 36.507 35.6289 36.507H29.4131C29.0473 36.507 28.7486 36.2135 28.7486 35.8544C28.7486 35.8462 28.7491 35.7728 28.7496 35.6816H10V37.0883C10.3677 37.5259 11.7029 38.0008 12.8572 38.0008H52.1414C53.2971 38.0008 54.6323 37.5265 55 37.0883V35.6816H36.2909H36.2914Z" fill="#2E2D2C"/>
<path d="M36.2914 35.6816C36.2924 35.7723 36.2933 35.8462 36.2933 35.8544C36.2933 36.2135 35.9942 36.507 35.6289 36.507H29.4131C29.0473 36.507 28.7486 36.2135 28.7486 35.8544C28.7486 35.8462 28.7491 35.7728 28.7496 35.6816H10V37.0883C10.3677 37.5259 11.7029 38.0008 12.8572 38.0008H52.1414C53.2971 38.0008 54.6323 37.5265 55 37.0883V35.6816H36.2909H36.2914Z" fill="url(#paint2_linear_5_475)" fill-opacity="0.2"/>
</g>
<defs>
<linearGradient id="paint0_linear_5_475" x1="0" y1="20.1886" x2="33" y2="20.1886" gradientUnits="userSpaceOnUse">
<stop stop-opacity="0"/>
<stop offset="1"/>
</linearGradient>
<linearGradient id="paint1_linear_5_475" x1="32" y1="20.1886" x2="65" y2="20.1886" gradientUnits="userSpaceOnUse">
<stop stop-opacity="0"/>
<stop offset="1"/>
</linearGradient>
<linearGradient id="paint2_linear_5_475" x1="10" y1="36.8412" x2="55" y2="36.8412" gradientUnits="userSpaceOnUse">
<stop stop-opacity="0"/>
<stop offset="1"/>
</linearGradient>
<clipPath id="clip0_5_475">
<rect width="33" height="21" fill="white"/>
</clipPath>
<clipPath id="clip1_5_475">
<rect width="33" height="21" fill="white" transform="translate(32)"/>
</clipPath>
<clipPath id="clip2_5_475">
<rect width="45" height="30" fill="white" transform="translate(10 8)"/>
</clipPath>
</defs>
</svg>
