<svg width="31" height="44" viewBox="0 0 31 44" fill="none" xmlns="http://www.w3.org/2000/svg">
<g clip-path="url(#clip0_5_458)">
<path d="M2.0932 39.0062C2.05002 38.9948 1.87731 38.8359 1.87731 38.5161V2.38242C1.87731 2.06073 2.05002 1.90366 2.09132 1.89231H17.4702C18.9533 1.89231 20.1698 3.07879 20.2167 4.57182L20.412 10.6594L28.2272 12.0294C28.6327 12.09 29.1227 12.6293 29.1227 13.0437V33.6226C29.8398 33.632 30.5044 33.9178 31 34.406V12.4665C31 11.791 30.7541 11.1362 30.3092 10.631L23.6316 3.02391C21.9439 1.10132 19.5165 0 16.969 0H2.09132C0.936777 0 0 1.06726 0 2.38242V38.5161C0 39.8312 0.936777 40.8985 2.09132 40.8985H18.4051L17.0366 39.0062H2.0932Z" fill="black"/>
<path d="M26.4137 14.8584H7.06244V17.4225H26.4137V14.8584Z" fill="black"/>
<path d="M15.5009 8.97363H7.06244V11.5377H15.5009V8.97363Z" fill="black"/>
<path d="M4.58624 29.3404H18.6229V27.8663C18.6229 27.4841 18.6923 27.1189 18.8125 26.7764H4.58624V29.3404Z" fill="black"/>
<path d="M26.4137 20.8906H4.58624V23.4547H26.4137V20.8906Z" fill="black"/>
<path d="M15.499 32.8066H4.58624V35.3707H15.499V32.8066Z" fill="black"/>
<path d="M29.7816 36.8884C29.9712 36.6253 29.9994 36.2771 29.8529 35.9857C29.7065 35.6943 29.4099 35.5126 29.087 35.5126H26.7329L27.1083 27.8658C27.1083 27.1051 26.4963 26.4863 25.7398 26.4863H21.8669C21.1122 26.4863 20.4983 27.1032 20.4983 27.8658L20.8738 35.5126H18.5196C18.1967 35.5126 17.9001 35.6962 17.7537 35.9857C17.6073 36.2771 17.6354 36.6253 17.825 36.8884L22.4826 43.3222C22.7905 43.748 23.2824 43.9997 23.8043 43.9997C24.3261 43.9997 24.818 43.748 25.1259 43.3222L29.7835 36.8884H29.7816Z" fill="black"/>
</g>
<defs>
<clipPath id="clip0_5_458">
<rect width="31" height="44" fill="white"/>
</clipPath>
</defs>
</svg>
