<svg width="346" height="144" viewBox="0 0 346 144" fill="none" xmlns="http://www.w3.org/2000/svg">
<path d="M14.4477 37.0129L9.16729 50.9937C8.947 51.6559 8.6541 52.6129 8.6541 53.348C8.6541 55.6294 11.3669 55.6294 14.0806 55.6294V57.7635H0V55.6294C3.37369 55.6294 4.98669 55.1145 6.45366 51.2147L25.742 0H29.4828L48.697 50.92C50.1639 54.7461 51.9972 55.6294 55.8115 55.6294V57.7635H34.0298V55.6294C38.0627 55.5557 40.1171 55.5557 40.1171 53.348C40.1171 52.7594 39.6031 51.0665 39.3836 50.5516L34.3969 37.012L14.4477 37.0129ZM33.5884 34.8788L24.4227 10.4494L15.182 34.8788H33.5884Z" fill="white"/>
<path d="M76.1303 1.32446L94.172 45.5475L111.04 1.32446H125.927V3.45854H123.506C120.867 3.45854 119.473 4.48834 119.693 8.31528L122.113 50.7726C122.261 53.4216 122.334 55.6294 126.514 55.6294H128.861V57.7634H107.154V55.6294H108.987C111.774 55.6294 113.606 55.0408 113.387 50.7726L110.967 8.16793L92.3387 57.7626H89.7719L69.9696 9.2714L67.6965 50.7726C67.4762 54.9671 69.4564 55.6294 72.0974 55.6294H74.5173V57.7634H58.4558V55.6294H60.8757C64.3963 55.6294 65.1298 53.8637 65.2766 50.7726L67.6239 8.31528C67.8442 4.41549 66.4507 3.45854 63.8831 3.45854H61.4632V1.32446H76.1303Z" fill="white"/>
<path d="M159.301 1.32446C185.557 1.32446 189.59 18.9104 189.59 29.6536C189.59 44.8853 181.376 51.5814 176.609 54.2304C170.302 57.689 160.254 57.7618 159.301 57.7618H132.678V55.6277H135.098C139.279 55.6277 139.499 53.4945 139.499 50.771V8.31528C139.499 5.51895 139.279 3.45854 135.098 3.45854H132.678V1.32446H159.301ZM148.227 3.45854V55.6285H159.081C179.176 55.6285 180.349 37.3067 180.349 29.2861C180.349 15.5992 175.436 3.45854 159.081 3.45854H148.227Z" fill="white"/>
<path d="M199.4 2.06369C199.942 1.7117 200.548 1.36053 201.44 1.36053C203.29 1.36053 205.521 2.83151 205.521 3.91939C205.521 4.23946 205.107 5.48696 205.075 5.74317C205.011 6.25478 204.98 7.18223 204.98 8.14241C204.98 10.6055 205.267 11.2775 205.553 11.8211C206.478 11.4052 210.718 9.64613 211.547 9.26222C213.301 8.43055 213.492 8.33478 213.875 8.33478C215.023 8.33478 216.713 9.39074 216.713 10.6063C216.713 11.5976 216.076 11.7261 214.163 12.1739C213.429 12.3335 197.52 15.9164 197.52 21.0988C197.52 24.2978 202.239 24.5532 205.682 24.5532C207.5 24.5532 209.317 24.4255 210.879 24.2012C211.484 24.1054 214.163 23.4653 214.705 23.4653C216.076 23.4653 217.606 24.5851 217.606 25.736C217.606 26.8869 216.427 27.2397 214.258 27.4313C211.516 27.6547 209.061 27.7513 207.021 27.7513C201.665 27.7513 199.752 26.792 198.7 26.1518C197.01 25.1605 195.895 23.3048 195.895 21.4491C195.895 18.7945 197.425 16.0752 203.036 13.1005C201.825 11.6934 201.794 10.4459 201.729 7.95005C201.633 3.47163 201.474 3.02387 199.369 2.44842L199.401 2.06451L199.4 2.06369Z" fill="white"/>
<path d="M195.863 36.6821C195.991 36.6821 196.756 36.5864 196.883 36.5864C199.243 36.5864 201.06 38.5059 201.06 39.913C201.06 40.5212 200.327 43.112 200.231 43.6556C199.656 46.5026 199.688 48.1659 199.688 48.4851C199.688 51.6841 201.06 53.9876 201.984 53.9876C202.653 53.9876 203.355 53.0282 206.734 48.1978L207.053 48.3574C206.702 49.2849 205.076 53.3794 204.79 54.243C204.663 54.6269 204.535 54.9789 204.535 55.3628C204.535 55.6829 204.918 57.1219 204.918 57.442C204.918 58.2098 204.217 58.8499 203.387 58.8499C202.048 58.8499 196.98 56.8665 196.98 46.6303C196.98 45.6709 197.234 41.3521 197.234 40.4885C197.234 37.9296 196.342 37.418 195.704 37.0333L195.863 36.6821ZM213.876 51.2044C214.355 51.1087 216.364 50.629 216.778 50.5005C217.607 50.2123 217.734 49.7326 217.734 49.1572C217.734 47.4619 216.714 41.9922 212.952 39.6249L213.112 39.2729C215.184 39.6568 217.575 40.3608 219.519 43.9118C221.177 46.8865 221.369 49.5092 221.369 50.8213C221.369 53.3483 220.349 53.9884 219.584 53.9884C218.947 53.9884 218.659 53.5726 218.277 53.029C217.925 52.5494 217.479 51.9092 213.909 51.5892L213.877 51.2053L213.876 51.2044Z" fill="white"/>
<path d="M231.066 61.1214C233.425 60.1301 236.454 58.8826 239.164 55.6828C240.536 54.0833 242.257 51.3648 242.257 47.5904C242.257 45.6708 241.779 42.408 238.495 42.408C235.561 42.408 232.693 44.7115 230.907 46.5025C229.089 48.2936 228.866 48.5178 228.165 48.5178C226.73 48.5178 225.456 46.7907 225.456 45.4146C225.456 45.1912 225.488 44.7434 225.743 44.3914C226.03 44.0075 226.604 43.2397 226.604 43.2078L226.986 43.2397C226.986 44.0075 227.369 44.3276 227.784 44.3276C228.039 44.3276 228.167 44.3276 229.57 43.7202C233.905 41.8006 235.723 41.0009 238.464 41.0009C242.577 41.0009 245.797 43.3035 245.797 48.3582C245.797 55.9398 239.228 60.3855 231.162 61.4734L231.066 61.1214ZM230.683 32.8438C232.66 34.3475 234.732 34.3795 238.877 34.5391C242.097 34.6348 242.193 36.6183 242.193 36.9383C242.193 38.1858 240.885 38.1858 240.439 38.1858C237.73 38.1858 237.091 38.1858 233.138 39.3695L232.979 39.0175C233.904 38.4101 235.466 37.3861 235.466 37.2584C235.466 37.1307 234.956 37.0349 234.669 36.9702C231.704 36.3309 230.651 34.3795 230.365 33.0673L230.684 32.8438H230.683Z" fill="white"/>
<path d="M36.9806 89.886C36.9169 89.886 34.8128 90.2061 33.9194 90.3338V95.9011C33.9194 97.0529 34.1739 102.684 34.1739 104.028C34.1739 106.204 31.4962 106.588 29.7739 106.588C28.0515 106.588 28.0523 105.948 28.0523 103.773H22.3126V111.323H26.4581L29.2003 107.356C29.4548 106.972 29.7102 106.588 30.1565 106.588C30.4763 106.588 30.9218 106.972 31.2408 107.228L35.9599 111.515C36.0872 111.643 36.4062 112.027 36.4062 112.347C36.4062 113.115 35.6409 113.115 35.2582 113.115H22.3126V114.906C22.3126 116.314 22.5035 123.033 22.5035 124.505C22.5035 125.465 22.5035 127.257 17.7836 127.257C16.0621 127.257 15.9984 126.297 15.9984 125.337C15.9984 123.865 16.0621 116.827 16.0621 115.227V113.115H6.68674C4.32638 113.115 3.11479 113.243 1.64783 113.371L0.755249 111.067C2.6685 111.196 4.64621 111.323 7.13221 111.323H16.0613V103.773H10.5761C10.5761 105.82 10.5761 107.036 6.23963 107.036C4.58094 107.036 4.45366 106.14 4.45366 105.436C4.45366 104.284 4.64539 98.8448 4.64539 97.6292V87.1986C4.64539 85.0228 4.58094 82.0799 4.45366 79.7117L11.1504 82.9116H22.4399C23.9705 78.6246 26.2019 71.6493 26.7763 67.4901L33.9822 70.3699C35.5128 71.01 35.6401 71.4578 35.6401 71.8417C35.6401 72.6734 34.6839 72.7373 32.8979 72.8011C29.6466 77.5367 27.4135 79.9679 24.1614 82.9116H27.6052L29.6466 80.288C30.1565 79.6479 30.3474 79.584 30.6036 79.584C31.0499 79.584 31.4326 79.8402 31.8152 80.1603L35.0029 82.72C35.3219 82.9755 35.7682 83.4879 35.7682 83.9357C35.7682 84.6397 35.4492 84.8312 33.9186 85.7914V88.415L37.2343 88.0949L39.6583 87.7749C39.531 84.8951 39.4038 70.6891 38.9575 67.4901L46.3551 68.3864C46.8022 68.4503 48.2055 68.6418 48.2055 69.4097C48.2055 70.2422 47.3758 70.4976 46.0369 70.8815C46.0369 80.288 45.9733 83.6794 46.1005 86.9432L50.3097 86.4316L52.4147 82.4638C52.861 81.6321 52.9246 81.5044 53.4345 81.4406C52.6692 80.9928 52.6056 80.7366 51.8403 78.6893C50.2461 74.53 50.1824 74.2099 47.6948 70.8185L48.0774 70.1145C53.3073 71.3939 57.9635 74.4023 57.9635 78.5616C57.9635 80.6089 56.3056 82.0807 54.2007 81.7606L59.2396 85.536C59.6222 85.8561 59.8768 86.1123 59.8768 86.4954C59.8768 87.1356 59.2396 87.1994 58.5371 87.2633L46.1642 88.7989C46.3551 93.8538 46.6741 98.0769 47.3758 102.365C47.8857 101.532 50.6915 96.8613 52.223 90.9101L57.7718 94.9417C59.047 95.9011 59.2388 96.0296 59.2388 96.4774C59.2388 97.1814 58.6644 97.1814 56.9428 97.3729C53.6907 103.26 51.9039 106.139 49.1617 109.532C50.1188 112.283 52.032 116.891 53.818 116.891C55.3486 116.891 57.8362 111.196 58.7288 109.212L59.4305 109.468C58.9197 113.179 58.8561 113.563 58.6652 114.779C58.0916 117.978 58.0916 118.298 58.0916 119.13C58.0916 120.09 58.2189 120.601 58.4106 121.049C59.1123 123.097 59.2404 123.481 59.2404 124.185C59.2404 124.569 59.1131 126.873 55.9238 126.873C52.289 126.873 47.5055 122.649 44.3807 114.779C41.6385 117.466 35.5789 123.161 26.4597 126.425L26.1399 125.785C31.3697 121.946 36.3442 117.594 42.722 109.403C41.9567 106.523 40.5533 101.084 39.7872 89.566L36.9806 89.886ZM2.92387 68.6418C6.94211 69.8574 13.0017 73.185 13.0017 77.9206C13.0017 79.7117 11.662 81.4398 9.74876 81.4398C7.83551 81.4398 7.45367 80.2241 6.94293 78.3684C6.75201 77.6005 5.34869 73.1212 2.4784 69.282L2.92387 68.6418ZM10.5777 84.6397V92.3181H16.0629V84.6397H10.5777ZM16.0629 94.11H10.5777V101.981H16.0629V94.11ZM13.3843 67.6178C16.1902 68.7695 22.1217 72.4172 22.1217 76.9604C22.1217 80.288 19.6348 80.7358 18.8059 80.7358C16.8927 80.7358 16.6373 79.6479 16.0637 76.6403C15.1703 72.3533 13.7678 69.7936 12.8752 68.194L13.3843 67.6178ZM22.3134 84.6388V92.3173H28.0532V84.6388H22.3134ZM28.0532 94.1092H22.3134V101.98H28.0532V94.1092Z" fill="white"/>
<path d="M88.7692 107.996C88.7692 109.211 89.0245 114.651 89.0245 115.738C89.0245 118.106 86.7923 118.489 85.3253 118.489C83.6674 118.489 83.6674 117.913 83.6674 116.762V114.523H72.7615V118.618C72.7615 119.578 72.7615 121.114 68.8705 121.114C67.2127 121.114 67.2126 120.154 67.2126 119.578C67.2126 118.299 67.4036 112.603 67.4036 111.451V80.1595C67.4036 75.2962 67.3399 74.1444 67.2126 71.073L73.2714 74.1444H83.2203L84.9427 71.777C85.389 71.2007 85.6435 71.073 85.8989 71.073C86.2187 71.073 86.4733 71.2007 87.0468 71.7132L90.4279 74.593C90.7469 74.9131 91.1287 75.2331 91.1287 75.7448C91.1287 76.1925 90.8742 76.6403 88.7684 77.6005V90.0792C95.785 76.3211 96.7404 69.9221 97.1875 67.1069L104.777 69.2189C105.798 69.4743 106.371 69.7952 106.371 70.4345C106.371 71.2662 105.67 71.3939 103.884 71.714C103.183 73.3774 102.736 74.2091 101.97 75.6809H111.665L114.024 72.9935C114.47 72.5457 114.662 72.2895 115.045 72.2895C115.555 72.2895 115.874 72.6095 116.32 73.0573L120.848 77.2166C121.231 77.6005 121.486 77.9206 121.486 78.3684C121.486 79.2647 120.529 79.3924 118.424 79.7764C114.406 85.9199 113.578 87.1355 111.027 89.8868C114.981 91.9988 120.147 93.9823 124.803 94.6863V95.4541C123.399 96.542 121.04 98.3978 120.466 102.877C118.808 102.045 112.558 99.1018 106.883 93.7907C104.65 95.6465 100.887 98.7179 94.7007 101.405L100.186 103.709H111.219L113.259 100.829C113.642 100.317 113.897 100.189 114.216 100.189C114.598 100.189 114.981 100.509 115.3 100.701L119.828 104.028C120.339 104.412 120.658 104.668 120.658 105.116C120.658 105.5 120.594 105.884 118.426 107.036V117.978C118.426 118.938 118.617 123.993 118.617 124.249C118.617 126.68 115.811 127.129 113.961 127.129C111.857 127.129 111.857 126.297 111.857 124.953V123.353H99.4842V124.697C99.4842 127 96.742 127.257 94.956 127.257C92.7238 127.257 92.7238 126.105 92.7238 125.337C92.7238 124.185 92.9155 119.13 92.9155 118.106V106.716C92.9155 106.012 92.8519 102.812 92.7874 102.172C91.0022 102.812 90.2369 103.069 88.7692 103.58V107.996ZM72.7615 75.9363V93.2136H76.0136V75.9363H72.7615ZM72.7615 95.0055V112.731H76.0136V95.0055H72.7615ZM83.6674 75.9363H80.2864V93.2136H83.6674V75.9363ZM83.6674 95.0055H80.2864V112.731H83.6674V95.0055ZM88.7692 102.236C97.7619 95.6457 101.653 91.6141 103.247 89.7583C100.632 86.4307 99.4206 83.6794 98.528 81.5036C94.2552 87.9664 90.7469 90.3985 88.7692 91.8056V102.236ZM99.4842 105.5V121.562H111.857V105.5H99.4842ZM101.016 77.472C99.9949 79.2001 99.8677 79.3916 99.6115 79.7755C101.334 82.1437 103.056 84.1911 105.926 86.4946C109.179 82.2076 110.582 79.2001 111.411 77.472H101.016Z" fill="white"/>
<path d="M145.851 80.5442L147.7 77.7929C148.019 77.2813 148.274 77.1527 148.594 77.1527C148.914 77.1527 149.167 77.2804 149.677 77.6644L154.206 80.992C154.716 81.3759 154.907 81.6959 154.907 82.0799C154.907 82.8477 154.397 83.1678 152.676 84.1919V96.4143C158.862 84.3204 161.477 74.7854 162.115 67.2346L169.959 69.3466C171.17 69.6667 172 69.9867 172 70.7546C172 71.4586 171.107 71.5863 169.512 71.7786C167.663 76.5781 166.642 78.6254 164.984 81.6968H176.974L178.951 78.9455C179.142 78.6254 179.525 78.1138 179.972 78.1138C180.355 78.1138 181.055 78.6254 181.184 78.6901L186.222 82.2092C187.051 82.7855 187.242 83.0409 187.242 83.4887C187.242 84.2565 186.988 84.3842 184.691 85.9207C184.181 122.395 183.288 127.194 169.066 127.131C169.066 121.627 166.77 120.795 161.03 118.748L161.093 117.98C170.341 118.492 171.361 118.557 172.063 118.557C174.359 118.557 175.443 118.173 176.145 115.549C177.293 111.517 177.42 102.303 177.802 83.4895H163.963C159.371 91.4242 154.97 95.5196 153.12 97.2477L152.674 96.8637V111.005C152.674 112.221 152.865 117.98 152.865 119.324C152.865 121.115 151.398 121.883 148.081 121.883C146.232 121.883 146.232 120.988 146.232 119.644V117.404H138.068V120.667C138.068 122.779 138.068 124.187 133.348 124.187C131.117 124.187 131.117 123.227 131.117 122.203C131.117 121.052 131.371 115.421 131.371 114.14V85.2806C131.371 80.9289 131.308 80.0972 131.117 77.0259L136.92 79.7772C138.387 72.9304 138.578 72.1626 139.089 67.3631L147.252 69.6028C147.826 69.7305 149.166 70.3068 149.166 71.0747C149.166 71.9063 147.954 72.0341 146.295 72.0341C144 75.1701 140.299 79.0732 138.578 80.545H145.849L145.851 80.5442ZM138.07 82.3353V97.6291H146.233V82.3353H138.07ZM146.233 99.421H138.07V115.61H146.233V99.421ZM159.691 91.5502C163.325 93.0859 167.727 96.9251 168.811 98.013C170.15 99.2287 171.809 101.532 171.809 104.541C171.809 107.996 169.385 109.595 167.472 109.595C165.24 109.595 164.666 107.74 164.028 105.245C163.198 101.917 161.604 97.3737 159.053 92.1904L159.691 91.5502Z" fill="white"/>
<path d="M198.847 95.9706C199.325 95.811 199.773 95.6825 200.346 95.6825C202.196 95.6825 203.822 97.2173 203.822 98.1456C203.822 98.5614 203.758 98.6891 202.896 99.8089C202.674 100.097 202.514 100.352 202.355 100.641C202.928 100.513 203.47 100.321 203.981 100.129C204.554 99.9374 205.447 99.5846 205.734 99.5846C206.627 99.5846 207.902 100.257 207.902 101.088C207.902 101.984 207.455 102.24 200.983 103.424C200.123 105.311 196.424 113.66 195.595 115.323C194.479 117.594 193.778 117.594 193.395 117.594C192.184 117.594 191.833 116.155 191.833 115.515C191.833 114.715 192.024 114.459 193.618 112.06C194.384 110.909 196.296 107.614 198.018 103.935C197.796 103.967 196.583 104.159 195.5 104.159C193.044 104.159 192.598 102.655 192.12 101.024L192.439 100.832C192.885 101.184 193.555 101.728 195.308 101.728C196.073 101.728 197.221 101.664 199.166 101.344C199.485 100.512 200.187 98.8168 200.187 98.0171C200.187 96.9938 199.166 96.5453 198.752 96.3218L198.847 95.9706ZM207.519 103.36C208.603 103.04 209.241 102.848 210.389 102.848C213.577 102.848 216.862 104.671 216.862 106.782C216.862 107.614 216.288 108.254 215.522 108.254C215.107 108.254 214.98 108.19 213.96 107.582C213.386 107.262 212.972 107.134 212.398 107.134C209.72 107.134 209.72 109.086 209.72 110.013C209.72 110.877 209.784 111.388 210.198 115.803C214.438 117.498 215.426 118.873 215.426 120.218C215.426 121.113 214.885 121.913 214.024 121.913C213.45 121.913 213.035 121.593 212.557 121.145C211.154 119.898 211.027 119.802 210.198 119.226C209.655 121.881 207.327 122.873 204.491 122.873C198.847 122.873 198.847 119.194 198.847 118.779C198.847 116.827 200.41 114.684 204.618 114.684C205.766 114.684 206.531 114.812 207.168 114.939C207.105 112.637 207.105 112.381 207.105 111.965C207.105 109.31 207.455 107.359 211.44 106.335C211.759 106.24 212.397 106.08 212.397 105.92C212.397 105.408 210.198 104.256 207.455 103.744L207.519 103.36ZM203.215 116.955C201.462 116.955 200.282 117.691 200.282 118.586C200.282 119.642 201.654 120.281 203.631 120.281C207.169 120.281 207.201 118.298 207.201 117.626C205.798 117.114 204.236 116.954 203.215 116.954V116.955Z" fill="white"/>
<path d="M259.789 107.867C260.172 107.867 275.287 108.891 275.287 115.418C275.287 115.802 275.287 116.89 274.457 117.913C277.519 117.658 278.667 117.529 281.218 117.209V117.977C278.922 120.024 277.391 121.561 277.136 125.784L259.852 125.72C244.482 125.656 237.658 124.248 234.406 114.969C231.599 119.193 226.815 124.44 226.688 124.568C226.815 126.168 226.752 127.128 225.923 127.128C225.222 127.128 224.648 126.04 224.52 125.849L220.374 117.978C223.053 117.466 226.561 115.994 228.985 114.395V96.2858H226.88C224.967 96.2858 224.648 96.2858 221.523 96.5412L220.629 94.2377C222.48 94.3654 224.52 94.4931 227.072 94.4931H228.539L230.899 91.4856C231.153 91.1016 231.536 90.7816 231.983 90.7816C232.43 90.7816 232.939 91.1016 233.195 91.2932L237.723 94.8131C238.36 95.3248 238.616 95.5171 238.616 95.9649C238.616 96.8613 237.659 97.3729 235.938 98.3331V110.619C235.938 113.115 235.938 115.226 239.509 117.018C244.931 112.411 247.163 110.492 249.012 107.484H243.526C241.741 107.484 241.039 107.548 237.914 107.74L237.085 105.436C241.039 105.691 241.486 105.691 243.654 105.691H245.95V98.4608C243.973 98.4608 243.589 98.5247 240.21 98.7809L239.38 96.4135C243.143 96.6689 243.845 96.7336 245.95 96.7336C245.95 95.0063 245.822 91.8703 245.695 90.3346L253.348 91.294C253.922 91.3579 254.879 91.4864 254.879 92.2542C254.879 92.7658 254.879 93.0221 252.584 93.9176V96.7328H260.237C260.237 96.6689 260.237 93.5975 259.918 90.2699L267.508 91.2293C268.145 91.2932 269.102 91.357 269.102 92.1896C269.102 92.8297 268.656 93.1489 266.742 93.8529V96.7328H268.464L270.759 93.4052C271.014 93.0851 271.205 92.7658 271.652 92.7658C272.098 92.7658 272.352 93.0212 272.672 93.3413L276.371 96.7966C276.626 97.0528 276.945 97.3729 276.945 97.7568C276.945 98.4608 275.924 98.4608 275.542 98.4608H266.741V105.691H269.675L272.098 102.044C272.352 101.724 272.545 101.404 273.119 101.404C273.501 101.404 273.692 101.595 274.076 101.98L278.285 105.819C278.604 106.139 278.795 106.395 278.795 106.715C278.795 107.483 277.838 107.483 277.455 107.483H250.159L255.325 110.362C255.898 110.682 256.473 111.13 256.473 111.77C256.473 112.538 255.708 112.603 255.133 112.603C254.686 112.603 254.176 112.538 253.858 112.474C249.011 115.162 246.013 116.442 240.847 117.594C242.761 118.234 245.249 118.938 252.008 118.938C257.111 118.938 267.507 118.426 270.759 118.17C270.058 117.659 267.571 114.779 266.996 114.266C264.446 111.707 263.042 110.747 259.47 108.571L259.789 107.867ZM222.607 69.4088C225.605 70.2413 237.149 73.6328 237.149 80.2872C237.149 83.167 235.171 85.2143 233.002 85.2143C231.344 85.2143 231.153 84.7027 229.049 80.2233C226.114 74.1444 223.308 71.2646 222.224 70.1128L222.607 69.4088ZM238.871 82.2068C238.871 79.9032 238.744 78.3029 238.616 75.5516L244.675 77.6635H249.14V72.7364H243.464C241.296 72.7364 240.912 72.7364 237.66 72.928L236.83 70.6883C240.912 70.8798 241.232 70.8798 243.591 70.8798H249.076L250.735 68.8964C251.181 68.3201 251.245 68.2562 251.627 68.2562C252.01 68.2562 252.265 68.4478 252.712 68.7679L256.22 71.2638C256.603 71.5838 256.857 71.7754 256.857 72.2232C256.857 72.8633 256.092 73.3111 255.136 73.8874V75.9993C255.136 76.511 255.199 78.5591 255.199 78.943C255.199 79.647 255.072 79.9032 254.689 80.2872C255.008 83.2308 255.263 83.6786 255.964 84.191C257.559 85.4067 257.686 85.5352 257.686 86.5584C257.686 89.6298 254.37 89.886 250.415 89.886C248.565 89.886 242.507 89.9499 241.55 89.6306C238.872 88.7989 238.872 86.5592 238.872 84.5111V82.2076L238.871 82.2068ZM244.738 82.5268C244.738 84.3826 244.993 84.7027 248.055 84.7027C252.2 84.7027 252.455 84.7027 253.794 80.7988C252.901 81.0542 252.008 81.1827 251.179 81.1827C249.138 81.1827 249.138 80.6711 249.138 79.4546H244.737V82.526L244.738 82.5268ZM260.237 98.46H252.583V105.691H260.237V98.46ZM275.287 80.6064C275.861 83.8055 275.861 84.1894 276.818 84.8295C277.902 85.5974 278.285 85.8528 278.285 87.0054C278.285 90.2691 275.414 90.2691 266.805 90.2691C260.428 90.2691 258.769 90.2691 258.769 84.7018V82.2698C258.769 79.8386 258.705 77.8543 258.578 75.5507L264.701 77.6627H269.166V72.7356H264.319C262.151 72.7356 261.832 72.7356 258.515 72.9271L257.686 70.6875C261.832 70.879 262.087 70.879 264.447 70.879H269.038L270.823 68.8317C271.206 68.3839 271.397 68.1924 271.716 68.1924C272.099 68.1924 272.29 68.3201 272.8 68.704L276.563 71.4553C276.946 71.7115 277.137 71.9669 277.137 72.2878C277.137 72.8633 276.499 73.1834 275.287 73.8874V75.8708C275.287 76.4471 275.414 79.1984 275.351 79.4538C275.287 79.7092 275.159 80.094 274.586 80.5417L275.287 80.6064ZM264.765 82.8461C264.765 85.0219 265.211 85.0858 268.719 85.0858C272.864 85.0858 273.119 85.0858 274.586 80.6064C273.692 81.0542 272.736 81.2465 271.142 81.2465C269.165 81.2465 269.165 80.7349 269.165 79.4546H264.764V82.8461H264.765Z" fill="white"/>
<path d="M300.416 95.5818C303.094 94.814 307.432 93.5984 310.174 92.8305V77.6005C310.174 76.5773 310.11 72.5457 309.855 69.2819L317.636 72.4818H332.241L334.218 69.602C334.664 68.9619 334.983 68.7695 335.366 68.7695C335.748 68.7695 336.195 69.0257 336.641 69.3458L341.616 72.7372C341.999 72.9935 342.381 73.2489 342.381 73.8251C342.381 74.6568 340.787 75.4885 339.766 75.9371V85.5998C339.766 87.0078 339.957 93.663 339.957 94.4309C339.957 97.246 336.577 97.4384 334.791 97.4384C332.686 97.4384 332.686 96.479 332.686 95.0072V93.2153H325.48C327.967 102.878 333.069 114.268 345.25 119.067L345.187 119.835C343.146 120.859 341.041 121.947 339.192 126.874C335.875 124.635 324.714 115.356 323.884 93.2153H317.252V94.6232C317.252 118.492 306.856 125.211 303.22 127.578L302.646 127.067C307.302 118.556 310.172 112.477 310.172 94.8795V93.8554C307.302 96.0312 305.198 97.5031 300.414 100.319V111.645C300.414 112.797 300.541 118.492 300.541 119.836C300.541 125.723 297.863 126.939 291.74 127.259C291.613 121.692 290.273 121.116 285.235 119.196V118.428L292.059 118.556C293.653 118.556 293.653 117.852 293.653 117.148V104.03C292.378 104.67 291.803 104.989 288.934 106.462C288.807 107.741 288.679 108.574 287.849 108.574C287.276 108.574 287.02 108.254 286.574 106.718L284.278 99.3588C289.381 98.5271 289.954 98.4633 293.654 97.4392V83.6172H290.656C288.679 83.6172 288.424 83.6811 285.299 83.8726L284.406 81.5691C286.383 81.6968 288.36 81.8253 290.848 81.8253H293.654V74.2099C293.654 70.8184 293.526 68.7065 293.463 67.4908L300.86 68.3872C301.945 68.5149 302.774 68.7073 302.774 69.4105C302.774 70.3068 301.18 70.7546 300.414 70.9461V81.8245H302.838L304.688 78.4969C304.879 78.1768 305.198 77.729 305.645 77.729C306.155 77.729 306.475 78.0491 306.729 78.433L309.408 81.9522C309.535 82.1437 309.854 82.5923 309.854 82.9116C309.854 83.6156 309.28 83.6156 308.579 83.6156H300.415V95.5818H300.416ZM332.688 74.2729H317.254V91.3587H332.688V74.2729Z" fill="white"/>
<path d="M108.204 123.584H0.847412V143.531H108.204V123.584Z" fill="black"/>
<path d="M7.85864 137.63C10.4102 136.697 13.4148 134.089 14.7376 130.452H8.53896V129.149H16.5513C16.3844 129.867 15.9664 131.757 14.2621 134.113C15.6564 135.237 17.0156 136.41 18.2921 137.665L17.1699 138.802C15.8233 137.212 13.9983 135.596 13.4513 135.142C12.0682 136.745 10.5659 137.989 8.68344 138.754L7.85864 137.63Z" fill="white"/>
<path d="M24.5676 128.49V131.553C27.4642 132.379 29.731 133.682 30.5292 134.149L29.8853 135.524C28.5499 134.724 26.2018 133.395 24.5676 132.977V139.053H23.1368V128.49H24.5676Z" fill="white"/>
<path d="M44.3684 131.816C44.0822 134.304 43.6165 138.204 36.5945 138.885L36.2242 137.641C36.9045 137.617 38.895 137.534 40.6834 136.434C42.2699 135.453 42.6276 133.91 42.7945 133.097H34.7233V131.816H44.3684ZM43.7484 128.982V130.25H35.5831V128.982H43.7484Z" fill="white"/>
<path d="M58.9215 132.116V133.371H54.963C54.7849 136.242 53.8787 138.228 50.0395 138.97L49.4195 137.834C52.9964 137.247 53.4734 135.622 53.6038 133.373H48.9552V132.117H58.9215V132.116ZM57.9438 129.041V130.285H49.9329V129.041H57.9438Z" fill="white"/>
<path d="M66.5315 134.28C65.1372 133.515 63.6952 133.049 63.1945 132.893L63.7303 131.649C63.9098 131.696 65.8765 132.258 67.0912 132.928L66.5315 134.279V134.28ZM63.8734 137.234C68.3789 136.864 70.4297 135.429 71.9558 130.727L73.2435 131.301C71.6458 135.786 69.6077 138.072 64.2072 138.669L63.8748 137.233L63.8734 137.234ZM67.4615 131.505C66.1991 130.87 65.0657 130.476 64.1357 130.202L64.708 128.945C66.5077 129.483 67.4026 129.889 68.0689 130.202L67.4615 131.505ZM71.0862 130.321C70.9192 129.508 70.7649 129.029 70.5265 128.395L71.5042 128.179C71.8015 128.897 71.9095 129.208 72.1129 130.082L71.0862 130.321ZM72.8269 130.069C72.5534 128.993 72.3262 128.503 72.2069 128.24L73.172 128.025C73.5058 128.718 73.7317 129.508 73.8158 129.795L72.8269 130.069Z" fill="white"/>
<path d="M78.3297 134.722C78.1516 133.729 77.8528 132.832 77.4124 131.912L78.5331 131.577C79.0928 132.725 79.3313 133.419 79.5585 134.424L78.3297 134.722ZM78.3424 137.833C82.1339 137.128 83.4328 135.416 84.1721 131.314L85.4598 131.542C84.8271 134.448 84.1005 137.75 78.867 138.933L78.3424 137.833ZM80.8827 134.28C80.6905 132.941 80.3693 132.116 80.0944 131.47L81.2278 131.183C81.765 132.223 81.9782 133.264 82.075 133.982L80.8827 134.28Z" fill="white"/>
<path d="M99.3449 130.13C98.9998 132.14 98.0221 137.989 90.8219 138.909L90.2623 137.689C94.1492 137.115 96.437 135.631 97.5704 131.397H93.3146C92.2401 132.76 91.3353 133.633 90.4404 134.148L89.5581 133.13C90.2735 132.712 92.3243 131.491 93.4338 128.43L94.8997 128.717C94.7566 129.1 94.6373 129.435 94.2207 130.129H99.3463L99.3449 130.13Z" fill="white"/>
</svg>
