<svg width="536" height="206" viewBox="0 0 536 206" fill="none" xmlns="http://www.w3.org/2000/svg">
<g clip-path="url(#clip0_7_49)">
<path d="M22.4299 57.7982L14.2321 79.5033C13.8901 80.5314 13.4354 82.0171 13.4354 83.1583C13.4354 86.7002 17.647 86.7002 21.8599 86.7002V90.0134H0V86.7002C5.23762 86.7002 7.74179 85.9008 10.0192 79.8465L39.9642 0.336151H45.7718L75.6015 79.3889C77.879 85.329 80.7252 86.7002 86.6468 86.7002V90.0134H52.8309V86.7002C59.092 86.5858 62.2814 86.5858 62.2814 83.1583C62.2814 82.2446 61.4834 79.6164 61.1427 78.8171L53.4009 57.797L22.4299 57.7982ZM52.1456 54.4851L37.916 16.5587L23.5699 54.4851H52.1456Z" fill="white"/>
<path d="M118.191 2.39243L146.201 71.0483L172.388 2.39243H195.5V5.70557H191.742C187.645 5.70557 185.481 7.30431 185.822 13.2456L189.579 79.1602C189.808 83.2727 189.922 86.7002 196.411 86.7002H200.055V90.0134H166.355V86.7002H169.201C173.528 86.7002 176.373 85.7865 176.032 79.1602L172.275 13.0168L143.355 90.0121H139.37L108.627 14.73L105.098 79.1602C104.756 85.6721 107.83 86.7002 111.93 86.7002H115.687V90.0134H90.752V86.7002H94.5088C99.9745 86.7002 101.113 83.959 101.341 79.1602L104.985 13.2456C105.327 7.19121 103.164 5.70557 99.1777 5.70557H95.4208V2.39243H118.191Z" fill="white"/>
<path d="M247.313 2.39243C288.075 2.39243 294.336 29.6944 294.336 46.3732C294.336 70.0202 281.585 80.4158 274.184 84.5283C264.393 89.8977 248.792 90.0108 247.313 90.0108H205.982V86.6977H209.739C216.229 86.6977 216.571 83.3858 216.571 79.1577V13.2456C216.571 8.90433 216.229 5.70557 209.739 5.70557H205.982V2.39243H247.313ZM230.121 5.70557V86.699H246.972C278.169 86.699 279.99 58.2545 279.99 45.8026C279.99 24.5537 272.362 5.70557 246.972 5.70557H230.121Z" fill="white"/>
<path d="M309.567 3.54001C310.409 2.99353 311.349 2.44833 312.734 2.44833C315.606 2.44833 319.07 4.73208 319.07 6.42105C319.07 6.91796 318.427 8.85476 318.377 9.25254C318.279 10.0468 318.229 11.4867 318.229 12.9774C318.229 16.8015 318.675 17.8448 319.12 18.6887C320.556 18.0431 327.139 15.312 328.426 14.716C331.148 13.4248 331.445 13.2761 332.04 13.2761C333.822 13.2761 336.446 14.9155 336.446 16.8027C336.446 18.3418 335.457 18.5413 332.487 19.2364C331.348 19.4843 306.648 25.0468 306.648 33.0927C306.648 38.0592 313.975 38.4557 319.32 38.4557C322.142 38.4557 324.963 38.2575 327.388 37.9092C328.328 37.7605 332.487 36.7667 333.328 36.7667C335.457 36.7667 337.832 38.5053 337.832 40.2921C337.832 42.0789 336.002 42.6267 332.635 42.9241C328.378 43.271 324.566 43.421 321.398 43.421C313.084 43.421 310.114 41.9315 308.48 40.9377C305.857 39.3987 304.125 36.5176 304.125 33.6366C304.125 29.5152 306.5 25.2934 315.212 20.6751C313.332 18.4904 313.283 16.5536 313.183 12.6788C313.033 5.72589 312.786 5.03073 309.518 4.13731L309.568 3.54128L309.567 3.54001Z" fill="white"/>
<path d="M304.076 57.2848C304.273 57.2848 305.461 57.1361 305.659 57.1361C309.322 57.1361 312.143 60.1163 312.143 62.3009C312.143 63.2452 311.005 67.2675 310.856 68.1113C309.964 72.5314 310.014 75.1138 310.014 75.6094C310.014 80.5759 312.143 84.1522 313.578 84.1522C314.617 84.1522 315.706 82.6627 320.953 75.1633L321.448 75.4112C320.903 76.851 318.379 83.2079 317.934 84.5487C317.736 85.1447 317.539 85.6912 317.539 86.2872C317.539 86.7841 318.133 89.0183 318.133 89.5152C318.133 90.7073 317.045 91.7011 315.757 91.7011C313.678 91.7011 305.808 88.6218 305.808 72.7296C305.808 71.2402 306.204 64.5351 306.204 63.1943C306.204 59.2216 304.818 58.4273 303.829 57.83L304.076 57.2848ZM332.041 79.8312C332.784 79.6825 335.903 78.9378 336.546 78.7383C337.833 78.2909 338.031 77.5462 338.031 76.6528C338.031 74.0208 336.447 65.5289 330.607 61.8536L330.854 61.3071C334.071 61.9031 337.784 62.9961 340.802 68.5091C343.376 73.1274 343.674 77.1993 343.674 79.2365C343.674 83.1596 342.09 84.1534 340.902 84.1534C339.913 84.1534 339.467 83.5078 338.873 82.664C338.327 81.9192 337.634 80.9254 332.091 80.4285L332.042 79.8325L332.041 79.8312Z" fill="white"/>
<path d="M358.728 95.2277C362.391 93.6887 367.093 91.7519 371.301 86.7841C373.43 84.3008 376.103 80.0803 376.103 74.2204C376.103 71.2402 375.36 66.1745 370.262 66.1745C365.707 66.1745 361.254 69.7507 358.481 72.5314C355.659 75.312 355.313 75.6602 354.225 75.6602C351.997 75.6602 350.018 72.9787 350.018 70.8424C350.018 70.4954 350.068 69.8003 350.464 69.2538C350.91 68.6578 351.801 67.4657 351.801 67.4161L352.395 67.4657C352.395 68.6578 352.989 69.1547 353.633 69.1547C354.029 69.1547 354.228 69.1547 356.405 68.2117C363.136 65.2315 365.958 63.9899 370.214 63.9899C376.599 63.9899 381.599 67.5648 381.599 75.4124C381.599 87.1832 371.401 94.0852 358.877 95.7742L358.728 95.2277ZM358.134 51.3257C361.203 53.6603 364.42 53.7099 370.855 53.9577C375.854 54.1064 376.003 57.1857 376.003 57.6826C376.003 59.6194 373.972 59.6194 373.281 59.6194C369.074 59.6194 368.082 59.6194 361.945 61.4571L361.698 60.9106C363.135 59.9676 365.559 58.3778 365.559 58.1795C365.559 57.9813 364.767 57.8326 364.321 57.7322C359.718 56.7396 358.084 53.7099 357.64 51.6727L358.135 51.3257H358.134Z" fill="white"/>
<path d="M57.4124 139.883C57.3136 139.883 54.0469 140.38 52.6599 140.578V149.222C52.6599 151.01 53.0551 159.752 53.0551 161.839C53.0551 165.217 48.8979 165.813 46.224 165.813C43.5501 165.813 43.5514 164.819 43.5514 161.442H34.6405V173.165H41.0763L45.3336 167.005C45.7287 166.409 46.1252 165.813 46.8181 165.813C47.3146 165.813 48.0062 166.409 48.5015 166.807L55.8278 173.462C56.0254 173.66 56.5206 174.256 56.5206 174.753C56.5206 175.945 55.3325 175.945 54.7385 175.945H34.6405V178.727C34.6405 180.913 34.9369 191.344 34.9369 193.629C34.9369 195.119 34.9369 197.901 27.6093 197.901C24.9366 197.901 24.8378 196.411 24.8378 194.921C24.8378 192.636 24.9366 181.709 24.9366 179.224V175.945H10.3815C6.71706 175.945 4.83608 176.145 2.55863 176.343L1.17291 172.767C4.14322 172.966 7.21359 173.165 11.0731 173.165H24.9353V161.442H16.4196C16.4196 164.621 16.4196 166.508 9.68736 166.508C7.11225 166.508 6.91466 165.118 6.91466 164.025C6.91466 162.237 7.21232 153.792 7.21232 151.904V135.711C7.21232 132.333 7.11226 127.764 6.91466 124.088L17.3114 129.056H34.8381C37.2143 122.4 40.6786 111.571 41.5703 105.114L52.7574 109.585C55.1337 110.578 55.3313 111.274 55.3313 111.87C55.3313 113.161 53.8467 113.26 51.074 113.359C46.0264 120.711 42.5596 124.486 37.5107 129.056H42.8572L46.0264 124.982C46.8181 123.989 47.1145 123.89 47.5122 123.89C48.2051 123.89 48.7991 124.287 49.3932 124.784L54.342 128.758C54.8373 129.155 55.5301 129.95 55.5301 130.645C55.5301 131.738 55.0349 132.036 52.6586 133.526V137.6L57.8063 137.103L61.5695 136.606C61.3719 132.135 61.1743 110.08 60.4815 105.114L71.9662 106.505C72.6604 106.604 74.839 106.902 74.839 108.094C74.839 109.386 73.5508 109.783 71.4722 110.379C71.4722 124.982 71.3734 130.248 71.571 135.315L78.1057 134.52L81.3737 128.36C82.0665 127.069 82.1653 126.871 82.957 126.772C81.7689 126.077 81.6701 125.679 80.4819 122.5C78.0069 116.043 77.9081 115.546 74.0461 110.281L74.6401 109.188C82.7594 111.175 89.9882 115.845 89.9882 122.302C89.9882 125.481 87.4143 127.766 84.1464 127.269L91.9692 133.13C92.5633 133.627 92.9585 134.025 92.9585 134.619C92.9585 135.613 91.9692 135.712 90.8786 135.811L71.6698 138.196C71.9662 146.043 72.4615 152.6 73.5508 159.256C74.3425 157.964 78.6985 150.712 81.076 141.473L89.6905 147.732C91.6703 149.222 91.968 149.421 91.968 150.116C91.968 151.209 91.0762 151.209 88.4036 151.507C83.3547 160.647 80.5807 165.116 76.3235 170.383C77.8093 174.654 80.7796 181.808 83.5523 181.808C85.9286 181.808 89.7906 172.966 91.1763 169.887L92.2656 170.284C91.4727 176.046 91.3739 176.642 91.0775 178.529C90.187 183.496 90.187 183.992 90.187 185.284C90.187 186.774 90.3846 187.569 90.6823 188.264C91.7716 191.442 91.9705 192.04 91.9705 193.132C91.9705 193.729 91.7729 197.305 86.8215 197.305C81.1786 197.305 73.7522 190.747 68.9009 178.529C64.6437 182.701 55.2363 191.543 41.0789 196.61L40.5823 195.616C48.7016 189.655 56.4244 182.9 66.3258 170.183C65.1377 165.712 62.959 157.269 61.7697 139.386L57.4124 139.883ZM4.53968 106.902C10.778 108.789 20.1854 113.955 20.1854 121.307C20.1854 124.088 18.1055 126.771 15.1352 126.771C12.1649 126.771 11.5721 124.883 10.7792 122.002C10.4828 120.81 8.30418 113.856 3.84809 107.896L4.53968 106.902ZM16.4222 131.738V143.659H24.9379V131.738H16.4222ZM24.9379 146.441H16.4222V158.66H24.9379V146.441ZM20.7795 105.312C25.1355 107.1 34.3441 112.763 34.3441 119.816C34.3441 124.982 30.4833 125.678 29.1964 125.678C26.2261 125.678 25.8296 123.989 24.9391 119.319C23.5522 112.664 21.3748 108.69 19.9891 106.207L20.7795 105.312ZM34.6417 131.737V143.658H43.5526V131.737H34.6417ZM43.5526 146.44H34.6417V158.659H43.5526V146.44Z" fill="white"/>
<path d="M137.813 167.999C137.813 169.886 138.21 178.331 138.21 180.018C138.21 183.695 134.744 184.29 132.467 184.29C129.893 184.29 129.893 183.395 129.893 181.608V178.131H112.962V184.489C112.962 185.98 112.962 188.364 106.921 188.364C104.347 188.364 104.347 186.875 104.347 185.98C104.347 183.994 104.643 175.151 104.643 173.363V124.783C104.643 117.233 104.545 115.445 104.347 110.676L113.753 115.445H129.199L131.873 111.769C132.566 110.875 132.961 110.676 133.357 110.676C133.854 110.676 134.249 110.875 135.139 111.67L140.388 116.141C140.884 116.638 141.476 117.135 141.476 117.929C141.476 118.624 141.081 119.319 137.812 120.81V140.183C148.705 118.824 150.188 108.889 150.883 104.519L162.665 107.798C164.25 108.194 165.14 108.693 165.14 109.685C165.14 110.976 164.052 111.175 161.279 111.671C160.19 114.254 159.497 115.545 158.308 117.83H173.358L177.021 113.658C177.714 112.963 178.012 112.565 178.606 112.565C179.398 112.565 179.893 113.062 180.586 113.757L187.616 120.214C188.21 120.81 188.606 121.307 188.606 122.002C188.606 123.394 187.12 123.592 183.852 124.188C177.614 133.726 176.328 135.613 172.369 139.885C178.507 143.163 186.528 146.243 193.755 147.336V148.528C191.576 150.217 187.913 153.098 187.023 160.052C184.449 158.761 174.745 154.191 165.934 145.945C162.469 148.826 156.626 153.595 147.022 157.767L155.538 161.343H172.667L175.833 156.872C176.428 156.078 176.824 155.878 177.319 155.878C177.913 155.878 178.507 156.375 179.002 156.673L186.032 161.839C186.825 162.435 187.32 162.833 187.32 163.528C187.32 164.124 187.222 164.72 183.855 166.508V183.496C183.855 184.986 184.151 192.834 184.151 193.232C184.151 197.006 179.795 197.702 176.924 197.702C173.657 197.702 173.657 196.411 173.657 194.325V191.84H154.448V193.927C154.448 197.503 150.191 197.901 147.418 197.901C143.953 197.901 143.953 196.113 143.953 194.921C143.953 193.132 144.25 185.284 144.25 183.695V166.011C144.25 164.918 144.152 159.95 144.052 158.958C141.28 159.952 140.092 160.349 137.813 161.144V167.999ZM112.962 118.227V145.049H118.01V118.227H112.962ZM112.962 147.831V175.349H118.01V147.831H112.962ZM129.893 118.227H124.644V145.049H129.893V118.227ZM129.893 147.831H124.644V175.349H129.893V147.831ZM137.813 159.057C151.774 148.825 157.815 142.566 160.29 139.685C156.23 134.519 154.349 130.248 152.964 126.87C146.33 136.903 140.884 140.679 137.813 142.863V159.057ZM154.448 164.124V189.059H173.657V164.124H154.448ZM156.826 120.611C155.241 123.293 155.044 123.591 154.646 124.187C157.32 127.863 159.994 131.042 164.448 134.618C169.499 127.963 171.677 123.293 172.964 120.611H156.826Z" fill="white"/>
<path d="M226.432 125.38L229.304 121.109C229.799 120.315 230.194 120.115 230.691 120.115C231.187 120.115 231.581 120.313 232.373 120.909L239.404 126.075C240.196 126.671 240.492 127.168 240.492 127.764C240.492 128.956 239.7 129.453 237.028 131.043V150.018C246.632 131.243 250.691 116.44 251.682 104.717L263.859 107.996C265.74 108.493 267.028 108.99 267.028 110.182C267.028 111.275 265.641 111.473 263.166 111.772C260.295 119.223 258.71 122.401 256.136 127.17H274.75L277.82 122.898C278.117 122.401 278.711 121.607 279.405 121.607C279.999 121.607 281.087 122.401 281.286 122.502L289.108 127.965C290.396 128.86 290.692 129.256 290.692 129.952C290.692 131.144 290.297 131.342 286.731 133.727C285.94 190.353 284.553 197.804 262.474 197.705C262.474 189.161 258.909 187.87 249.997 184.691L250.096 183.499C264.453 184.294 266.037 184.394 267.126 184.394C270.69 184.394 272.374 183.798 273.463 179.725C275.245 173.466 275.443 159.161 276.037 129.953H254.551C247.422 142.271 240.59 148.629 237.718 151.312L237.025 150.716V172.67C237.025 174.558 237.322 183.499 237.322 185.585C237.322 188.367 235.044 189.559 229.895 189.559C227.024 189.559 227.024 188.169 227.024 186.082V182.605H214.35V187.67C214.35 190.949 214.35 193.135 207.022 193.135C203.558 193.135 203.558 191.644 203.558 190.056C203.558 188.268 203.953 179.525 203.953 177.538V132.733C203.953 125.978 203.854 124.686 203.558 119.918L212.567 124.189C214.845 113.56 215.141 112.368 215.934 104.917L228.608 108.394C229.499 108.592 231.579 109.487 231.579 110.679C231.579 111.97 229.698 112.168 227.123 112.168C223.558 117.037 217.814 123.096 215.141 125.381H226.43L226.432 125.38ZM214.352 128.161V151.904H227.026V128.161H214.352ZM227.026 154.686H214.352V179.82H227.026V154.686ZM247.918 142.467C253.561 144.851 260.395 150.811 262.077 152.5C264.157 154.388 266.732 157.964 266.732 162.634C266.732 167.999 262.969 170.482 259.999 170.482C256.534 170.482 255.643 167.601 254.652 163.727C253.364 158.561 250.889 151.508 246.928 143.461L247.918 142.467Z" fill="white"/>
<path d="M308.709 149.33C309.451 149.082 310.145 148.882 311.036 148.882C313.907 148.882 316.432 151.265 316.432 152.706C316.432 153.352 316.333 153.55 314.995 155.289C314.65 155.736 314.401 156.133 314.154 156.58C315.045 156.382 315.886 156.083 316.679 155.786C317.569 155.488 318.955 154.941 319.401 154.941C320.787 154.941 322.766 155.984 322.766 157.275C322.766 158.665 322.072 159.063 312.025 160.901C310.689 163.831 304.947 176.793 303.66 179.375C301.927 182.901 300.838 182.901 300.244 182.901C298.364 182.901 297.82 180.667 297.82 179.673C297.82 178.431 298.116 178.033 300.591 174.31C301.779 172.522 304.748 167.406 307.422 161.695C307.076 161.745 305.194 162.042 303.512 162.042C299.699 162.042 299.006 159.708 298.264 157.175L298.759 156.877C299.452 157.424 300.492 158.268 303.214 158.268C304.402 158.268 306.185 158.169 309.204 157.672C309.7 156.38 310.789 153.748 310.789 152.507C310.789 150.918 309.204 150.222 308.561 149.875L308.709 149.33ZM322.172 160.802C323.856 160.305 324.845 160.007 326.628 160.007C331.577 160.007 336.677 162.838 336.677 166.115C336.677 167.406 335.786 168.4 334.597 168.4C333.953 168.4 333.756 168.301 332.173 167.357C331.281 166.86 330.637 166.662 329.747 166.662C325.588 166.662 325.588 169.691 325.588 171.131C325.588 172.472 325.689 173.266 326.332 180.12C332.915 182.752 334.449 184.887 334.449 186.974C334.449 188.364 333.608 189.606 332.271 189.606C331.38 189.606 330.736 189.109 329.994 188.414C327.815 186.477 327.618 186.328 326.331 185.435C325.488 189.556 321.875 191.097 317.47 191.097C308.709 191.097 308.709 185.385 308.709 184.74C308.709 181.71 311.135 178.383 317.668 178.383C319.45 178.383 320.638 178.581 321.628 178.779C321.529 175.204 321.529 174.807 321.529 174.161C321.529 170.04 322.073 167.01 328.26 165.421C328.755 165.273 329.746 165.025 329.746 164.776C329.746 163.981 326.331 162.193 322.072 161.398L322.172 160.802ZM315.491 181.908C312.769 181.908 310.937 183.051 310.937 184.441C310.937 186.08 313.066 187.073 316.135 187.073C321.629 187.073 321.678 183.994 321.678 182.95C319.501 182.156 317.075 181.907 315.491 181.907V181.908Z" fill="white"/>
<path d="M403.32 167.799C403.915 167.799 427.381 169.388 427.381 179.522C427.381 180.118 427.381 181.807 426.092 183.395C430.845 182.999 432.627 182.799 436.588 182.302V183.494C433.024 186.673 430.647 189.058 430.251 195.614L403.418 195.515C379.556 195.416 368.961 193.23 363.912 178.825C359.555 185.382 352.129 193.528 351.931 193.727C352.129 196.211 352.03 197.701 350.743 197.701C349.655 197.701 348.763 196.012 348.564 195.715L342.128 183.496C346.287 182.701 351.733 180.416 355.497 177.933V149.819H352.229C349.258 149.819 348.763 149.819 343.912 150.215L342.525 146.639C345.398 146.837 348.566 147.036 352.526 147.036H354.804L358.468 142.367C358.863 141.771 359.458 141.274 360.152 141.274C360.846 141.274 361.636 141.771 362.033 142.068L369.063 147.533C370.052 148.327 370.45 148.626 370.45 149.321C370.45 150.712 368.964 151.507 366.291 152.997V172.072C366.291 175.945 366.291 179.224 371.835 182.006C380.252 174.854 383.718 171.873 386.588 167.204H378.072C375.301 167.204 374.21 167.303 369.359 167.601L368.072 164.025C374.21 164.421 374.904 164.421 378.27 164.421H381.834V153.196C378.765 153.196 378.17 153.295 372.923 153.693L371.635 150.017C377.477 150.414 378.566 150.514 381.834 150.514C381.834 147.833 381.637 142.964 381.439 140.58L393.32 142.069C394.212 142.168 395.698 142.368 395.698 143.56C395.698 144.354 395.698 144.752 392.133 146.142V150.513H404.016C404.016 150.414 404.016 145.645 403.519 140.479L415.303 141.969C416.292 142.068 417.778 142.167 417.778 143.46C417.778 144.453 417.085 144.949 414.114 146.042V150.513H416.788L420.351 145.347C420.746 144.85 421.044 144.354 421.736 144.354C422.429 144.354 422.824 144.751 423.321 145.248L429.063 150.612C429.459 151.01 429.954 151.507 429.954 152.103C429.954 153.196 428.37 153.196 427.776 153.196H414.112V164.421H418.667L422.429 158.758C422.824 158.261 423.123 157.764 424.014 157.764C424.608 157.764 424.904 158.062 425.5 158.659L432.034 164.619C432.53 165.116 432.826 165.514 432.826 166.01C432.826 167.202 431.34 167.202 430.746 167.202H388.369L396.389 171.673C397.28 172.17 398.172 172.865 398.172 173.859C398.172 175.051 396.983 175.151 396.092 175.151C395.398 175.151 394.606 175.051 394.112 174.952C386.587 179.124 381.933 181.111 373.913 182.899C376.884 183.893 380.746 184.986 391.24 184.986C399.162 184.986 415.302 184.192 420.351 183.794C419.263 183 415.401 178.529 414.509 177.733C410.549 173.759 408.371 172.27 402.825 168.892L403.32 167.799ZM345.595 108.093C350.249 109.385 368.171 114.65 368.171 124.981C368.171 129.452 365.1 132.63 361.734 132.63C359.16 132.63 358.862 131.836 355.595 124.882C351.039 115.445 346.683 110.974 345.001 109.186L345.595 108.093ZM370.845 127.961C370.845 124.385 370.647 121.901 370.45 117.629L379.856 120.908H386.787V113.259H377.975C374.609 113.259 374.014 113.259 368.965 113.556L367.677 110.079C374.014 110.376 374.51 110.376 378.172 110.376H386.688L389.263 107.297C389.956 106.402 390.055 106.303 390.649 106.303C391.243 106.303 391.639 106.601 392.332 107.098L397.779 110.972C398.373 111.469 398.768 111.767 398.768 112.462C398.768 113.456 397.58 114.151 396.095 115.046V118.324C396.095 119.119 396.194 122.298 396.194 122.894C396.194 123.987 395.997 124.385 395.401 124.981C395.898 129.551 396.293 130.246 397.381 131.042C399.857 132.929 400.055 133.129 400.055 134.717C400.055 139.486 394.906 139.883 388.767 139.883C385.895 139.883 376.489 139.982 375.004 139.487C370.846 138.196 370.846 134.719 370.846 131.539V127.963L370.845 127.961ZM379.953 128.458C379.953 131.339 380.348 131.836 385.102 131.836C391.538 131.836 391.935 131.836 394.013 125.775C392.626 126.172 391.24 126.371 389.953 126.371C386.784 126.371 386.784 125.577 386.784 123.689H379.952V128.457L379.953 128.458ZM404.015 153.194H392.132V164.42H404.015V153.194ZM427.381 125.477C428.271 130.443 428.271 131.039 429.757 132.033C431.44 133.225 432.034 133.622 432.034 135.411C432.034 140.478 427.578 140.478 414.212 140.478C404.312 140.478 401.736 140.478 401.736 131.835V128.059C401.736 124.285 401.637 121.204 401.439 117.628L410.946 120.907H417.877V113.257H410.353C406.986 113.257 406.491 113.257 401.342 113.555L400.055 110.078C406.491 110.375 406.887 110.375 410.551 110.375H417.679L420.451 107.197C421.045 106.502 421.341 106.204 421.836 106.204C422.431 106.204 422.727 106.402 423.52 106.998L429.362 111.27C429.956 111.668 430.252 112.064 430.252 112.562C430.252 113.456 429.262 113.953 427.381 115.046V118.125C427.381 119.02 427.578 123.291 427.479 123.687C427.381 124.084 427.182 124.681 426.291 125.376L427.381 125.477ZM411.045 128.954C411.045 132.332 411.737 132.431 417.184 132.431C423.619 132.431 424.015 132.431 426.291 125.477C424.904 126.172 423.42 126.471 420.945 126.471C417.876 126.471 417.876 125.676 417.876 123.689H411.043V128.954H411.045Z" fill="white"/>
<path d="M466.392 148.726C470.551 147.534 477.284 145.647 481.541 144.455V120.81C481.541 119.222 481.443 112.963 481.046 107.896L493.126 112.863H515.801L518.87 108.393C519.563 107.399 520.058 107.1 520.652 107.1C521.246 107.1 521.939 107.498 522.632 107.995L530.355 113.26C530.95 113.658 531.543 114.054 531.543 114.949C531.543 116.24 529.068 117.531 527.483 118.228V133.229C527.483 135.415 527.779 145.747 527.779 146.939C527.779 151.31 522.532 151.608 519.759 151.608C516.492 151.608 516.492 150.119 516.492 147.834V145.052H505.304C509.165 160.053 517.086 177.736 535.997 185.187L535.899 186.379C532.731 187.969 529.463 189.658 526.591 197.307C521.442 193.83 504.115 179.425 502.826 145.052H492.53V147.238C492.53 184.294 476.39 194.725 470.746 198.4L469.855 197.606C477.083 184.393 481.539 174.955 481.539 147.636V146.046C477.083 149.424 473.816 151.709 466.39 156.08V173.664C466.39 175.452 466.587 184.294 466.587 186.38C466.587 195.52 462.429 197.408 452.924 197.905C452.726 189.261 450.647 188.368 442.824 185.387V184.194L453.418 184.393C455.893 184.393 455.893 183.3 455.893 182.207V161.841C453.913 162.835 453.021 163.331 448.567 165.617C448.369 167.603 448.171 168.896 446.883 168.896C445.993 168.896 445.595 168.399 444.904 166.015L441.339 154.59C449.261 153.299 450.151 153.199 455.894 151.61V130.151H451.241C448.171 130.151 447.775 130.25 442.924 130.548L441.537 126.971C444.607 127.17 447.676 127.369 451.538 127.369H455.894V115.546C455.894 110.281 455.697 107.002 455.598 105.115L467.083 106.507C468.766 106.705 470.054 107.004 470.054 108.095C470.054 109.487 467.579 110.182 466.39 110.479V127.368H470.153L473.024 122.202C473.321 121.705 473.817 121.01 474.51 121.01C475.302 121.01 475.798 121.507 476.194 122.103L480.352 127.566C480.55 127.863 481.045 128.56 481.045 129.056C481.045 130.148 480.155 130.148 479.065 130.148H466.391V148.726H466.392ZM516.495 115.644H492.534V142.17H516.495V115.644Z" fill="white"/>
<path d="M98.2303 187.988H1.28693V206H98.2303V187.988Z" fill="black"/>
<path d="M7.61768 200.671C9.92172 199.829 12.6349 197.474 13.8293 194.19H8.232V193.013H15.4671C15.3164 193.661 14.9389 195.368 13.4 197.495C14.659 198.511 15.8864 199.569 17.0391 200.703L16.0257 201.73C14.8097 200.294 13.1618 198.835 12.6678 198.424C11.4189 199.872 10.0623 200.995 8.36247 201.687L7.61768 200.671Z" fill="white"/>
<path d="M22.7061 192.418V195.184C25.3217 195.93 27.3686 197.106 28.0893 197.528L27.5079 198.77C26.3021 198.047 24.1817 196.847 22.7061 196.47V201.956H21.4141V192.418H22.7061Z" fill="white"/>
<path d="M40.5862 195.421C40.3278 197.668 39.9072 201.19 33.5664 201.805L33.232 200.681C33.8463 200.66 35.6437 200.585 37.2587 199.591C38.6912 198.705 39.0142 197.312 39.165 196.578H31.8766V195.421H40.5862ZM40.0263 192.862V194.007H32.6531V192.862H40.0263Z" fill="white"/>
<path d="M53.7277 195.692V196.826H50.1532C49.9924 199.418 49.1741 201.211 45.7073 201.881L45.1474 200.856C48.3774 200.326 48.808 198.858 48.9258 196.827H44.7281V195.693H53.7277V195.692ZM52.8449 192.915V194.039H45.611V192.915H52.8449Z" fill="white"/>
<path d="M60.5992 197.647C59.3402 196.955 58.0381 196.535 57.5859 196.394L58.0697 195.27C58.2319 195.313 60.0077 195.82 61.1046 196.425L60.5992 197.645V197.647ZM58.1989 200.314C62.2674 199.98 64.1193 198.684 65.4974 194.438L66.6602 194.956C65.2175 199.006 63.377 201.07 58.5004 201.609L58.2002 200.313L58.1989 200.314ZM61.439 195.14C60.299 194.567 59.2756 194.211 58.4358 193.964L58.9526 192.829C60.5777 193.314 61.3858 193.682 61.9875 193.964L61.439 195.14ZM64.7121 194.072C64.5613 193.337 64.422 192.905 64.2067 192.332L65.0895 192.137C65.3581 192.786 65.4556 193.066 65.6393 193.856L64.7121 194.072ZM66.284 193.844C66.037 192.872 65.8318 192.43 65.7241 192.192L66.5956 191.998C66.8971 192.624 67.101 193.337 67.177 193.596L66.284 193.844Z" fill="white"/>
<path d="M71.2531 198.046C71.0923 197.148 70.8225 196.339 70.4247 195.508L71.4368 195.205C71.9422 196.242 72.1575 196.869 72.3627 197.776L71.2531 198.046ZM71.2645 200.854C74.6883 200.218 75.8612 198.672 76.5288 194.968L77.6915 195.174C77.1203 197.798 76.4642 200.779 71.7383 201.848L71.2645 200.854ZM73.5585 197.647C73.3849 196.437 73.0949 195.692 72.8466 195.109L73.87 194.849C74.3552 195.789 74.5477 196.729 74.6351 197.377L73.5585 197.647Z" fill="white"/>
<path d="M90.2301 193.899C89.9185 195.714 89.0357 200.995 82.5339 201.826L82.0286 200.725C85.5385 200.206 87.6044 198.867 88.6278 195.043H84.7848C83.8145 196.274 82.9975 197.062 82.1894 197.527L81.3927 196.608C82.0387 196.231 83.8905 195.128 84.8925 192.364L86.2161 192.623C86.0869 192.969 85.9793 193.271 85.6031 193.898H90.2314L90.2301 193.899Z" fill="white"/>
</g>
<defs>
<clipPath id="clip0_7_49">
<rect width="536" height="205.664" fill="white" transform="translate(0 0.336151)"/>
</clipPath>
</defs>
</svg>
