<?xml version="1.0" encoding="UTF-8"?>
<svg id="Layer_2" data-name="Layer 2" xmlns="http://www.w3.org/2000/svg" viewBox="0 0 32 47">
  <defs>
    <style>
      .cls-1 {
        fill: #fff;
      }
    </style>
  </defs>
  <g id="Layer_1-2" data-name="Layer 1">
    <polygon class="cls-1" points="7.15 0 0 0 0 47 6.79 47 24.13 23.14 7.15 0"/>
    <polygon class="cls-1" points="32 0 14.3 0 14.12 0 13.41 0 12.69 0 12.16 0 12.69 .89 12.69 .89 12.69 .89 13.59 2.14 29.14 23.14 13.23 45.22 13.05 45.22 13.05 45.22 13.05 45.4 11.8 47 13.05 47 13.41 47 32 47 32 45.22 15.37 45.22 31.28 23.14 15.73 1.78 32 1.78 32 0"/>
  </g>
</svg>