<?xml version="1.0" encoding="UTF-8"?>
<svg id="Layer_1" xmlns="http://www.w3.org/2000/svg" version="1.1" viewBox="0 0 18 26.5">
  <!-- Generator: Adobe Illustrator 29.7.1, SVG Export Plug-In . SVG Version: 2.1.1 Build 8)  -->
  <defs>
    <style>
      .st0 {
        fill: #fff;
      }
    </style>
  </defs>
  <polygon class="st0" points="4 0 0 0 0 26.4 3.8 26.4 13.5 13 4 0"/>
  <polygon class="st0" points="17.9 0 8 0 7.9 0 7.5 0 7.1 0 6.8 0 7.1 .5 7.1 .5 7.1 .5 7.6 1.2 16.3 13 7.4 25.4 7.3 25.4 7.3 25.4 7.3 25.5 6.6 26.4 7.3 26.4 7.5 26.4 17.9 26.4 17.9 25.4 8.6 25.4 17.5 13 8.8 1 17.9 1 17.9 0"/>
</svg>