<svg width="73" height="65" viewBox="0 0 73 65" fill="none" xmlns="http://www.w3.org/2000/svg">
<g clip-path="url(#clip0_36_2463)">
<path d="M73 0H0V65H73V0Z" fill="url(#paint0_linear_36_2463)"/>
<path d="M71.4331 1.52783H1.52185V63.471H71.4331V1.52783Z" fill="url(#paint1_linear_36_2463)"/>
<path d="M19.3508 24.3913H16.5342L15.6725 22.3051H10.9777L10.1927 24.3913H7.4212L11.6544 13.8516H14.6875L19.3523 24.3913H19.3508ZM13.2078 16.3695L11.6679 20.4649H14.9011L13.2078 16.3695Z" fill="white"/>
<path d="M29.584 13.8516H31.8623V24.3913H29.2457V17.8081L26.4125 21.1156H26.0125L23.1794 17.8081V24.3913H20.5628V13.8516H22.841L26.2125 17.7613L29.584 13.8516Z" fill="white"/>
<path d="M38.4941 13.8516C42.3272 13.8516 44.2972 16.2472 44.2972 19.1365C44.2972 22.1647 42.3889 24.3913 38.2008 24.3913H33.8594V13.8516H38.4941ZM36.4775 22.4591H38.1858C40.8174 22.4591 41.6039 20.6657 41.6039 19.1199C41.6039 17.3115 40.6339 15.7823 38.1557 15.7823H36.4775V22.4591Z" fill="white"/>
<path d="M54.9184 16.3516H49.5048L46.204 13.0381H58.2193V25.0979L54.9184 21.7845V16.3516Z" fill="white"/>
<path d="M49.5018 21.7889V17.0142L46.1032 20.4258V25.2005H50.8582L54.2568 21.7889H49.5018Z" fill="white"/>
<path d="M25.3599 31.136H30.4698L25.3599 35.5529V37.0398H32.7074V35.565H27.5991L32.7074 31.148V29.6611H25.3599V31.136Z" fill="white"/>
<path d="M19.9493 32.5882L17.8454 29.6611H16.0289L19.2064 34.0872V37.0398H20.6756V34.0872L23.8696 29.6611H22.0531L19.9493 32.5882Z" fill="white"/>
<path d="M42.1076 29.6611H34.7601V31.1375H42.1076V29.6611Z" fill="white"/>
<path d="M34.7601 32.6123V37.0413H42.1091V35.565H36.2308V34.0887H42.1091V32.6123H34.7601Z" fill="white"/>
<path d="M8.89038 34.0887H11.6032L13.301 37.0414H14.9988L13.301 34.0887C14.113 34.0887 14.7717 33.4275 14.7717 32.6124V31.136C14.7717 30.3209 14.113 29.6597 13.301 29.6597H7.41968V31.136H13.1972C13.2544 31.136 13.301 31.1828 13.301 31.2402V32.5067C13.301 32.5641 13.2544 32.6109 13.1972 32.6109H7.41968V34.0872V37.0399H8.89038V34.0872V34.0887Z" fill="white"/>
<path d="M50.2206 29.6626V34.7921L45.8205 29.6626H44.3392V37.0383H45.8084V31.9103L50.2085 37.0383H51.6898V29.6626H50.2206Z" fill="white"/>
</g>
<defs>
<linearGradient id="paint0_linear_36_2463" x1="-0.860169" y1="1.02952" x2="74.0978" y2="63.6865" gradientUnits="userSpaceOnUse">
<stop stop-color="#D54C02"/>
<stop offset="0.152" stop-color="#D64D01"/>
<stop offset="0.207" stop-color="#DD5401"/>
<stop offset="0.246" stop-color="#E95F00"/>
<stop offset="0.249" stop-color="#EB6100"/>
<stop offset="0.328" stop-color="#EB6301"/>
<stop offset="0.386" stop-color="#EC6D04"/>
<stop offset="0.437" stop-color="#EF7D0B"/>
<stop offset="0.484" stop-color="#F29314"/>
<stop offset="0.522" stop-color="#F6AC1E"/>
<stop offset="0.745" stop-color="#EB6100"/>
<stop offset="0.854" stop-color="#E55C00"/>
<stop offset="0.984" stop-color="#D74E01"/>
<stop offset="1" stop-color="#D54C02"/>
</linearGradient>
<linearGradient id="paint1_linear_36_2463" x1="0.772963" y1="2.42451" x2="72.4092" y2="62.3058" gradientUnits="userSpaceOnUse">
<stop offset="0.242"/>
<stop offset="0.319" stop-color="#0A0A09"/>
<stop offset="0.452" stop-color="#262524"/>
<stop offset="0.542" stop-color="#3D3C3A"/>
<stop offset="0.6" stop-color="#2B2A29"/>
<stop offset="0.7" stop-color="#131312"/>
<stop offset="0.792" stop-color="#050404"/>
<stop offset="0.869"/>
</linearGradient>
<clipPath id="clip0_36_2463">
<rect width="73" height="65" fill="white"/>
</clipPath>
</defs>
</svg>
