<svg xmlns="http://www.w3.org/2000/svg" fill="none" viewBox="0 0 80 81"><g clip-path="url(#a)"><g fill="#DF7524" clip-path="url(#b)"><path d="m40 24.13 14.573 7.615v.592q0 1.233-.03 2.377v.401c-.11 3.12-.433 5.629-1.028 7.916-.746 2.86-1.905 5.317-3.537 7.514-.192.26-.383.512-.575.742l-.12.15-.071.091c-.141.16-.283.331-.434.502-.1.11-.201.22-.302.32l-.09.091s-.061.07-.091.1c-.06.07-.132.14-.192.201-.181.18-.383.381-.625.612l-.03.03s-.05.05-.08.07c-1.875 1.746-4.203 3.3-6.904 4.625l-.433.21-.434-.21c-2.7-1.324-5.029-2.88-6.913-4.625l-.06-.06-.031-.03c-.242-.23-.454-.431-.635-.622-.06-.06-.121-.13-.181-.19-.03-.03-.06-.06-.091-.1l-.08-.091c-.112-.11-.212-.23-.323-.351-.131-.15-.585-.682-.625-.733a16 16 0 0 1-.554-.712s-.02-.02-.03-.04c-3.599-4.825-4.304-10.253-4.516-14.446v-.19l-.02-.222a68 68 0 0 1-.07-3.34v-.592L40.04 24.12M40 21.572c-.414 0-.817.1-1.2.291l-14.573 7.625a2.55 2.55 0 0 0-1.37 2.267v.592c0 1.264.02 2.397.07 3.46v.212l.02.23c.232 4.535 1.008 10.454 5.019 15.83.01.021.03.041.05.061.212.281.414.532.605.773.06.08.544.642.706.822l.373.401.08.09.06.071c.101.1.172.18.242.26.202.212.434.432.706.693l.1.09c2.077 1.926 4.606 3.632 7.54 5.066l.432.211c.353.17.746.261 1.13.261.382 0 .775-.09 1.128-.26l.433-.212c2.933-1.434 5.463-3.13 7.529-5.046.04-.03.08-.08.12-.12l.02-.02c.253-.24.474-.451.676-.662.08-.09.161-.17.242-.251l.08-.08.091-.09c.121-.12.242-.251.353-.382.171-.18.322-.37.484-.562l.06-.08.161-.19q.318-.391.635-.813c1.855-2.488 3.145-5.237 3.971-8.417.645-2.468.988-5.156 1.099-8.467v-.411c.03-.783.04-1.605.04-2.448v-.592a2.57 2.57 0 0 0-1.37-2.267L41.19 21.863a2.64 2.64 0 0 0-1.2-.29z"/><g clip-path="url(#c)"><path d="m40 24.13 14.573 7.615v.592q0 1.233-.03 2.377v.401c-.11 3.12-.433 5.629-1.028 7.916-.746 2.86-1.905 5.317-3.537 7.514-.192.26-.383.512-.575.742l-.12.15-.071.091c-.141.16-.283.331-.434.502-.1.11-.201.22-.302.32l-.09.091s-.061.07-.091.1c-.06.07-.132.14-.192.201-.181.18-.383.381-.625.612l-.03.03s-.05.05-.08.07c-1.875 1.746-4.203 3.3-6.904 4.625l-.433.21-.434-.21c-2.7-1.324-5.029-2.88-6.913-4.625l-.06-.06-.031-.03c-.242-.23-.454-.431-.635-.622-.06-.06-.121-.13-.181-.19-.03-.03-.06-.06-.091-.1l-.08-.091c-.112-.11-.212-.23-.323-.351-.131-.15-.585-.682-.625-.733a16 16 0 0 1-.554-.712s-.02-.02-.03-.04c-3.599-4.825-4.304-10.253-4.516-14.446v-.19l-.02-.222a68 68 0 0 1-.07-3.34v-.592L40.04 24.12M40 21.572c-.414 0-.817.1-1.2.291l-14.573 7.625a2.55 2.55 0 0 0-1.37 2.267v.592c0 1.264.02 2.397.07 3.46v.212l.02.23c.232 4.535 1.008 10.454 5.019 15.83.01.021.03.041.05.061.212.281.414.532.605.773.06.08.544.642.706.822l.373.401.08.09.06.071c.101.1.172.18.242.26.202.212.434.432.706.693l.1.09c2.077 1.926 4.606 3.632 7.54 5.066l.432.211c.353.17.746.261 1.13.261.382 0 .775-.09 1.128-.26l.433-.212c2.933-1.434 5.463-3.13 7.529-5.046.04-.03.08-.08.12-.12l.02-.02c.253-.24.474-.451.676-.662.08-.09.161-.17.242-.251l.08-.08.091-.09c.121-.12.242-.251.353-.382.171-.18.322-.37.484-.562l.06-.08.161-.19q.318-.391.635-.813c1.855-2.488 3.145-5.237 3.971-8.417.645-2.468.988-5.156 1.099-8.467v-.411c.03-.783.04-1.605.04-2.448v-.592a2.57 2.57 0 0 0-1.37-2.267L41.19 21.863a2.64 2.64 0 0 0-1.2-.29z"/><path d="m40 27.05-12.043 6.3c0 .983.02 1.956.06 2.93v.36c.222 4.324 1.049 8.588 3.83 12.33a24.29 24.29 0 0 0 .484.632c.05.07.11.13.171.2.121.141.232.282.363.422.11.12.232.24.343.371.08.08.15.16.232.251.17.18.352.351.544.522l.08.08c1.552 1.444 3.498 2.779 5.916 3.963 2.429-1.184 4.364-2.519 5.916-3.963l.09-.09c.182-.171.364-.341.535-.522.08-.08.161-.17.242-.26.11-.121.221-.232.332-.352.131-.14.252-.291.373-.431l.151-.181c.172-.21.333-.411.484-.622 2.973-3.993 3.719-8.587 3.87-13.192v-.351c.02-.693.03-1.385.03-2.087l-12.043-6.3zm1.34 14.827.474 3.542h-3.567l.473-3.542a3.04 3.04 0 0 1-1.743-2.739c0-1.675 1.37-3.04 3.054-3.04a3.05 3.05 0 0 1 3.053 3.04 3.04 3.04 0 0 1-1.743 2.74"/></g></g></g><defs><clipPath id="a"><path fill="#fff" d="M0 .858h80v80H0z"/></clipPath><clipPath id="b"><path fill="#fff" d="M22.857 21.572h34.286v39.286H22.857z"/></clipPath><clipPath id="c"><path fill="#fff" d="M22.857 21.572h34.286v39.286H22.857z"/></clipPath></defs></svg>