<svg xmlns="http://www.w3.org/2000/svg" fill="none" viewBox="0 0 80 80"><g clip-path="url(#a)"><g fill="#18A34F" clip-path="url(#b)"><path fill-rule="evenodd" d="M25.634 53.668h3.214v-8.45h6.058v8.45h3.203l-6.238 6.331z" clip-rule="evenodd"/><path d="M37.087 47.7v2.951h2.444L42.44 47.7z"/><path d="M56.548 31.431c-.105-5.925-4.889-10.717-10.747-10.717a10.6 10.6 0 0 0-8.166 3.818 8.3 8.3 0 0 0-3.92-.973c-2.223 0-4.33.877-5.922 2.46a8.65 8.65 0 0 0-2.423 4.728c-4.362 1.07-7.513 5.048-7.513 9.711v.204c0 5.155 3.857 9.412 8.799 9.947v-2.985c-3.33-.513-5.89-3.443-5.89-6.962v-.204c0-3.572 2.623-6.578 6.11-6.995l1.265-.15.021-1.283c.064-3.038 2.54-5.508 5.543-5.508 1.243 0 2.413.406 3.382 1.176l1.254.984.864-1.358c1.454-2.289 3.92-3.647 6.585-3.647 4.32 0 7.84 3.572 7.84 7.957 0 .214 0 .439-.032.653l-.095 1.144 1.064.375c2.782.984 4.647 3.658 4.647 6.652v.204c0 3.4-2.392 6.246-5.553 6.898l2.329 2.364c3.593-1.487 6.143-5.08 6.143-9.262v-.204c0-3.882-2.213-7.38-5.595-9.027z"/><path fill-rule="evenodd" d="M45.105 59.85V51.4h-3.213l6.237-6.342 6.238 6.342h-3.203v8.45z" clip-rule="evenodd"/></g></g><defs><clipPath id="a"><path fill="#fff" d="M0 0h80v80H0z"/></clipPath><clipPath id="b"><path fill="#fff" d="M17.857 20.714h44.286V60H17.857z"/></clipPath></defs></svg>