<svg xmlns="http://www.w3.org/2000/svg" fill="none" viewBox="0 0 80 63"><path fill="#fff" d="M75.313 26.596c-2.493-.483-5.495-1.829-7.04-3.813l-5.512-6.47C61.567 14.827 59.864 14 57.968 14H35.111c-1.422 0-2.827.5-3.915 1.415L19.451 25.44c-1.913 1.674-18.205 2.243-18.205 9.024v.26C.51 35.102 0 35.861 0 36.723v1.554c0 1.242 1.036 2.243 3.072 2.243h10.516c.175 3.744 3.3 6.746 7.145 6.746s6.97-3.002 7.145-6.746h27.948c.176 3.744 3.3 6.746 7.145 6.746s6.97-3.002 7.145-6.746h4.828c2.44 0 5.056-.639 5.056-3.796V32.22c0-2.743-1.984-5.107-4.705-5.625zm-29.616-.12H25.719l8.883-7.765a.84.84 0 0 1 .526-.173h10.569zm4.16-7.938h8.111c.246 0 .456.052.685.328l5.477 7.023c.158.207.316.396.492.586H49.857z"/></svg>