<svg xmlns="http://www.w3.org/2000/svg" fill="none" viewBox="0 0 80 63"><g fill="#fff" clip-path="url(#a)"><path d="M34.965 35.214s-.109.036-.344.126l1.066 5.688 3.055-1.847-3.308-3.84a.41.41 0 0 0-.47-.11zM44.072 35.394c-.308-.127-.452-.18-.452-.18a.41.41 0 0 0-.47.108l-3.271 3.804 3.126 1.902zM45.012 28.91c.506-.254 1.175-.78 1.41-1.522.162-.526.198-1.05.108-1.504a1.7 1.7 0 0 0-.362-.742H32.434c-.181.18-.308.434-.362.742-.108.453-.054.978.108 1.504.235.724.904 1.268 1.41 1.521.398 1.486 1.084 2.754 2.024 3.66 1.048 1.032 2.314 1.557 3.705 1.557s2.657-.543 3.705-1.558c.94-.923 1.626-2.191 2.024-3.659zM31.222 24.31h16.139c.217 0 .38-.182.38-.381v-1.015c0-.217-.181-.38-.38-.38h-.886c-.217-1.793-.705-3.26-1.464-4.384a5.8 5.8 0 0 0-2.096-1.883v4.474h-1.59v-5.8149999999999995a.305.305 0 0 0-.308-.308h-3.47a.317.317 0 0 0-.307.308v5.8149999999999995h-1.59v-4.474a5.55 5.55 0 0 0-2.096 1.902c-.76 1.122-1.23 2.59-1.464 4.383h-.886a.4.4 0 0 0-.397.38v1.015c0 .217.18.38.397.38z"/><path d="M71 31.754c0-3.17-2.44-5.742-5.53-6.032C63.175 15.795 55.386 7.988 45.5 5.688 45.283 2.518 42.68 0 39.464 0c-3.217 0-5.82 2.518-6.036 5.688-9.904 2.3-17.693 10.125-19.97 20.034C10.404 26.03 8 28.602 8 31.754c0 3.151 2.404 5.705 5.458 6.031 2.295 9.945 10.102 17.77 20.024 20.053.434 2.934 2.946 5.18 5.982 5.18s5.548-2.246 5.982-5.18c9.922-2.283 17.729-10.108 20.024-20.053 3.09-.29 5.53-2.861 5.53-6.031M45.265 55.139c-.759-2.5-3.054-4.33-5.783-4.33s-5.024 1.83-5.783 4.33c-8.657-2.156-15.47-9.003-17.584-17.68 2.349-.833 4.048-3.06 4.048-5.705s-1.7-4.873-4.049-5.706c2.133-8.731 9-15.614 17.73-17.716a6.05 6.05 0 0 0 5.638 3.859c2.566 0 4.753-1.613 5.639-3.859 8.728 2.12 15.614 9.003 17.728 17.734-2.313.851-3.994 3.08-3.994 5.688s1.663 4.836 3.994 5.687c-2.114 8.695-8.927 15.542-17.584 17.698"/><path d="M49.331 37.424c-1.663-.634-2.873-1.105-3.759-1.45l-1.21 6.467a.82.82 0 0 1-.453.58l-.325.072-.416-.108-3.09-1.866v6.593h13.627a.417.417 0 0 0 .415-.398s.055-5.742-.614-6.883c-.705-1.214-2.024-2.156-4.175-2.99zM35.127 43.093l-.326-.073a.82.82 0 0 1-.452-.58l-1.228-6.502c-.904.344-2.151.833-3.886 1.503-2.133.815-3.452 1.775-4.157 2.989-.668 1.159-.614 6.883-.614 6.883 0 .217.199.398.416.398h13.626v-6.52l-2.964 1.793z"/></g><defs><clipPath id="a"><path fill="#fff" d="M8 0h63v63H8z"/></clipPath></defs></svg>