<svg xmlns="http://www.w3.org/2000/svg" fill="none" viewBox="0 0 80 80"><g clip-path="url(#a)"><g fill="#00A8B0" clip-path="url(#b)"><path d="M52.962 20.714h-25.2a.794.794 0 0 0-.79.783v5.306c0 .427.36.783.79.783h25.2a.794.794 0 0 0 .792-.783v-5.306a.794.794 0 0 0-.792-.783m-22.801 4.498c-.6 0-1.091-.475-1.091-1.056s.491-1.056 1.09-1.056 1.092.474 1.092 1.056c0 .581-.492 1.056-1.091 1.056m21.17-.178H39.5v-1.768h11.833zM52.962 29.556h-25.2a.794.794 0 0 0-.79.783v5.305c0 .428.36.784.79.784h25.2a.794.794 0 0 0 .792-.784V30.34a.794.794 0 0 0-.792-.783m-22.801 4.498c-.6 0-1.091-.475-1.091-1.056s.491-1.057 1.09-1.057 1.092.475 1.092 1.057c0 .581-.492 1.056-1.091 1.056m21.17-.178H39.5v-1.768h11.833zM52.962 38.398h-25.2a.794.794 0 0 0-.79.784v5.305c0 .427.36.783.79.783h25.2a.794.794 0 0 0 .792-.783v-5.305a.794.794 0 0 0-.792-.784m-22.801 4.499c-.6 0-1.091-.475-1.091-1.057 0-.581.491-1.056 1.09-1.056s1.092.475 1.092 1.056-.492 1.057-1.091 1.057m21.17-.178H39.5V40.95h11.833zM30.784 54.207h-10.07v3.881h10.07zM47.95 52.771a.49.49 0 0 0-.49-.486h-5.144v-5.056h-3.92v5.056h-5.143a.49.49 0 0 0-.491.486v6.742c0 .26.215.486.491.486h14.194a.49.49 0 0 0 .492-.486V52.77zM60 54.207H49.94v3.881H60z"/></g></g><defs><clipPath id="a"><path fill="#fff" d="M0 0h80v80H0z"/></clipPath><clipPath id="b"><path fill="#fff" d="M20.714 20.714H60V60H20.714z"/></clipPath></defs></svg>