<svg xmlns="http://www.w3.org/2000/svg" fill="none" viewBox="0 0 81 80"><path fill="#DB4D7B" d="m54.063 45.112-2.375-2.988V29.55c0-.612-.488-1.1-1.1-1.1H31.025c-.612 0-1.1.488-1.1 1.1v12.575l-2.375 2.988a.44.44 0 0 0-.1.275v1.325a.87.87 0 0 0 .875.875h24.95a.87.87 0 0 0 .875-.875v-1.325c0-.1-.037-.2-.1-.275zM31.475 29.987h18.65v10.575h-18.65zm11.838 16.55h-5.025v-1.325h5.025zM36.713 60.962c-8.3-1.4-15.063-7.237-17.65-15.237l2.524-.813A19.74 19.74 0 0 0 37.164 58.35l-.438 2.612zM18.187 41.875a24 24 0 0 1-.212-3.125c0-7.175 3.462-13.988 9.275-18.2l1.55 2.137a19.91 19.91 0 0 0-8 18.825l-2.625.363zM52.15 22.688A19.7 19.7 0 0 0 40.475 18.9c-2.888 0-5.675.6-8.263 1.8l-1.1-2.412a22.4 22.4 0 0 1 9.375-2.038c4.8 0 9.375 1.488 13.238 4.3l-1.563 2.137zM61.9 45.725l-2.526-.812a20 20 0 0 0 .963-6.138c0-5.025-1.875-9.8-5.263-13.475l1.95-1.8A22.43 22.43 0 0 1 63 38.775c0 2.375-.362 4.725-1.1 6.962zM40.487 61.275v-2.65c7.025 0 13.588-3.763 17.138-9.812l2.287 1.337c-4.025 6.863-11.475 11.113-19.425 11.113z"/><path fill="#DB4D7B" d="m56.612 41.574 3.475 5.975 5.6-4.062zM43.563 55.05l-5.175 4.575 5.075 4.7zM25.55 46.188l-6.262-2.938L17 49.775zM28.988 26.712l.95-6.85-6.913-.25zM48.475 24.038l6.875-.725-1.413-6.762z"/></svg>