<svg xmlns="http://www.w3.org/2000/svg" fill="none" viewBox="0 0 80 63"><g fill="#fff" clip-path="url(#a)"><path d="M35.834 45.623h4.261v-5.587h-2.498v-3.647h2.499V31.9h-2.5V28.25h2.5v-4.49h-2.5v-3.647h2.5v-4.096h-2.5v-3.647h2.5V7H23.584v47.452h12.24v-8.83zm-1.409-5.587h-5.152v-3.647h5.152zm0-8.138h-5.152v-3.646h5.152zm0-8.128h-5.152v-3.647h5.152zm-5.152-7.734v-3.647h5.152v3.647z"/><path d="M44.367 54.452h12.24V7H40.096v5.39h2.499v3.646h-2.5v4.096h2.5v3.646h-2.5v4.492h2.5v3.646h-2.5v4.491h2.5v3.647h-2.5v5.587h4.263v8.83zm1.417-18.063h5.153v3.647h-5.153zm0-8.129h5.153v3.647h-5.153zm0-8.137h5.153v3.646h-5.153zm0-4.087v-3.647h5.153v3.647zM10.39 42.13v-3.19h8.941v-3.592h-8.942V32.15h8.942v-3.593h-8.942V25.36h8.942v-3.593h-8.942v-3.189h8.942v-4.365H6V55h13.331V42.13zM69.61 42.13v-3.19h-8.932v-3.592h8.933V32.15h-8.933v-3.593h8.933V25.36h-8.933v-3.593h8.933v-3.189h-8.933v-4.365H74V55H60.678V42.13z"/></g><defs><clipPath id="a"><path fill="#fff" d="M6 7h68v48H6z"/></clipPath></defs></svg>