<svg xmlns="http://www.w3.org/2000/svg" fill="none" viewBox="0 0 80 63"><path fill="#fff" d="M49.948 22.55V6H30.507v16.55H7V56h25.826V44.755h14.74V56H73.39V22.55H49.916zM18.15 39.482h-6.576V35.67h6.608v3.812zm0-7.878h-6.576v-3.812h6.608v3.812zm10.133 7.878h-6.607V35.67h6.607zm0-7.878h-6.607v-3.812h6.607zm10.134 7.878h-6.608V35.67h6.608zm0-7.878h-6.608v-3.812h6.608zm-2.51-17.694a4.325 4.325 0 0 1 4.32-4.32 4.325 4.325 0 0 1 4.32 4.32 4.325 4.325 0 0 1-4.32 4.32 4.325 4.325 0 0 1-4.32-4.32m12.675 25.572h-6.607V35.67h6.607zm0-7.878h-6.607v-3.812h6.607zm10.133 7.878h-6.607V35.67h6.607zm0-7.878h-6.607v-3.812h6.607zm10.134 7.878H62.24V35.67h6.608zm0-7.878H62.24v-3.812h6.608z"/></svg>