<svg xmlns="http://www.w3.org/2000/svg" fill="none" viewBox="0 0 80 81"><g clip-path="url(#a)"><g fill="#9F9D83" clip-path="url(#b)"><path d="M20 31.338v8.617l16.492 3.9v-2.47h7.63v2.47l16.592-3.925v-8.592z"/><path d="M44.122 51.633h-7.63v-5.155L20 42.577v18.89h40.714V42.552l-16.592 3.926z"/><path d="M42.218 43.305h-3.822v6.41h3.822zM34.339 25.506c0-.163.062-.301.162-.414a.53.53 0 0 1 .41-.163H45.79c.162 0 .299.062.41.163a.54.54 0 0 1 .162.414v2.885h3.436v-2.885a4.08 4.08 0 0 0-1.17-2.86 4 4 0 0 0-2.838-1.18H34.911a4.01 4.01 0 0 0-2.838 1.18 4.06 4.06 0 0 0-1.17 2.86v2.885h3.436z"/></g></g><defs><clipPath id="a"><path fill="#fff" d="M0 .753h80v80H0z"/></clipPath><clipPath id="b"><path fill="#fff" d="M20 21.467h40.714v40H20z"/></clipPath></defs></svg>