<svg xmlns="http://www.w3.org/2000/svg" width="40" height="54" fill="none"><rect width="40" height="40" fill="#fff" rx="5"/><g clip-path="url(#a)"><path fill="#EDCB3A" d="M38.38 0H1.622C.725 0 0 .722 0 1.615v50.772c0 .57.302 1.1.795 1.389.494.29 1.104.3 1.607.024L20 44.156 37.598 53.8c.244.135.514.2.782.2A1.617 1.617 0 0 0 40 52.387V1.615A1.62 1.62 0 0 0 38.378 0zM5.054 7.25a1.533 1.533 0 0 1-1.535-1.527c0-.843.687-1.528 1.535-1.528s1.534.685 1.534 1.528c0 .844-.687 1.528-1.534 1.528m7.473 0a1.533 1.533 0 0 1-1.534-1.527c0-.843.687-1.528 1.534-1.528s1.534.685 1.534 1.528c0 .844-.687 1.528-1.534 1.528m7.473 0a1.533 1.533 0 0 1-1.534-1.527c0-.843.687-1.528 1.534-1.528s1.534.685 1.534 1.528c0 .844-.687 1.528-1.534 1.528m7.473 0a1.533 1.533 0 0 1-1.534-1.527c0-.843.687-1.528 1.534-1.528s1.535.685 1.535 1.528c0 .844-.688 1.528-1.535 1.528m7.476 0a1.533 1.533 0 0 1-1.535-1.527c0-.843.688-1.528 1.535-1.528s1.534.685 1.534 1.528c0 .844-.687 1.528-1.534 1.528"/></g><path fill="#333" d="M15.773 20.28v-2.24l5.58-1.26V31h-2.34V19.38z"/><defs><clipPath id="a"><path fill="#fff" d="M0 0h40v54H0z"/></clipPath></defs></svg>