<svg xmlns="http://www.w3.org/2000/svg" width="40" height="54" fill="none"><g clip-path="url(#a)"><path fill="#9E663F" d="M38.38 0H1.622C.725 0 0 .722 0 1.615v50.772c0 .57.302 1.1.795 1.389.494.29 1.104.3 1.607.024L20 44.156 37.598 53.8c.244.135.514.2.782.2A1.617 1.617 0 0 0 40 52.387V1.615A1.62 1.62 0 0 0 38.378 0zM5.054 7.25a1.533 1.533 0 0 1-1.535-1.527c0-.843.687-1.528 1.535-1.528s1.534.685 1.534 1.528c0 .844-.687 1.528-1.534 1.528m7.473 0a1.533 1.533 0 0 1-1.534-1.527c0-.843.687-1.528 1.534-1.528s1.534.685 1.534 1.528c0 .844-.687 1.528-1.534 1.528m7.473 0a1.533 1.533 0 0 1-1.534-1.527c0-.843.687-1.528 1.534-1.528s1.534.685 1.534 1.528c0 .844-.687 1.528-1.534 1.528m7.473 0a1.533 1.533 0 0 1-1.534-1.527c0-.843.687-1.528 1.534-1.528s1.535.685 1.535 1.528c0 .844-.688 1.528-1.535 1.528m7.476 0a1.533 1.533 0 0 1-1.535-1.527c0-.843.688-1.528 1.535-1.528s1.534.685 1.534 1.528c0 .844-.687 1.528-1.534 1.528"/></g><path fill="#fff" d="M18.478 24.14v-1.26q.64 0 1.14-.16.501-.18.84-.48.36-.32.54-.72.2-.4.2-.84 0-.56-.22-.98a1.46 1.46 0 0 0-.62-.68q-.42-.24-1.06-.24-.6 0-1.08.26-.48.24-.78.68-.28.44-.28 1h-2.22q0-1.16.54-2.04a3.86 3.86 0 0 1 1.54-1.38q.98-.52 2.26-.52 1.36 0 2.32.52t1.46 1.38a3.5 3.5 0 0 1 .52 1.88q0 .8-.38 1.46t-1.08 1.14q-.68.48-1.62.74-.92.24-2.02.24m.7 7.1q-1.12 0-2.02-.32a4.8 4.8 0 0 1-1.52-.92 4.4 4.4 0 0 1-.96-1.36 4.1 4.1 0 0 1-.34-1.64h2.38q0 .66.32 1.16.34.5.9.78.58.26 1.28.26.72 0 1.24-.26.54-.26.84-.74.3-.5.3-1.2 0-.56-.22-1a2 2 0 0 0-.64-.74 2.65 2.65 0 0 0-.98-.44q-.56-.16-1.28-.16V23.3q1.161 0 2.16.24 1 .22 1.74.7.76.46 1.18 1.22.42.74.42 1.8 0 1.2-.6 2.1-.6.88-1.68 1.38t-2.52.5"/><defs><clipPath id="a"><path fill="#fff" d="M0 0h40v54H0z"/></clipPath></defs></svg>