<svg xmlns="http://www.w3.org/2000/svg" width="40" height="54" fill="none"><g clip-path="url(#a)"><path fill="#757575" d="M38.38 0H1.622C.725 0 0 .722 0 1.615v50.772c0 .57.302 1.1.795 1.389.494.29 1.104.3 1.607.024L20 44.156 37.598 53.8c.244.135.514.2.782.2A1.617 1.617 0 0 0 40 52.387V1.615A1.62 1.62 0 0 0 38.378 0zM5.054 7.25a1.533 1.533 0 0 1-1.535-1.527c0-.843.687-1.528 1.535-1.528s1.534.685 1.534 1.528c0 .844-.687 1.528-1.534 1.528m7.473 0a1.533 1.533 0 0 1-1.534-1.527c0-.843.687-1.528 1.534-1.528s1.534.685 1.534 1.528c0 .844-.687 1.528-1.534 1.528m7.473 0a1.533 1.533 0 0 1-1.534-1.527c0-.843.687-1.528 1.534-1.528s1.534.685 1.534 1.528c0 .844-.687 1.528-1.534 1.528m7.473 0a1.533 1.533 0 0 1-1.534-1.527c0-.843.687-1.528 1.534-1.528s1.535.685 1.535 1.528c0 .844-.688 1.528-1.535 1.528m7.476 0a1.533 1.533 0 0 1-1.535-1.527c0-.843.688-1.528 1.535-1.528s1.534.685 1.534 1.528c0 .844-.687 1.528-1.534 1.528"/></g><path fill="#fff" d="m13.875 31 6.46-6.82q.5-.54.86-1.02.36-.5.54-1 .2-.52.2-1.08 0-.42-.16-.8a1.73 1.73 0 0 0-.46-.7q-.3-.32-.74-.5a2.44 2.44 0 0 0-1.02-.2q-.801 0-1.38.38-.58.38-.9 1.08-.3.68-.3 1.62h-2.34q0-1.5.56-2.66a4.45 4.45 0 0 1 1.68-1.86q1.12-.68 2.72-.68 1.22 0 2.12.4.9.38 1.48 1.02.6.62.88 1.36.3.72.3 1.42 0 1.1-.54 2.12a6.9 6.9 0 0 1-1.38 1.82l-3.96 3.9h6.06V31z"/><defs><clipPath id="a"><path fill="#fff" d="M0 0h40v54H0z"/></clipPath></defs></svg>