<svg width="32" height="32" viewBox="0 0 32 32" fill="none" xmlns="http://www.w3.org/2000/svg">
<g clip-path="url(#clip0_1631_68789)">
<path d="M6.17409 14.2579C6.17409 13.7484 5.78773 13.335 5.31091 13.335H3.52968C3.05287 13.335 2.6665 13.7484 2.6665 14.2579C2.6665 14.7675 3.05287 15.1809 3.52968 15.1809H5.31091C5.78773 15.1809 6.17409 14.7675 6.17409 14.2579Z" fill="#190019"/>
<path d="M7.07345 20.7187L4.74241 22.8998C4.38365 23.2352 4.34754 23.8178 4.66134 24.2012C4.83232 24.4094 5.07116 24.5165 5.31142 24.5165C5.51328 24.5165 5.71611 24.4404 5.87956 24.2872L8.2106 22.1061C8.56936 21.7707 8.60548 21.1881 8.29167 20.8047C7.97645 20.4213 7.43123 20.3823 7.07345 20.7187Z" fill="#190019"/>
<path d="M7.07349 7.79749C7.23694 7.9507 7.43977 8.02672 7.64163 8.02672C7.88189 8.02672 8.12073 7.91957 8.29171 7.71144C8.60551 7.32807 8.56951 6.74544 8.21064 6.4101L5.8796 4.22892C5.52128 3.89254 4.97518 3.9316 4.66138 4.31497C4.34758 4.69834 4.38358 5.28098 4.74245 5.61631L7.07349 7.79749Z" fill="#190019"/>
<path d="M28.4696 13.335H26.6879C26.2111 13.335 25.8242 13.7484 25.8242 14.2579C25.8242 14.7675 26.2111 15.1809 26.6879 15.1809H28.4696C28.9464 15.1809 29.3333 14.7675 29.3333 14.2579C29.3333 13.7484 28.9464 13.335 28.4696 13.335Z" fill="#190019"/>
<path d="M24.9257 20.7188C24.5669 20.3845 24.0217 20.4215 23.7079 20.8048C23.3931 21.1882 23.4296 21.7708 23.7884 22.1062L26.119 24.2874C26.2829 24.4406 26.4853 24.5166 26.6876 24.5166C26.9274 24.5166 27.1662 24.4094 27.3368 24.2013C27.6516 23.8179 27.615 23.2353 27.2563 22.9L24.9257 20.7188Z" fill="#190019"/>
<path d="M24.3571 8.02676C24.5594 8.02676 24.7618 7.95074 24.9257 7.79753L27.2563 5.61635C27.615 5.28102 27.6516 4.69838 27.3368 4.31501C27.023 3.93059 26.4769 3.89456 26.119 4.22896L23.7884 6.41015C23.4296 6.74548 23.3931 7.32811 23.7079 7.71149C23.8784 7.91973 24.1173 8.02676 24.3571 8.02676Z" fill="#190019"/>
<path d="M21.9491 19.5976C23.2709 18.034 23.9986 16.0109 23.9986 13.9008C23.9986 11.6144 23.164 9.46529 21.6484 7.8496C20.1393 6.23893 18.1384 5.35303 16.0148 5.35303H15.9876C13.8613 5.35303 11.8598 6.23998 10.3513 7.84856C8.83562 9.46517 8.00146 11.6144 8.00146 13.9006C8.00146 16.0118 8.72934 18.0348 10.0497 19.5954C10.8379 20.5333 11.2722 21.6964 11.2722 22.8696C11.2711 23.2612 11.2706 23.6069 11.2708 24.0158C11.2708 26.212 12.9429 27.9998 14.9985 27.9998H17.0012C19.0565 27.9998 20.7295 26.212 20.7295 24.0158C20.7297 23.6067 20.729 23.2612 20.7276 22.8696C20.7276 21.6964 21.1613 20.5333 21.9491 19.5973V19.5976ZM9.72782 13.9009C9.72782 12.1081 10.3826 10.4223 11.5708 9.15503C12.7535 7.89275 14.3216 7.19899 15.9903 7.19899H16.0118C17.6774 7.19899 19.2454 7.89275 20.4285 9.15503C21.6173 10.4233 22.2711 12.108 22.2711 13.9009C22.2711 15.5526 21.7015 17.1371 20.6664 18.3624C19.7285 19.4777 19.1583 20.8389 19.0285 22.2513H12.9696C12.8403 20.8399 12.2706 19.4777 11.3317 18.3604C10.2976 17.1371 9.7276 15.5535 9.7276 13.9009H9.72782ZM17.0011 26.1542H14.9984C13.9213 26.1542 13.0402 25.2398 12.9988 24.1001H19.0007C18.9589 25.2398 18.0784 26.1542 17.0011 26.1542Z" fill="#190019"/>
</g>
<defs>
<clipPath id="clip0_1631_68789">
<rect width="26.6667" height="24" fill="white" transform="translate(2.6665 4)"/>
</clipPath>
</defs>
</svg>
