<svg width="41" height="41" viewBox="0 0 41 41" fill="none" xmlns="http://www.w3.org/2000/svg">
<g clip-path="url(#clip0_868_100820)">
<path d="M27.3867 41H3.84375C3.78396 40.9765 3.72523 40.9423 3.66331 40.9295C1.93576 40.5847 0.790104 39.5725 0.208203 37.9165C0.121719 37.6688 0.0683333 37.4104 0 37.1562C0 26.0521 0 14.9479 0 3.84375C0.025625 3.77008 0.0597917 3.69854 0.0747396 3.6238C0.301094 2.41195 0.90862 1.42112 1.94857 0.777292C2.52193 0.422813 3.20846 0.253047 3.84375 0C10.0098 0 16.1758 0 22.3418 0C22.5639 0.162292 22.8116 0.297891 23.0048 0.490078C25.5866 3.06005 28.1587 5.63964 30.7393 8.21068C31.0821 8.55234 31.2401 8.93779 31.2369 9.42466C31.223 11.1864 31.2369 12.947 31.2262 14.7087C31.2251 14.9767 31.2903 15.122 31.5529 15.249C36.1772 17.4827 37.7349 23.276 34.8681 27.5373C34.7966 27.644 34.7293 27.754 34.6279 27.9152C34.756 28.0188 34.881 28.0999 34.9845 28.2035C36.7793 29.9941 38.5752 31.7835 40.3594 33.5848C40.6071 33.8346 40.7886 34.1485 41.0011 34.4325V34.9931C40.4288 36.0971 39.6109 36.2188 38.7236 35.3315C36.9043 33.5122 35.0838 31.6939 33.2677 29.8702C33.1662 29.7688 33.1054 29.6268 33.0498 29.5414C32.4818 29.8681 32.0334 30.1596 31.5561 30.3891C31.2967 30.514 31.2241 30.656 31.2262 30.9294C31.2369 32.8491 31.2486 34.7689 31.2241 36.6886C31.2006 38.5763 29.9396 40.2323 28.1501 40.7897C27.8992 40.8676 27.643 40.9295 27.3889 40.9989L27.3867 41ZM20.8203 2.40234C20.6473 2.40234 20.5288 2.40234 20.4103 2.40234C15.1262 2.40234 9.84107 2.40234 4.55698 2.40234C3.23836 2.40234 2.40341 3.23409 2.40341 4.54951C2.40234 15.1849 2.40234 25.8215 2.40341 36.4569C2.40341 37.7488 3.24263 38.5955 4.52602 38.5955C11.9188 38.5977 19.3127 38.5977 26.7055 38.5955C27.9889 38.5955 28.8249 37.7488 28.8271 36.4558C28.8303 35.0283 28.8271 33.5997 28.8271 32.1722C28.8271 31.8551 28.8271 31.5369 28.8271 31.2177C23.7191 31.7387 19.506 27.6697 19.4953 22.8404C19.4846 17.9524 23.7586 13.8877 28.8046 14.4226V10.4102C28.6381 10.4102 28.4939 10.4102 28.3498 10.4102C26.2816 10.4102 24.2124 10.4123 22.1443 10.4091C21.3136 10.408 20.8224 9.92008 20.8203 9.09367C20.8171 7.5188 20.8192 5.94393 20.8192 4.36906C20.8192 3.73057 20.8192 3.09208 20.8192 2.40234H20.8203ZM33.9051 22.8223C33.9051 19.4985 31.2369 16.8271 27.9067 16.8164C24.6011 16.8068 21.9062 19.5028 21.9062 22.8212C21.9062 26.1215 24.584 28.8217 27.8661 28.8281C31.2187 28.8345 33.9061 26.1621 33.9061 22.8233L33.9051 22.8223ZM23.2504 4.19182V7.97578H27.028C25.767 6.71268 24.5189 5.4624 23.2504 4.19182Z" fill="black"/>
<path d="M12.8171 15.2148C10.5771 15.2148 8.33702 15.2191 6.09803 15.2127C5.14243 15.2106 4.53491 14.3425 4.91608 13.5257C5.14777 13.0282 5.56204 12.8104 6.10871 12.8114C8.36157 12.8146 10.6155 12.8125 12.8684 12.8125C15.0945 12.8125 17.3218 12.8082 19.548 12.8146C20.4779 12.8178 21.0801 13.6752 20.7182 14.4835C20.4865 15.0002 20.0594 15.218 19.4967 15.217C17.2705 15.2116 15.0433 15.2148 12.8171 15.2148Z" fill="black"/>
<path d="M11.2141 20.0195C9.53464 20.0195 7.85514 20.0206 6.17563 20.0195C5.3599 20.0195 4.8143 19.5433 4.80576 18.8322C4.79722 18.1062 5.34923 17.6183 6.18844 17.6183C9.56027 17.6183 12.9332 17.6161 16.305 17.6183C17.267 17.6183 17.8809 18.466 17.5136 19.2892C17.2905 19.7889 16.8794 20.0206 16.3327 20.0206C14.6265 20.0195 12.9203 20.0206 11.2141 20.0206V20.0195Z" fill="black"/>
<path d="M11.2141 24.8242C9.53455 24.8242 7.85505 24.8253 6.17554 24.8242C5.35981 24.8242 4.81421 24.3469 4.80674 23.6358C4.7982 22.9098 5.35127 22.4229 6.18942 22.4218C9.56124 22.4218 12.9341 22.4197 16.306 22.4218C17.2669 22.4218 17.8819 23.2707 17.5135 24.0928C17.2904 24.5925 16.8782 24.8242 16.3316 24.8231C14.6254 24.8221 12.9192 24.8231 11.213 24.8231L11.2141 24.8242Z" fill="black"/>
<path d="M11.2066 29.6289C9.52709 29.6289 7.84759 29.63 6.16808 29.6289C5.35556 29.6289 4.80996 29.1463 4.80569 28.4341C4.80142 27.722 5.34915 27.2276 6.15527 27.2276C9.5271 27.2265 12.9 27.2265 16.2718 27.2276C17.0758 27.2276 17.6235 27.7273 17.615 28.4416C17.6064 29.1409 17.0673 29.6278 16.2857 29.6289C14.5934 29.6321 12.9 29.6289 11.2077 29.6289H11.2066Z" fill="black"/>
</g>
<defs>
<clipPath id="clip0_868_100820">
<rect width="41" height="41" fill="white"/>
</clipPath>
</defs>
</svg>
