<svg width="30" height="24" viewBox="0 0 30 24" fill="none" xmlns="http://www.w3.org/2000/svg">
<path d="M3 3L12.1615 9.9184L12.1645 9.92093C13.1818 10.6669 13.6907 11.0401 14.2481 11.1843C14.7408 11.3118 15.2588 11.3118 15.7515 11.1843C16.3094 11.04 16.8198 10.6657 17.8389 9.9184C17.8389 9.9184 23.7151 5.40891 27 3M1.5 17.7003V6.30029C1.5 4.62014 1.5 3.77943 1.82698 3.1377C2.1146 2.57321 2.57321 2.1146 3.1377 1.82698C3.77943 1.5 4.62014 1.5 6.30029 1.5H23.7003C25.3805 1.5 26.2194 1.5 26.8611 1.82698C27.4256 2.1146 27.8857 2.57321 28.1733 3.1377C28.5 3.7788 28.5 4.61849 28.5 6.29537V17.7054C28.5 19.3822 28.5 20.2207 28.1733 20.8618C27.8857 21.4263 27.4256 21.8857 26.8611 22.1733C26.22 22.5 25.3815 22.5 23.7046 22.5H6.29537C4.61849 22.5 3.7788 22.5 3.1377 22.1733C2.57321 21.8857 2.1146 21.4263 1.82698 20.8618C1.5 20.2201 1.5 19.3805 1.5 17.7003Z" stroke="white" stroke-width="3" stroke-linecap="round" stroke-linejoin="round"/>
</svg>
