<svg width="37" height="26" viewBox="0 0 37 26" fill="none" xmlns="http://www.w3.org/2000/svg">
<g clip-path="url(#clip0_868_100812)">
<path d="M33.3 0H3.69983C3.63925 0 3.57867 0.00148028 3.5184 0.00414479C3.45782 0.00680931 3.39754 0.0112502 3.33727 0.0168752C3.277 0.0225003 3.21704 0.0296057 3.15707 0.0381913C3.09711 0.046777 3.03746 0.0565468 2.97811 0.067797C2.91877 0.0790472 2.85973 0.0917776 2.801 0.105988C2.74228 0.120199 2.68386 0.135594 2.62606 0.152469C2.56826 0.169344 2.51077 0.187404 2.45359 0.206944C2.39672 0.226483 2.34015 0.247503 2.28421 0.269708C2.22827 0.291912 2.17294 0.3153 2.11823 0.340169C2.06352 0.365038 2.00943 0.391091 1.95596 0.418328C1.90249 0.445565 1.84994 0.474283 1.79801 0.504185C1.74609 0.534086 1.69478 0.564876 1.6444 0.597147C1.59402 0.629417 1.54456 0.662871 1.49604 0.697214C1.44751 0.731852 1.3996 0.767675 1.35293 0.804386C1.30626 0.841097 1.2602 0.878993 1.21538 0.918072C1.17057 0.957152 1.12668 0.997119 1.08402 1.03798C1.04106 1.07913 0.99964 1.12087 0.95884 1.1641C0.918041 1.20702 0.878477 1.25114 0.840151 1.29584C0.801824 1.34055 0.764424 1.38643 0.72857 1.43291C0.692406 1.4794 0.65748 1.52706 0.624098 1.57502C0.590407 1.62328 0.557953 1.67213 0.526735 1.72216C0.495517 1.7719 0.465845 1.82253 0.437409 1.87374C0.408664 1.92496 0.381464 1.97677 0.35581 2.02917C0.329846 2.08158 0.305428 2.13457 0.282247 2.18816C0.259065 2.24174 0.237429 2.29592 0.217029 2.35069C0.196629 2.40546 0.177466 2.46053 0.160157 2.51589C0.142539 2.57155 0.126466 2.62721 0.11163 2.68346C0.0967938 2.73971 0.0835031 2.79626 0.0717577 2.85339C0.0600124 2.91024 0.0495034 2.96738 0.0408489 3.02481C0.0318854 3.08225 0.0244673 3.13968 0.0185946 3.19771C0.0127219 3.25544 0.00808559 3.31317 0.0053038 3.3712C0.00221291 3.42923 0.000976562 3.48725 0.000976562 3.54528V22.4544C0.000976562 22.5125 0.002522 22.5705 0.0053038 22.6282C0.00839468 22.6862 0.0127219 22.744 0.0185946 22.8017C0.0244673 22.8594 0.0318854 22.9169 0.0408489 22.9746C0.0498125 23.032 0.0600124 23.0892 0.0717577 23.146C0.0835031 23.2029 0.0967938 23.2597 0.11163 23.3157C0.126157 23.3719 0.142539 23.4279 0.160157 23.4835C0.177775 23.5392 0.196629 23.5939 0.217029 23.6487C0.237429 23.7035 0.259065 23.7577 0.282247 23.811C0.305428 23.8645 0.329846 23.9175 0.35581 23.9702C0.381773 24.0226 0.408973 24.0744 0.437409 24.1257C0.465845 24.1769 0.495826 24.2272 0.526735 24.277C0.557953 24.3267 0.590407 24.3758 0.624098 24.4241C0.657789 24.4723 0.692406 24.5197 0.72857 24.5662C0.764733 24.6127 0.801824 24.6586 0.840151 24.7033C0.878477 24.7483 0.918041 24.7921 0.95884 24.835C0.99964 24.8779 1.04106 24.92 1.08402 24.9608C1.12698 25.002 1.17087 25.042 1.21538 25.081C1.2602 25.1201 1.30626 25.1577 1.35293 25.1947C1.39991 25.2314 1.44751 25.2673 1.49604 25.3019C1.54456 25.3362 1.59433 25.3697 1.6444 25.402C1.69478 25.4342 1.74578 25.4653 1.79801 25.4949C1.84994 25.5248 1.90249 25.5533 1.95596 25.5808C2.00943 25.608 2.06352 25.6344 2.11823 25.6589C2.17294 25.6838 2.22827 25.7072 2.28421 25.7294C2.34015 25.7516 2.39672 25.7726 2.45359 25.7922C2.51046 25.8117 2.56826 25.8298 2.62606 25.8466C2.68417 25.8635 2.74259 25.8789 2.801 25.8931C2.85973 25.9073 2.91877 25.9201 2.97811 25.9313C3.03746 25.9426 3.09711 25.9523 3.15707 25.9609C3.21704 25.9695 3.277 25.9766 3.33727 25.9822C3.39754 25.9879 3.45813 25.9923 3.5184 25.995C3.57867 25.9976 3.63925 25.9991 3.69983 25.9991H33.3C33.3605 25.9991 33.4208 25.9976 33.4814 25.995C33.542 25.992 33.6022 25.9879 33.6625 25.9822C33.7228 25.9766 33.7828 25.9695 33.8427 25.9609C33.9027 25.9523 33.9623 25.9426 34.0217 25.9313C34.081 25.9201 34.1401 25.9073 34.1988 25.8931C34.2575 25.8789 34.3156 25.8635 34.3737 25.8466C34.4318 25.8298 34.489 25.8117 34.5462 25.7922C34.6031 25.7726 34.6596 25.7516 34.7156 25.7294C34.7715 25.7072 34.8269 25.6838 34.8816 25.6589C34.9363 25.6344 34.9904 25.608 35.0438 25.5808C35.0973 25.5533 35.1498 25.5248 35.2018 25.4949C35.2537 25.465 35.305 25.4342 35.3554 25.402C35.4058 25.3697 35.4552 25.3362 35.5038 25.3019C35.5523 25.2673 35.6002 25.2314 35.6469 25.1947C35.6935 25.1577 35.7396 25.1201 35.7844 25.081C35.8292 25.042 35.8731 25.002 35.9158 24.9608C35.9587 24.92 36.0001 24.8779 36.041 24.835C36.0817 24.7921 36.121 24.748 36.1596 24.7033C36.198 24.6586 36.2354 24.6127 36.2712 24.5662C36.3074 24.5197 36.342 24.4721 36.3757 24.4241C36.4094 24.3758 36.4418 24.3267 36.4727 24.277C36.504 24.2272 36.5336 24.1769 36.5621 24.1257C36.5908 24.0744 36.6177 24.0226 36.6437 23.9702C36.6696 23.9178 36.6941 23.8648 36.7172 23.811C36.7404 23.7574 36.7621 23.7032 36.7825 23.6487C36.8029 23.5942 36.8217 23.5392 36.8393 23.4835C36.8569 23.4279 36.873 23.3719 36.8878 23.3157C36.9027 23.2594 36.916 23.2029 36.9277 23.146C36.9395 23.0892 36.95 23.032 36.9586 22.9746C36.9676 22.9172 36.975 22.8594 36.9809 22.8017C36.9868 22.744 36.9914 22.6862 36.9942 22.6282C36.997 22.5702 36.9985 22.5125 36.9985 22.4544V3.54558C36.9985 3.48755 36.997 3.42952 36.9942 3.37149C36.9911 3.31347 36.9868 3.25574 36.9809 3.19801C36.975 3.14027 36.9676 3.08254 36.9586 3.02511C36.9497 2.96767 36.9395 2.91053 36.9277 2.85369C36.916 2.79655 36.9027 2.74001 36.8878 2.68375C36.873 2.6275 36.8569 2.57155 36.8393 2.51619C36.8217 2.46082 36.8029 2.40546 36.7825 2.35099C36.7621 2.29651 36.7404 2.24233 36.7172 2.18845C36.6941 2.13487 36.6696 2.08187 36.6437 2.02947C36.6177 1.97707 36.5905 1.92526 36.5621 1.87404C36.5336 1.82282 36.5037 1.77249 36.4727 1.72246C36.4415 1.67272 36.4094 1.62358 36.3757 1.57532C36.342 1.52706 36.3074 1.47969 36.2712 1.43321C36.2351 1.38673 36.198 1.34084 36.1596 1.29614C36.121 1.25114 36.0817 1.20732 36.041 1.16439C36.0001 1.12146 35.9587 1.07942 35.9158 1.03827C35.8728 0.997415 35.8289 0.957152 35.7844 0.918368C35.7396 0.879289 35.6935 0.841393 35.6469 0.804682C35.5999 0.767971 35.5523 0.732148 35.5038 0.69751C35.4552 0.662871 35.4055 0.629417 35.3554 0.597443C35.305 0.565172 35.2537 0.534086 35.2018 0.504481C35.1498 0.474579 35.0973 0.445862 35.0438 0.418624C34.9904 0.391091 34.9363 0.365334 34.8816 0.340465C34.8269 0.315597 34.7715 0.292208 34.7156 0.270004C34.6596 0.2478 34.6031 0.226779 34.5462 0.20724C34.489 0.1877 34.4315 0.169641 34.3737 0.152765C34.3156 0.13589 34.2575 0.120495 34.1988 0.106284C34.1401 0.0920737 34.081 0.0793432 34.0217 0.0680931C33.9623 0.0568429 33.9027 0.046777 33.8427 0.0384874C33.7828 0.0299017 33.7228 0.0227964 33.6625 0.0171713C33.6022 0.0112502 33.542 0.00710536 33.4814 0.00444085C33.4208 0.00148028 33.3605 0.000296057 33.3 0.000296057V0ZM2.46657 3.75222L12.7033 12.1573L2.46657 21.9653V3.75222ZM19.3014 13.1479C19.2739 13.1707 19.2451 13.1923 19.2157 13.2127C19.1861 13.2331 19.1558 13.2524 19.1243 13.2702C19.0927 13.2879 19.0609 13.3045 19.0278 13.3193C18.9951 13.3344 18.9614 13.348 18.9274 13.3602C18.8934 13.3723 18.8587 13.3829 18.8235 13.3924C18.7883 13.4016 18.7527 13.4093 18.7169 13.4155C18.681 13.4217 18.6449 13.4265 18.6087 13.4294C18.5722 13.4324 18.5361 13.4342 18.4996 13.4342C18.4631 13.4342 18.427 13.4324 18.3905 13.4294C18.354 13.4262 18.3182 13.4214 18.2823 13.4155C18.2464 13.4093 18.2109 13.4016 18.176 13.3924C18.1407 13.3832 18.1061 13.3723 18.0721 13.3602C18.0381 13.348 18.0044 13.3341 17.9717 13.3193C17.9386 13.3042 17.9068 13.2879 17.8752 13.2702C17.8437 13.2524 17.8134 13.2331 17.7837 13.2127C17.7541 13.1923 17.7256 13.1707 17.6981 13.1479L4.56312 2.36372H32.4364L19.3014 13.1479ZM14.5803 13.6997L16.0912 14.9405C16.1332 14.9737 16.1762 15.0056 16.2194 15.037C16.263 15.0684 16.3069 15.0986 16.3517 15.1282C16.3966 15.1575 16.442 15.1862 16.488 15.2138C16.5341 15.2413 16.5808 15.2679 16.6284 15.2937C16.6757 15.3195 16.7236 15.344 16.7718 15.3677C16.8203 15.3914 16.8691 15.4142 16.9186 15.4358C16.9681 15.4574 17.0178 15.4781 17.0682 15.4977C17.1186 15.5175 17.1693 15.5359 17.2206 15.5533C17.2719 15.5708 17.3232 15.5874 17.3751 15.6028C17.4271 15.6182 17.4793 15.6324 17.5318 15.6457C17.5844 15.659 17.6372 15.6712 17.6904 15.6824C17.7436 15.6937 17.7967 15.7034 17.8505 15.7123C17.904 15.7212 17.9578 15.7289 18.0118 15.7357C18.0656 15.7425 18.1197 15.7479 18.1738 15.7526C18.2279 15.757 18.2823 15.7603 18.3364 15.7627C18.3908 15.7647 18.4452 15.7659 18.4993 15.7659C18.5534 15.7659 18.6081 15.7647 18.6622 15.7627C18.7166 15.7603 18.7707 15.757 18.8251 15.7526C18.8791 15.7481 18.9332 15.7425 18.987 15.7357C19.0408 15.7289 19.0946 15.7212 19.1484 15.7123C19.2018 15.7034 19.2553 15.6934 19.3082 15.6824C19.3613 15.6712 19.4142 15.659 19.4667 15.6457C19.5193 15.6324 19.5715 15.6182 19.6234 15.6028C19.6754 15.5874 19.727 15.5708 19.778 15.5533C19.8293 15.5359 19.88 15.5172 19.9304 15.4977C19.9807 15.4781 20.0308 15.4574 20.08 15.4358C20.1294 15.4139 20.1782 15.3914 20.2268 15.3677C20.2753 15.344 20.3229 15.3195 20.3705 15.2937C20.4181 15.2679 20.4645 15.2413 20.5105 15.2138C20.5566 15.1862 20.6023 15.1575 20.6468 15.1282C20.6916 15.0986 20.7358 15.0684 20.7791 15.037C20.8227 15.0059 20.8653 14.9737 20.9074 14.9405L22.4194 13.6985L32.7893 23.6366H4.21045L14.5803 13.6997ZM24.2978 12.1632L34.5332 3.75222V21.9653L24.2978 12.1632Z" fill="black"/>
</g>
<defs>
<clipPath id="clip0_868_100812">
<rect width="37" height="26" fill="white"/>
</clipPath>
</defs>
</svg>
