<svg width="16" height="16" viewBox="0 0 16 16" fill="none" xmlns="http://www.w3.org/2000/svg">
<path d="M6.66696 3.2202H5.46696C4.72022 3.2202 4.34658 3.2202 4.06136 3.3606C3.81048 3.48409 3.60665 3.68099 3.47882 3.92336C3.3335 4.19889 3.3335 4.55985 3.3335 5.28124V10.1759C3.3335 10.8973 3.3335 11.2578 3.47882 11.5333C3.60665 11.7757 3.81048 11.9729 4.06136 12.0964C4.3463 12.2367 4.71949 12.2367 5.46477 12.2367H10.5356C11.2808 12.2367 11.6535 12.2367 11.9384 12.0964C12.1893 11.9729 12.3938 11.7755 12.5216 11.5331C12.6668 11.2579 12.6668 10.8977 12.6668 10.1778V9.0165M13.3335 5.79634V2.57617M13.3335 2.57617H10.0002M13.3335 2.57617L8.66683 7.0844" stroke="black" stroke-width="2" stroke-linecap="round" stroke-linejoin="round"/>
</svg>
