<svg width="200" height="36" viewBox="0 0 200 36" fill="none" xmlns="http://www.w3.org/2000/svg">
<g clip-path="url(#clip0_878_35582)">
<path d="M22.5991 17.5607C22.5991 12.3204 26.8724 8.0234 32.1906 8.01175V4.57648C32.1906 3.98258 31.7093 3.51678 31.1223 3.51678H4.94241C4.33194 3.51678 3.83887 3.98258 3.83887 4.57648V30.5332C3.83887 31.1504 4.33194 31.6395 4.94241 31.6395H31.1223C31.7093 31.6395 32.1906 31.1504 32.1906 30.5332V27.1212C26.8724 27.1212 22.5991 22.8125 22.5991 17.5607Z" fill="black"/>
<path d="M35.83 17.5607C35.83 19.4006 34.3156 20.9377 32.4607 20.9377C30.6058 20.9377 29.0796 19.4122 29.0796 17.5607C29.0796 15.7091 30.6058 14.2185 32.4607 14.2185C34.3156 14.2185 35.83 15.7324 35.83 17.5607Z" fill="black"/>
<path d="M51.6202 17.5607C51.6202 20.1226 49.5422 22.1604 46.9947 22.1604C44.4471 22.1604 42.3574 20.1226 42.3574 17.5607C42.3574 14.9988 44.4119 12.9609 46.9947 12.9609C49.5774 12.9609 51.6202 15.0453 51.6202 17.5607Z" fill="black"/>
<path d="M82.7778 29.1009C82.7778 29.1009 84.6796 24.6408 84.6679 24.571C84.6679 24.5127 79.6197 12.9376 79.0093 11.4354H82.9186C82.9773 11.6101 86.6402 20.798 86.6402 20.798H86.7106C86.7106 20.798 90.1621 11.6101 90.1973 11.4354H93.8132C93.6723 11.7149 86.3115 29.1009 86.3115 29.1009H82.766H82.7778Z" fill="black"/>
<path d="M99.589 12.5882C100.763 11.6101 102.442 11.0977 104.578 11.0977C109.11 11.0977 110.037 13.811 110.037 16.0817V24.1052H106.516V17.3161C106.516 16.0817 106.516 13.5198 103.487 13.5198C101.186 13.5198 99.9999 14.7775 99.6947 15.1734C99.5655 15.3365 99.5068 15.3947 99.5068 15.4529C99.5068 15.4529 99.5303 15.4995 99.5303 15.5111V24.1168H95.9849V11.447H99.3307V12.7746L99.5773 12.5999L99.589 12.5882Z" fill="black"/>
<path d="M181.932 24.1052V6.26501H185.56V16.8154L185.853 16.5475C185.853 16.5475 191.254 11.5053 191.324 11.4354H195.445L189.375 17.0949C189.375 17.0949 196.149 24.0935 196.149 24.1052H191.664C191.559 24.0236 185.56 17.5723 185.56 17.5723V24.1052H181.932Z" fill="black"/>
<path d="M73.0924 6.17184V12.2738L72.8928 12.1574C71.8127 11.5868 70.5331 11.284 69.2182 11.284C64.8275 11.284 61.8926 13.9158 61.8926 17.8634C61.8926 21.8111 64.8275 24.2798 69.2182 24.2798C70.5683 24.2798 71.801 23.977 72.8928 23.4181L73.0924 23.3133V24.175H76.45V6.17184H73.0924ZM69.0891 21.7529C66.9172 21.7529 65.1445 20.0061 65.1445 17.8518C65.1445 15.6975 66.9172 13.9391 69.0891 13.9391C71.261 13.9391 72.9985 15.6742 72.9985 17.8518C72.9985 20.0294 71.261 21.7529 69.0891 21.7529Z" fill="black"/>
<path d="M136.875 11.284C135.548 11.284 134.292 11.5868 133.189 12.1574L133.036 12.2738V6.17184H129.631V24.1634H133.036V23.3016L133.189 23.4064C134.28 23.977 135.525 24.2682 136.875 24.2682C141.266 24.2682 144.189 21.6946 144.189 17.8518C144.189 14.0089 141.266 11.2724 136.875 11.2724M136.992 21.7529C134.82 21.7529 133.059 20.0061 133.059 17.8518C133.059 15.6975 134.82 13.9391 136.992 13.9391C139.164 13.9391 140.984 15.6742 140.984 17.8518C140.984 20.0294 139.176 21.7529 136.992 21.7529Z" fill="black"/>
<path d="M154.003 11.1443C149.495 11.1443 146.49 13.8343 146.49 17.8518C146.49 21.8693 149.507 24.4312 154.003 24.4312C158.5 24.4312 161.564 21.7878 161.564 17.8518C161.564 13.9158 158.523 11.1443 154.003 11.1443ZM154.05 21.7529C151.878 21.7529 150.106 20.0061 150.106 17.8518C150.106 15.6975 151.878 13.9391 154.05 13.9391C156.222 13.9391 157.971 15.6742 157.971 17.8518C157.971 20.0294 156.222 21.7529 154.05 21.7529Z" fill="black"/>
<path d="M171.59 11.1443C167.07 11.1443 164.064 13.8343 164.064 17.8518C164.064 21.8693 167.07 24.4312 171.59 24.4312C176.11 24.4312 179.127 21.7878 179.127 17.8518C179.127 13.9158 176.098 11.1443 171.59 11.1443ZM171.648 21.7529C169.453 21.7529 167.692 20.0061 167.692 17.8518C167.692 15.6975 169.453 13.9391 171.648 13.9391C173.844 13.9391 175.558 15.6742 175.558 17.8518C175.558 20.0294 173.809 21.7529 171.648 21.7529Z" fill="black"/>
<path d="M125.804 21.3453L125.769 18.1196V16.4777C125.769 12.693 123.867 10.9696 119.148 10.9696C117.528 10.9696 115.262 11.3539 114.193 11.8546V14.4398C114.921 14.0206 117.164 13.1938 118.936 13.2403C121.543 13.2986 122.54 14.1719 122.564 16.1982V16.3379L122.341 16.2564C121.449 15.8372 120.357 15.5228 119.089 15.5228C115.262 15.5228 112.82 17.5257 112.82 19.9013C112.82 22.2769 114.71 24.4312 119.007 24.373C120.427 24.3264 121.707 23.9072 122.623 23.4064L122.775 23.3016C122.775 23.3016 122.893 23.9537 122.893 24.0935H125.992C125.98 23.5462 125.816 21.3336 125.816 21.3336M118.995 22.1371C116.741 22.1371 115.567 21.1124 115.567 19.9595C115.567 18.8067 116.929 17.7819 118.995 17.7819C120.862 17.7819 122.376 18.8067 122.376 19.9595C122.376 21.1124 120.862 22.1371 118.995 22.1371Z" fill="black"/>
</g>
<defs>
<clipPath id="clip0_878_35582">
<rect width="200" height="35.1562" fill="white"/>
</clipPath>
</defs>
</svg>
