<svg width="256" height="44" viewBox="0 0 256 44" fill="none" xmlns="http://www.w3.org/2000/svg">
<g clip-path="url(#clip0_826_21425)">
<path d="M28.9272 21.978C28.9272 15.4196 34.397 10.0416 41.2043 10.0271V5.72763C41.2043 4.98434 40.5882 4.40137 39.8368 4.40137H6.3266C5.5452 4.40137 4.91406 4.98434 4.91406 5.72763V38.2139C4.91406 38.9863 5.5452 39.5984 6.3266 39.5984H39.8368C40.5882 39.5984 41.2043 38.9863 41.2043 38.2139V33.9436C34.397 33.9436 28.9272 28.5511 28.9272 21.978Z" fill="white"/>
<path d="M45.8622 21.978C45.8622 24.2808 43.9237 26.2046 41.5495 26.2046C39.1752 26.2046 37.2217 24.2953 37.2217 21.978C37.2217 19.6607 39.1752 17.7952 41.5495 17.7952C43.9237 17.7952 45.8622 19.6898 45.8622 21.978Z" fill="white"/>
<path d="M66.0741 21.9781C66.0741 25.1844 63.4143 27.7349 60.1534 27.7349C56.8926 27.7349 54.2178 25.1844 54.2178 21.9781C54.2178 18.7717 56.8475 16.2212 60.1534 16.2212C63.4594 16.2212 66.0741 18.83 66.0741 21.9781Z" fill="white"/>
<path d="M105.956 36.4213C105.956 36.4213 108.39 30.8393 108.375 30.7519C108.375 30.679 101.913 16.1921 101.132 14.312H106.136C106.211 14.5306 110.899 26.0298 110.899 26.0298H110.99C110.99 26.0298 115.407 14.5306 115.453 14.312H120.081C119.901 14.6618 110.479 36.4213 110.479 36.4213H105.94H105.956Z" fill="white"/>
<path d="M127.475 15.7547C128.977 14.5304 131.126 13.8892 133.861 13.8892C139.662 13.8892 140.849 17.285 140.849 20.127V30.1687H136.341V21.6719C136.341 20.127 136.341 16.9206 132.464 16.9206C129.518 16.9206 128.001 18.4947 127.61 18.9902C127.445 19.1942 127.369 19.2671 127.369 19.34C127.369 19.34 127.399 19.3983 127.399 19.4128V30.1833H122.861V14.3264H127.144V15.9879L127.46 15.7693L127.475 15.7547Z" fill="white"/>
<path d="M232.874 30.1687V7.84082H237.517V21.0452L237.893 20.71C237.893 20.71 244.805 14.3993 244.896 14.3118H250.17L242.401 21.395C242.401 21.395 251.072 30.1542 251.072 30.1687H245.331C245.196 30.0667 237.517 21.9925 237.517 21.9925V30.1687H232.874Z" fill="white"/>
<path d="M93.5584 7.72437V15.3613L93.303 15.2156C91.9205 14.5014 90.2825 14.1225 88.5995 14.1225C82.9794 14.1225 79.2227 17.4163 79.2227 22.357C79.2227 27.2977 82.9794 30.3875 88.5995 30.3875C90.3276 30.3875 91.9054 30.0086 93.303 29.309L93.5584 29.1778V30.2563H97.8561V7.72437H93.5584ZM88.4342 27.2249C85.6542 27.2249 83.3851 25.0387 83.3851 22.3424C83.3851 19.6462 85.6542 17.4455 88.4342 17.4455C91.2142 17.4455 93.4382 19.617 93.4382 22.3424C93.4382 25.0679 91.2142 27.2249 88.4342 27.2249Z" fill="white"/>
<path d="M175.2 14.1225C173.502 14.1225 171.894 14.5014 170.482 15.2156L170.287 15.3613V7.72437H165.929V30.2418H170.287V29.1633L170.482 29.2944C171.879 30.0086 173.472 30.3729 175.2 30.3729C180.82 30.3729 184.562 27.152 184.562 22.3425C184.562 17.5329 180.82 14.1079 175.2 14.1079M175.351 27.2249C172.571 27.2249 170.317 25.0387 170.317 22.3425C170.317 19.6462 172.571 17.4455 175.351 17.4455C178.131 17.4455 180.46 19.617 180.46 22.3425C180.46 25.0679 178.146 27.2249 175.351 27.2249Z" fill="white"/>
<path d="M197.124 13.9475C191.354 13.9475 187.507 17.3142 187.507 22.3423C187.507 27.3705 191.369 30.5769 197.124 30.5769C202.879 30.5769 206.801 27.2685 206.801 22.3423C206.801 17.4162 202.91 13.9475 197.124 13.9475ZM197.184 27.2248C194.404 27.2248 192.135 25.0386 192.135 22.3423C192.135 19.6461 194.404 17.4454 197.184 17.4454C199.964 17.4454 202.203 19.6169 202.203 22.3423C202.203 25.0677 199.964 27.2248 197.184 27.2248Z" fill="white"/>
<path d="M219.635 13.9475C213.85 13.9475 210.003 17.3142 210.003 22.3423C210.003 27.3705 213.85 30.5769 219.635 30.5769C225.421 30.5769 229.283 27.2685 229.283 22.3423C229.283 17.4162 225.406 13.9475 219.635 13.9475ZM219.71 27.2248C216.9 27.2248 214.646 25.0386 214.646 22.3423C214.646 19.6461 216.9 17.4454 219.71 17.4454C222.52 17.4454 224.714 19.6169 224.714 22.3423C224.714 25.0677 222.475 27.2248 219.71 27.2248Z" fill="white"/>
<path d="M161.03 26.7148L160.985 22.6777V20.6227C160.985 15.886 158.551 13.729 152.51 13.729C150.436 13.729 147.536 14.21 146.168 14.8367V18.0722C147.1 17.5475 149.97 16.5127 152.239 16.571C155.575 16.6439 156.853 17.737 156.883 20.2729V20.4478L156.597 20.3458C155.455 19.8211 154.058 19.4276 152.435 19.4276C147.536 19.4276 144.41 21.9344 144.41 24.9075C144.41 27.8807 146.83 30.577 152.329 30.5041C154.148 30.4458 155.786 29.9211 156.958 29.2944L157.153 29.1633C157.153 29.1633 157.303 29.9794 157.303 30.1543H161.27C161.255 29.4693 161.045 26.7002 161.045 26.7002M152.314 27.7058C149.429 27.7058 147.926 26.4233 147.926 24.9804C147.926 23.5375 149.67 22.255 152.314 22.255C154.704 22.255 156.642 23.5375 156.642 24.9804C156.642 26.4233 154.704 27.7058 152.314 27.7058Z" fill="white"/>
</g>
<defs>
<clipPath id="clip0_826_21425">
<rect width="256" height="44" fill="white"/>
</clipPath>
</defs>
</svg>
