<svg width="25" height="24" viewBox="0 0 25 24" fill="none" xmlns="http://www.w3.org/2000/svg">
<path d="M4.5 17H4C3.17157 17 2.5 17.6716 2.5 18.5C2.5 19.3284 3.17157 20 4 20H21C21.8284 20 22.5 19.3284 22.5 18.5C22.5 17.6716 21.8284 17 21 17H20.5M4.5 17H20.5M4.5 17V8.2002C4.5 7.08009 4.5 6.51962 4.71799 6.0918C4.90973 5.71547 5.21547 5.40973 5.5918 5.21799C6.01962 5 6.58009 5 7.7002 5H17.3002C18.4203 5 18.9796 5 19.4074 5.21799C19.7837 5.40973 20.0905 5.71547 20.2822 6.0918C20.5 6.5192 20.5 7.07899 20.5 8.19691V17" stroke="#333333" stroke-width="2" stroke-linecap="round" stroke-linejoin="round"/>
</svg>
