<svg width="37" height="26" viewBox="0 0 37 26" fill="none" xmlns="http://www.w3.org/2000/svg">
<path d="M33.3001 0H3.69995C3.63937 0 3.57879 0.00148028 3.51852 0.00414479C3.45794 0.00680931 3.39767 0.0112502 3.33739 0.0168752C3.27712 0.0225003 3.21716 0.0296057 3.1572 0.0381913C3.09723 0.046777 3.03758 0.0565468 2.97823 0.067797C2.91889 0.0790472 2.85985 0.0917776 2.80113 0.105988C2.7424 0.120199 2.68398 0.135594 2.62618 0.152469C2.56838 0.169344 2.51089 0.187404 2.45371 0.206944C2.39684 0.226483 2.34028 0.247503 2.28433 0.269708C2.22839 0.291912 2.17306 0.3153 2.11835 0.340169C2.06364 0.365038 2.00955 0.391091 1.95608 0.418328C1.90261 0.445565 1.85006 0.474283 1.79814 0.504185C1.74621 0.534086 1.6949 0.564876 1.64452 0.597147C1.59414 0.629417 1.54468 0.662871 1.49616 0.697214C1.44763 0.731852 1.39972 0.767675 1.35305 0.804386C1.30638 0.841097 1.26032 0.878993 1.21551 0.918072C1.17069 0.957152 1.1268 0.997119 1.08414 1.03798C1.04118 1.07913 0.999762 1.12087 0.958962 1.1641C0.918163 1.20702 0.8786 1.25114 0.840273 1.29584C0.801946 1.34055 0.764546 1.38643 0.728692 1.43291C0.692528 1.4794 0.657602 1.52706 0.62422 1.57502C0.59053 1.62328 0.558075 1.67213 0.526857 1.72216C0.495639 1.7719 0.465967 1.82253 0.437531 1.87374C0.408786 1.92496 0.381586 1.97677 0.355932 2.02917C0.329968 2.08158 0.30555 2.13457 0.282369 2.18816C0.259187 2.24174 0.237551 2.29592 0.217151 2.35069C0.196751 2.40546 0.177588 2.46053 0.160279 2.51589C0.142661 2.57155 0.126588 2.62721 0.111752 2.68346C0.0969159 2.73971 0.0836251 2.79626 0.0718798 2.85339C0.0601344 2.91024 0.0496255 2.96738 0.040971 3.02481C0.0320074 3.08225 0.0245893 3.13968 0.0187167 3.19771C0.012844 3.25544 0.00820766 3.31317 0.00542587 3.3712C0.00233499 3.42923 0.00109863 3.48725 0.00109863 3.54528V22.4544C0.00109863 22.5125 0.00264407 22.5705 0.00542587 22.6282C0.00851675 22.6862 0.012844 22.744 0.0187167 22.8017C0.0245893 22.8594 0.0320074 22.9169 0.040971 22.9746C0.0499345 23.032 0.0601344 23.0892 0.0718798 23.146C0.0836251 23.2029 0.0969159 23.2597 0.111752 23.3157C0.126279 23.3719 0.142661 23.4279 0.160279 23.4835C0.177897 23.5392 0.196751 23.5939 0.217151 23.6487C0.237551 23.7035 0.259187 23.7577 0.282369 23.811C0.30555 23.8645 0.329968 23.9175 0.355932 23.9702C0.381895 24.0226 0.409095 24.0744 0.437531 24.1257C0.465967 24.1769 0.495949 24.2272 0.526857 24.277C0.558075 24.3267 0.59053 24.3758 0.62422 24.4241C0.657911 24.4723 0.692528 24.5197 0.728692 24.5662C0.764855 24.6127 0.801946 24.6586 0.840273 24.7033C0.8786 24.7483 0.918163 24.7921 0.958962 24.835C0.999762 24.8779 1.04118 24.92 1.08414 24.9608C1.12711 25.002 1.171 25.042 1.21551 25.081C1.26032 25.1201 1.30638 25.1577 1.35305 25.1947C1.40003 25.2314 1.44763 25.2673 1.49616 25.3019C1.54468 25.3362 1.59445 25.3697 1.64452 25.402C1.6949 25.4342 1.7459 25.4653 1.79814 25.4949C1.85006 25.5248 1.90261 25.5533 1.95608 25.5808C2.00955 25.608 2.06364 25.6344 2.11835 25.6589C2.17306 25.6838 2.22839 25.7072 2.28433 25.7294C2.34028 25.7516 2.39684 25.7726 2.45371 25.7922C2.51058 25.8117 2.56838 25.8298 2.62618 25.8466C2.68429 25.8635 2.74271 25.8789 2.80113 25.8931C2.85985 25.9073 2.91889 25.9201 2.97823 25.9313C3.03758 25.9426 3.09723 25.9523 3.1572 25.9609C3.21716 25.9695 3.27712 25.9766 3.33739 25.9822C3.39767 25.9879 3.45825 25.9923 3.51852 25.995C3.57879 25.9976 3.63937 25.9991 3.69995 25.9991H33.3001C33.3607 25.9991 33.4209 25.9976 33.4815 25.995C33.5421 25.992 33.6024 25.9879 33.6626 25.9822C33.7229 25.9766 33.7829 25.9695 33.8428 25.9609C33.9028 25.9523 33.9625 25.9426 34.0218 25.9313C34.0811 25.9201 34.1402 25.9073 34.1989 25.8931C34.2576 25.8789 34.3157 25.8635 34.3738 25.8466C34.432 25.8298 34.4891 25.8117 34.5463 25.7922C34.6032 25.7726 34.6598 25.7516 34.7157 25.7294C34.7716 25.7072 34.827 25.6838 34.8817 25.6589C34.9364 25.6344 34.9905 25.608 35.044 25.5808C35.0974 25.5533 35.15 25.5248 35.2019 25.4949C35.2538 25.465 35.3051 25.4342 35.3555 25.402C35.4059 25.3697 35.4553 25.3362 35.5039 25.3019C35.5524 25.2673 35.6003 25.2314 35.647 25.1947C35.6937 25.1577 35.7397 25.1201 35.7845 25.081C35.8293 25.042 35.8732 25.002 35.9159 24.9608C35.9589 24.92 36.0003 24.8779 36.0411 24.835C36.0819 24.7921 36.1211 24.748 36.1598 24.7033C36.1981 24.6586 36.2355 24.6127 36.2713 24.5662C36.3075 24.5197 36.3421 24.4721 36.3758 24.4241C36.4095 24.3758 36.442 24.3267 36.4729 24.277C36.5041 24.2272 36.5338 24.1769 36.5622 24.1257C36.5909 24.0744 36.6178 24.0226 36.6438 23.9702C36.6698 23.9178 36.6942 23.8648 36.7174 23.811C36.7405 23.7574 36.7622 23.7032 36.7826 23.6487C36.803 23.5942 36.8218 23.5392 36.8394 23.4835C36.8571 23.4279 36.8731 23.3719 36.888 23.3157C36.9028 23.2594 36.9161 23.2029 36.9278 23.146C36.9396 23.0892 36.9501 23.032 36.9588 22.9746C36.9677 22.9172 36.9751 22.8594 36.981 22.8017C36.9869 22.744 36.9915 22.6862 36.9943 22.6282C36.9971 22.5702 36.9986 22.5125 36.9986 22.4544V3.54558C36.9986 3.48755 36.9971 3.42952 36.9943 3.37149C36.9912 3.31347 36.9869 3.25574 36.981 3.19801C36.9751 3.14027 36.9677 3.08254 36.9588 3.02511C36.9498 2.96767 36.9396 2.91053 36.9278 2.85369C36.9161 2.79655 36.9028 2.74001 36.888 2.68375C36.8731 2.6275 36.8571 2.57155 36.8394 2.51619C36.8218 2.46082 36.803 2.40546 36.7826 2.35099C36.7622 2.29651 36.7405 2.24233 36.7174 2.18845C36.6942 2.13487 36.6698 2.08187 36.6438 2.02947C36.6178 1.97707 36.5906 1.92526 36.5622 1.87404C36.5338 1.82282 36.5038 1.77249 36.4729 1.72246C36.4417 1.67272 36.4095 1.62358 36.3758 1.57532C36.3421 1.52706 36.3075 1.47969 36.2713 1.43321C36.2352 1.38673 36.1981 1.34084 36.1598 1.29614C36.1211 1.25114 36.0819 1.20732 36.0411 1.16439C36.0003 1.12146 35.9589 1.07942 35.9159 1.03827C35.8729 0.997415 35.829 0.957152 35.7845 0.918368C35.7397 0.879289 35.6937 0.841393 35.647 0.804682C35.6 0.767971 35.5524 0.732148 35.5039 0.69751C35.4553 0.662871 35.4056 0.629417 35.3555 0.597443C35.3051 0.565172 35.2538 0.534086 35.2019 0.504481C35.15 0.474579 35.0974 0.445862 35.044 0.418624C34.9905 0.391091 34.9364 0.365334 34.8817 0.340465C34.827 0.315597 34.7716 0.292208 34.7157 0.270004C34.6598 0.2478 34.6032 0.226779 34.5463 0.20724C34.4891 0.1877 34.4316 0.169641 34.3738 0.152765C34.3157 0.13589 34.2576 0.120495 34.1989 0.106284C34.1402 0.0920737 34.0811 0.0793432 34.0218 0.0680931C33.9625 0.0568429 33.9028 0.046777 33.8428 0.0384874C33.7829 0.0299017 33.7229 0.0227964 33.6626 0.0171713C33.6024 0.0112502 33.5421 0.00710536 33.4815 0.00444085C33.4209 0.00148028 33.3607 0.000296057 33.3001 0.000296057V0ZM2.46669 3.75222L12.7034 12.1573L2.46669 21.9653V3.75222ZM19.3015 13.1479C19.274 13.1707 19.2452 13.1923 19.2159 13.2127C19.1862 13.2331 19.1559 13.2524 19.1244 13.2702C19.0928 13.2879 19.061 13.3045 19.0279 13.3193C18.9952 13.3344 18.9615 13.348 18.9275 13.3602C18.8935 13.3723 18.8589 13.3829 18.8236 13.3924C18.7884 13.4016 18.7529 13.4093 18.717 13.4155C18.6811 13.4217 18.645 13.4265 18.6088 13.4294C18.5723 13.4324 18.5362 13.4342 18.4997 13.4342C18.4632 13.4342 18.4271 13.4324 18.3906 13.4294C18.3541 13.4262 18.3183 13.4214 18.2824 13.4155C18.2466 13.4093 18.211 13.4016 18.1761 13.3924C18.1409 13.3832 18.1062 13.3723 18.0722 13.3602C18.0382 13.348 18.0045 13.3341 17.9718 13.3193C17.9387 13.3042 17.9069 13.2879 17.8754 13.2702C17.8438 13.2524 17.8135 13.2331 17.7839 13.2127C17.7542 13.1923 17.7258 13.1707 17.6982 13.1479L4.56324 2.36372H32.4365L19.3015 13.1479ZM14.5805 13.6997L16.0913 14.9405C16.1333 14.9737 16.1763 15.0056 16.2196 15.037C16.2631 15.0684 16.307 15.0986 16.3519 15.1282C16.3967 15.1575 16.4421 15.1862 16.4882 15.2138C16.5342 15.2413 16.5809 15.2679 16.6285 15.2937C16.6758 15.3195 16.7237 15.344 16.7719 15.3677C16.8204 15.3914 16.8693 15.4142 16.9187 15.4358C16.9682 15.4574 17.0179 15.4781 17.0683 15.4977C17.1187 15.5175 17.1694 15.5359 17.2207 15.5533C17.272 15.5708 17.3233 15.5874 17.3752 15.6028C17.4272 15.6182 17.4794 15.6324 17.532 15.6457C17.5845 15.659 17.6374 15.6712 17.6905 15.6824C17.7437 15.6937 17.7968 15.7034 17.8506 15.7123C17.9041 15.7212 17.9579 15.7289 18.012 15.7357C18.0657 15.7425 18.1198 15.7479 18.1739 15.7526C18.228 15.757 18.2824 15.7603 18.3365 15.7627C18.3909 15.7647 18.4453 15.7659 18.4994 15.7659C18.5535 15.7659 18.6082 15.7647 18.6623 15.7627C18.7167 15.7603 18.7708 15.757 18.8252 15.7526C18.8793 15.7481 18.9334 15.7425 18.9871 15.7357C19.0409 15.7289 19.0947 15.7212 19.1485 15.7123C19.202 15.7034 19.2554 15.6934 19.3083 15.6824C19.3614 15.6712 19.4143 15.659 19.4668 15.6457C19.5194 15.6324 19.5716 15.6182 19.6236 15.6028C19.6755 15.5874 19.7271 15.5708 19.7781 15.5533C19.8294 15.5359 19.8801 15.5172 19.9305 15.4977C19.9809 15.4781 20.0309 15.4574 20.0801 15.4358C20.1295 15.4139 20.1784 15.3914 20.2269 15.3677C20.2754 15.344 20.323 15.3195 20.3706 15.2937C20.4182 15.2679 20.4646 15.2413 20.5106 15.2138C20.5567 15.1862 20.6024 15.1575 20.6469 15.1282C20.6918 15.0986 20.736 15.0684 20.7792 15.037C20.8228 15.0059 20.8655 14.9737 20.9075 14.9405L22.4196 13.6985L32.7895 23.6366H4.21057L14.5805 13.6997ZM24.2979 12.1632L34.5333 3.75222V21.9653L24.2979 12.1632Z" fill="black"/>
</svg>
